<svg width="19" height="20" viewBox="0 0 19 20" fill="none" xmlns="http://www.w3.org/2000/svg">
<path d="M10.5 2.68C11.3821 2.889 12.1471 3.27652 12.7836 3.80223L11.335 5.25085C10.7088 4.77664 9.92151 4.5 9.00004 4.5C6.51005 4.5 5.00004 6.52 5.00004 9V11.5858L3.00004 13.5858V9C3.00004 5.92 4.64004 3.36 7.50004 2.68V2C7.50004 1.17 8.17004 0.5 9.00004 0.5C9.83004 0.5 10.5 1.17 10.5 2V2.68Z" fill="#7F7F7F"/>
<path d="M17.1875 0.812471L18.6017 2.22668L1.41421 19.4142L0 18L17.1875 0.812471Z" fill="#7F7F7F"/>
<path d="M13 9.24261L14.8439 7.3988C14.9472 7.91092 15 8.44736 15 9V14L17 16V17H5.24266L7.24266 15H13V9.24261Z" fill="#7F7F7F"/>
<path d="M9.00004 20C10.1 20 11 19.1 11 18H7.00004C7.00004 19.1 7.90004 20 9.00004 20Z" fill="#7F7F7F"/>
</svg>
