<svg xmlns="http://www.w3.org/2000/svg" width="630" height="601" viewBox="0 0 630 601">
<g>
<path d="M 363.15,30.46 L 368.33,30.71 L 378.67,31.70 L 383.85,32.27 L 394.17,33.90 L 399.32,34.79 L 409.60,37.05 L 414.73,38.26 L 424.93,41.16 L 430.02,42.70 L 440.13,46.24 L 445.17,48.09 L 455.16,52.26 L 470.00,59.25 L 473.10,60.83 L 479.19,64.15 L 482.22,65.84 L 488.16,69.39 L 491.11,71.20 L 496.90,75.00 L 499.78,76.92 L 505.43,80.96 L 508.24,83.01 L 513.75,87.28 L 516.49,89.45 L 521.86,93.98 L 524.54,96.27 L 529.78,101.05 L 537.50,108.49 L 540.92,111.91 L 547.45,118.97 L 550.66,122.54 L 556.76,129.89 L 559.76,133.60 L 565.44,141.21 L 568.22,145.04 L 573.47,152.91 L 576.04,156.87 L 580.84,164.96 L 583.19,169.04 L 587.54,177.35 L 589.67,181.53 L 593.57,190.04 L 595.47,194.32 L 598.92,203.02 L 600.58,207.39 L 603.57,216.25 L 605.00,220.71 L 607.51,229.72 L 608.71,234.25 L 610.74,243.41 L 611.70,248.00 L 613.26,257.27 L 613.97,261.93 L 615.04,271.30 L 615.51,276.01 L 616.08,285.47 L 616.30,290.22 L 616.37,299.75 L 615.90,314.13 L 615.62,318.77 L 614.77,327.85 L 614.29,332.36 L 613.02,341.21 L 612.33,345.61 L 610.63,354.28 L 609.73,358.59 L 607.59,367.12 L 606.46,371.37 L 603.87,379.79 L 602.52,384.00 L 599.46,392.37 L 597.87,396.56 L 594.34,404.92 L 588.50,417.50 L 586.70,421.17 L 582.86,428.34 L 580.90,431.90 L 576.77,438.86 L 574.66,442.32 L 570.24,449.06 L 567.99,452.40 L 563.28,458.91 L 560.90,462.13 L 555.92,468.41 L 553.39,471.52 L 548.14,477.55 L 545.48,480.53 L 539.98,486.31 L 537.19,489.17 L 531.43,494.69 L 528.52,497.42 L 522.52,502.68 L 519.48,505.28 L 513.24,510.26 L 510.09,512.72 L 503.62,517.43 L 500.36,519.75 L 493.67,524.17 L 490.30,526.35 L 483.39,530.48 L 479.91,532.50 L 472.80,536.33 L 469.22,538.21 L 461.91,541.73 L 450.73,546.66 L 445.78,548.71 L 435.67,552.35 L 430.59,554.10 L 420.23,557.13 L 415.03,558.57 L 404.49,560.98 L 399.20,562.10 L 388.52,563.88 L 383.17,564.69 L 372.40,565.83 L 367.02,566.32 L 356.22,566.82 L 350.83,566.99 L 340.06,566.83 L 334.69,566.67 L 324.00,565.85 L 318.95,565.38 L 308.94,564.02 L 303.95,563.26 L 294.08,561.34 L 289.17,560.30 L 279.45,557.83 L 274.62,556.52 L 265.09,553.51 L 260.35,551.94 L 251.02,548.40 L 246.38,546.57 L 237.27,542.53 L 232.75,540.44 L 223.89,535.90 L 219.49,533.56 L 210.90,528.53 L 206.63,525.96 L 198.32,520.46 L 194.21,517.65 L 186.21,511.69 L 182.25,508.66 L 174.58,502.25 L 170.78,498.99 L 163.46,492.15 L 159.85,488.68 L 152.90,481.42 L 149.47,477.73 L 142.92,470.07 L 139.69,466.18 L 133.55,458.12 L 124.82,445.59 L 123.75,443.95 L 121.63,440.62 L 120.59,438.97 L 118.69,435.88 L 117.79,434.40 L 116.33,431.92 L 116.01,431.36 L 115.48,430.40 L 114.89,429.27 L 114.39,428.23 L 113.75,426.74 L 113.48,426.05 L 113.29,424.93 L 113.25,424.38 L 113.49,423.22 L 114.28,420.97 L 115.81,417.08 L 110.81,409.82 L 108.05,405.82 L 102.13,398.28 L 99.11,394.60 L 92.72,387.74 L 89.47,384.40 L 82.66,378.26 L 79.21,375.29 L 72.04,369.91 L 68.42,367.32 L 60.96,362.75 L 57.20,360.57 L 49.50,356.85 L 45.62,355.09 L 37.75,352.26 L 25.80,349.06 L 24.69,348.83 L 22.89,348.32 L 22.05,348.06 L 20.65,347.40 L 19.98,347.05 L 18.80,346.15 L 17.05,344.40 L 16.44,343.71 L 15.48,342.41 L 15.05,341.76 L 14.45,340.47 L 14.20,339.82 L 13.99,338.43 L 13.93,337.72 L 14.12,336.14 L 14.26,335.31 L 14.87,333.42 L 15.22,332.42 L 16.26,330.12 L 16.84,328.91 L 18.34,326.09 L 21.11,321.15 L 21.73,320.08 L 22.89,318.12 L 23.45,317.17 L 24.50,315.45 L 25.53,313.79 L 27.37,311.14 L 28.27,309.92 L 29.98,308.10 L 30.83,307.28 L 32.57,306.20 L 33.45,305.74 L 35.37,305.31 L 36.37,305.18 L 38.63,305.32 L 39.82,305.46 L 42.59,306.10 L 47.50,307.51 L 48.60,307.86 L 50.62,308.48 L 51.59,308.78 L 53.21,309.27 L 53.95,309.50 L 54.99,309.80 L 55.70,310.00 L 55.72,310.00 L 55.62,309.56 L 55.55,309.28 L 55.28,308.38 L 55.12,307.88 L 54.71,306.62 L 53.99,304.48 L 53.28,302.42 L 51.42,297.74 L 50.41,295.32 L 48.01,290.02 L 46.74,287.31 L 43.86,281.54 L 39.07,272.50 L 38.05,270.63 L 36.40,267.42 L 35.64,265.89 L 34.51,263.34 L 34.01,262.14 L 33.39,260.21 L 33.02,257.99 L 33.02,257.66 L 33.15,256.84 L 33.24,256.39 L 33.59,255.32 L 33.79,254.75 L 34.37,253.36 L 34.70,252.63 L 35.54,250.88 L 36.00,249.96 L 37.15,247.79 L 37.76,246.65 L 39.22,244.00 L 40.00,242.61 L 41.81,239.43 L 44.96,233.99 L 46.61,231.18 L 49.85,225.82 L 50.64,224.52 L 52.16,222.08 L 52.91,220.89 L 54.31,218.71 L 54.99,217.66 L 56.23,215.80 L 56.82,214.91 L 57.85,213.43 L 58.34,212.75 L 59.12,211.72 L 59.98,210.75 L 60.56,210.22 L 61.72,209.40 L 62.30,209.03 L 63.58,208.52 L 64.24,208.32 L 65.78,208.16 L 66.59,208.12 L 68.54,208.32 L 69.58,208.47 L 72.08,209.06 L 73.42,209.40 L 76.62,210.40 L 78.32,210.95 L 82.38,212.37 L 83.45,212.75 L 85.78,213.60 L 89.57,215.00 L 92.15,215.96 L 96.92,217.72 L 98.06,218.14 L 100.18,218.91 L 101.20,219.28 L 103.05,219.94 L 103.93,220.26 L 105.45,220.80 L 106.17,221.05 L 107.31,221.45 L 107.83,221.63 L 108.54,221.86 L 109.06,222.00 L 109.16,222.00 L 109.39,221.55 L 109.51,221.25 L 109.77,220.31 L 109.89,219.79 L 110.14,218.48 L 110.46,216.25 L 110.90,212.58 L 112.23,205.24 L 112.96,201.57 L 114.86,194.25 L 115.88,190.60 L 118.34,183.32 L 119.63,179.68 L 122.63,172.47 L 124.19,168.87 L 127.70,161.74 L 129.52,158.19 L 133.53,151.18 L 135.59,147.69 L 140.09,140.81 L 142.39,137.39 L 147.35,130.68 L 149.89,127.34 L 155.29,120.81 L 158.05,117.57 L 163.88,111.25 L 166.85,108.12 L 173.09,102.03 L 176.26,99.02 L 182.89,93.19 L 186.25,90.30 L 193.26,84.75 L 196.81,82.01 L 204.17,76.77 L 207.89,74.18 L 215.59,69.26 L 227.50,62.28 L 232.22,59.67 L 241.81,54.93 L 246.62,52.64 L 256.39,48.53 L 261.29,46.56 L 271.20,43.09 L 276.17,41.43 L 286.21,38.59 L 291.25,37.26 L 301.40,35.06 L 306.48,34.04 L 316.71,32.47 L 321.84,31.77 L 332.13,30.85 L 337.29,30.46 L 347.62,30.18 L 352.79,30.11 M 344.96,48.36 L 341.46,48.50 L 334.46,48.86 L 330.98,49.16 L 324.02,49.84 L 320.55,50.31 L 313.63,51.32 L 310.19,51.95 L 303.31,53.28 L 299.88,54.07 L 293.04,55.73 L 289.64,56.68 L 282.83,58.67 L 279.45,59.78 L 272.69,62.10 L 269.32,63.37 L 262.60,66.01 L 259.25,67.45 L 252.57,70.41 L 249.24,72.01 L 242.82,75.17 L 238.83,77.20 L 236.95,78.19 L 229.72,82.15 L 226.34,84.18 L 219.71,88.32 L 216.37,90.61 L 213.02,92.94 L 211.30,94.18 L 207.82,96.72 L 206.00,98.09 L 197.73,104.60 L 192.41,109.08 L 189.85,111.38 L 184.80,116.01 L 182.38,118.39 L 177.62,123.17 L 175.34,125.62 L 170.86,130.53 L 168.73,133.04 L 164.54,138.08 L 162.56,140.64 L 158.68,145.79 L 156.86,148.40 L 153.29,153.64 L 151.63,156.29 L 148.38,161.61 L 146.88,164.29 L 143.97,169.68 L 142.64,172.39 L 140.06,177.83 L 138.91,180.56 L 136.68,186.03 L 135.70,188.78 L 133.83,194.27 L 133.04,197.03 L 131.54,202.53 L 130.92,205.28 L 129.80,210.78 L 129.38,213.53 L 128.63,219.01 L 128.41,221.74 L 127.77,229.50 L 140.63,234.91 L 145.08,236.79 L 148.27,238.15 L 149.95,238.88 L 156.92,241.89 L 160.65,243.52 L 176.05,250.29 L 183.64,253.69 L 191.15,257.06 L 194.67,258.65 L 198.13,260.22 L 199.78,260.97 L 203.01,262.45 L 204.53,263.14 L 207.47,264.50 L 208.82,265.13 L 211.42,266.34 L 212.58,266.89 L 214.80,267.94 L 215.74,268.39 L 217.50,269.25 L 218.20,269.60 L 222.49,271.70 L 225.11,272.92 L 226.21,273.41 L 228.24,274.30 L 228.95,274.57 L 229.61,274.82 L 229.84,274.89 L 230.24,275.00 L 230.33,275.00 L 231.48,274.73 L 232.42,274.30 L 232.96,273.99 L 235.26,272.46 L 236.50,271.42 L 238.99,269.21 L 240.10,268.01 L 242.20,265.60 L 242.91,264.48 L 244.11,262.39 L 244.91,260.82 L 245.28,260.00 L 245.99,258.37 L 246.29,257.60 L 246.83,256.11 L 247.00,255.49 L 248.47,251.91 L 249.76,249.93 L 250.52,249.15 L 252.11,247.74 L 252.98,247.25 L 254.75,246.43 L 255.66,246.25 L 257.48,246.04 L 258.38,246.17 L 260.14,246.60 L 260.96,247.07 L 262.53,248.16 L 263.21,248.97 L 264.48,250.75 L 264.96,251.91 L 265.52,253.63 L 265.68,254.72 L 265.64,255.33 L 265.49,256.59 L 265.30,257.38 L 264.83,259.09 L 264.48,260.20 L 262.28,265.96 L 260.51,269.74 L 259.53,271.53 L 257.49,275.01 L 256.41,276.57 L 254.23,279.53 L 253.13,280.74 L 249.28,284.94 L 264.39,293.12 L 267.80,294.99 L 270.34,296.40 L 271.71,297.17 L 277.44,300.40 L 280.48,302.14 L 286.62,305.68 L 289.59,307.41 L 292.54,309.14 L 293.94,309.96 L 296.68,311.59 L 297.95,312.35 L 316.40,323.40 L 324.95,323.28 L 335.24,322.54 L 341.76,321.49 L 344.81,320.69 L 350.79,318.93 L 353.56,317.80 L 358.93,315.37 L 361.37,313.92 L 366.06,310.87 L 368.13,309.12 L 372.08,305.49 L 373.75,303.47 L 376.88,299.30 L 378.11,297.02 L 380.35,292.35 L 381.12,289.85 L 382.49,286.15 L 383.55,284.04 L 384.13,283.18 L 385.34,281.57 L 385.99,280.96 L 387.32,279.87 L 388.03,279.52 L 389.45,278.96 L 390.19,278.88 L 391.69,278.85 L 392.45,279.05 L 393.99,279.58 L 394.76,280.06 L 396.31,281.16 L 397.08,281.92 L 398.97,284.24 L 399.70,285.80 L 399.81,286.72 L 399.87,288.69 L 399.66,289.97 L 399.42,291.31 L 399.25,292.09 L 398.86,293.70 L 398.61,294.63 L 396.73,300.25 L 395.11,303.92 L 394.14,305.70 L 392.08,309.23 L 390.89,310.93 L 388.43,314.27 L 387.06,315.86 L 384.22,318.98 L 382.67,320.44 L 379.51,323.29 L 377.81,324.60 L 374.34,327.13 L 372.51,328.27 L 368.78,330.46 L 366.83,331.40 L 362.56,333.33 L 359.42,334.63 L 357.82,335.24 L 354.66,336.42 L 353.20,336.91 L 350.40,337.82 L 349.27,338.12 L 341.03,340.31 L 344.90,343.16 L 348.07,345.81 L 349.71,347.59 L 350.33,348.56 L 351.48,350.57 L 351.92,351.75 L 352.72,354.23 L 353.05,355.72 L 354.09,360.50 L 370.87,370.22 L 377.52,374.15 L 381.55,376.60 L 383.23,377.66 L 384.85,378.69 L 385.55,379.14 L 386.87,380.01 L 387.40,380.37 L 388.37,381.05 L 388.71,381.31 L 389.28,381.76 L 389.41,381.90 L 391.05,384.74 L 391.66,387.08 L 391.73,388.42 L 391.69,391.20 L 391.42,392.71 L 390.73,395.79 L 390.13,397.38 L 389.38,399.56 L 389.01,400.84 L 388.90,401.35 L 388.72,402.27 L 388.72,402.56 L 388.77,403.00 L 388.89,403.00 L 389.63,402.44 L 390.48,401.55 L 391.04,400.90 L 392.26,399.47 L 392.97,398.61 L 394.43,396.79 L 395.22,395.78 L 398.48,391.54 L 400.05,389.39 L 401.58,387.27 L 402.27,386.27 L 403.60,384.34 L 404.14,383.50 L 409.70,374.48 L 413.08,368.54 L 414.61,365.61 L 417.56,359.75 L 418.88,356.85 L 421.42,351.06 L 422.53,348.18 L 424.30,344.25 L 425.58,341.98 L 426.26,341.03 L 427.64,339.26 L 428.36,338.57 L 429.82,337.32 L 430.57,336.89 L 432.07,336.16 L 432.82,336.00 L 434.34,335.83 L 435.09,335.95 L 436.60,336.33 L 437.34,336.74 L 438.80,337.71 L 439.50,338.41 L 441.69,341.17 L 442.45,343.03 L 442.49,344.12 L 442.48,345.25 L 442.39,345.88 L 442.15,347.20 L 441.95,347.95 L 441.49,349.50 L 441.18,350.39 L 440.50,352.25 L 440.08,353.31 L 434.15,366.76 L 429.59,375.83 L 427.08,380.29 L 421.92,389.12 L 419.20,393.30 L 413.68,401.50 L 410.85,405.22 L 404.64,412.96 L 400.29,417.96 L 398.01,420.38 L 393.40,425.16 L 390.99,427.46 L 386.13,432.01 L 383.60,434.20 L 378.49,438.52 L 375.86,440.58 L 370.53,444.65 L 367.78,446.59 L 362.24,450.41 L 359.40,452.22 L 353.66,455.78 L 350.72,457.46 L 344.80,460.75 L 341.78,462.29 L 335.69,465.30 L 332.59,466.70 L 326.35,469.43 L 323.17,470.68 L 316.79,473.12 L 313.56,474.22 L 307.05,476.36 L 303.75,477.31 L 297.13,479.13 L 293.79,479.93 L 287.07,481.44 L 283.68,482.07 L 276.88,483.25 L 273.46,483.72 L 261.29,485.38 L 251.64,504.70 L 247.90,512.23 L 246.77,514.51 L 246.26,515.55 L 245.27,517.57 L 244.83,518.47 L 244.00,520.18 L 243.65,520.90 L 243.01,522.25 L 242.76,522.76 L 242.33,523.69 L 242.20,523.98 L 242.00,524.43 L 242.00,524.46 L 242.35,524.82 L 242.93,525.18 L 243.37,525.41 L 244.37,525.92 L 245.00,526.22 L 246.37,526.86 L 247.19,527.22 L 248.90,527.97 L 249.87,528.38 L 251.88,529.22 L 252.98,529.68 L 257.65,531.56 L 260.29,532.57 L 267.18,535.08 L 271.98,536.69 L 274.46,537.46 L 284.57,540.42 L 289.79,541.70 L 300.28,544.14 L 305.48,545.11 L 315.80,546.88 L 320.71,547.48 L 326.56,548.11 L 329.62,548.34 L 335.81,548.72 L 339.00,548.83 L 345.44,548.98 L 348.71,548.96 L 355.28,548.88 L 358.57,548.75 L 371.77,547.99 L 378.16,547.28 L 384.50,546.51 L 387.56,546.04 L 393.62,545.05 L 396.50,544.48 L 410.75,541.21 L 420.10,538.64 L 424.69,537.17 L 433.82,534.09 L 438.29,532.36 L 447.18,528.79 L 451.53,526.83 L 460.15,522.77 L 464.37,520.57 L 472.72,516.05 L 476.79,513.62 L 484.85,508.64 L 488.77,505.99 L 496.52,500.57 L 500.28,497.70 L 507.71,491.85 L 511.29,488.77 L 518.38,482.51 L 521.79,479.22 L 528.51,472.56 L 531.74,469.08 L 538.08,462.02 L 541.11,458.35 L 547.07,450.92 L 549.89,447.07 L 555.43,439.27 L 558.04,435.24 L 563.16,427.09 L 565.55,422.89 L 570.22,414.41 L 572.38,410.05 L 577.20,399.75 L 580.17,392.80 L 581.54,389.29 L 584.18,382.26 L 585.39,378.70 L 587.71,371.58 L 588.75,367.99 L 590.75,360.79 L 591.63,357.17 L 593.30,349.91 L 594.02,346.26 L 595.36,338.95 L 595.91,335.27 L 596.93,327.92 L 597.32,324.22 L 598.01,316.83 L 598.23,313.13 L 598.58,305.72 L 598.64,302.01 L 598.67,294.58 L 598.55,290.87 L 598.25,283.44 L 597.97,279.73 L 597.33,272.31 L 596.89,268.61 L 595.91,261.21 L 595.30,257.52 L 593.99,250.15 L 593.21,246.48 L 591.56,239.15 L 590.61,235.50 L 587.10,223.14 L 584.58,215.44 L 583.15,211.66 L 580.17,204.07 L 578.42,200.10 L 576.63,196.08 L 575.65,193.99 L 573.64,189.74 L 572.54,187.50 L 566.39,175.75 L 561.99,168.11 L 559.65,164.39 L 554.87,157.02 L 552.34,153.44 L 547.19,146.36 L 544.49,142.93 L 538.99,136.14 L 536.12,132.86 L 530.29,126.38 L 527.25,123.26 L 521.10,117.11 L 517.91,114.16 L 511.46,108.34 L 508.12,105.56 L 501.38,100.09 L 497.91,97.50 L 490.90,92.39 L 487.29,89.98 L 480.03,85.25 L 476.30,83.03 L 468.79,78.69 L 464.95,76.67 L 457.22,72.73 L 453.28,70.92 L 445.34,67.40 L 441.29,65.80 L 433.16,62.71 L 429.03,61.32 L 420.72,58.67 L 416.50,57.52 L 405.60,54.77 L 398.37,53.18 L 394.76,52.50 L 387.57,51.24 L 383.98,50.73 L 376.83,49.79 L 373.26,49.44 L 366.15,48.82 L 362.60,48.64 L 355.52,48.35 L 352.00,48.32 M 139.23,432.00 L 138.70,432.22 L 138.59,432.61 L 138.65,432.93 L 138.87,433.66 L 139.12,434.17 L 139.70,435.28 L 140.13,435.99 L 141.09,437.52 L 141.72,438.46 L 143.08,440.45 L 143.91,441.63 L 145.70,444.10 L 146.76,445.54 L 148.98,448.54 L 150.27,450.26 L 156.76,458.45 L 161.36,463.85 L 163.78,466.51 L 168.69,471.78 L 171.26,474.36 L 176.46,479.49 L 179.16,481.98 L 184.62,486.92 L 187.44,489.32 L 193.12,494.04 L 196.03,496.32 L 201.91,500.81 L 204.90,502.95 L 210.94,507.16 L 214.00,509.16 L 216.84,510.99 L 218.12,511.81 L 220.57,513.36 L 221.57,513.98 L 223.39,515.11 L 223.99,515.45 L 224.52,515.76 L 224.70,515.85 L 224.98,515.99 L 225.02,515.99 L 225.27,515.70 L 225.57,515.23 L 225.78,514.87 L 226.24,514.06 L 226.53,513.54 L 227.13,512.44 L 227.48,511.79 L 228.98,508.95 L 229.86,507.23 L 231.70,503.64 L 232.68,501.67 L 239.82,487.34 L 232.66,485.07 L 229.40,483.98 L 227.05,483.15 L 225.80,482.69 L 220.63,480.73 L 217.86,479.61 L 212.22,477.29 L 209.34,476.06 L 203.56,473.54 L 200.74,472.25 L 195.16,469.68 L 192.56,468.43 L 187.50,465.95 L 185.29,464.81 L 183.13,463.68 L 182.16,463.14 L 180.27,462.10 L 179.44,461.62 L 177.86,460.68 L 177.20,460.25 L 175.97,459.44 L 175.50,459.08 L 172.85,457.01 L 170.59,455.19 L 169.33,454.14 L 163.97,449.70 L 161.50,447.58 L 154.32,441.71 L 151.98,439.90 L 150.85,439.07 L 148.64,437.45 L 147.62,436.73 L 145.62,435.36 L 144.72,434.78 L 143.01,433.70 L 142.29,433.29 L 140.94,432.55 L 140.42,432.34 L 139.50,432.00 M 40.40,325.47 L 40.09,325.66 L 39.46,326.15 L 39.13,326.57 L 38.43,327.52 L 38.03,328.19 L 36.60,330.71 L 36.27,331.37 L 36.16,331.61 L 36.00,332.03 L 36.00,332.11 L 36.28,332.33 L 36.74,332.57 L 37.09,332.73 L 37.86,333.07 L 38.36,333.27 L 39.42,333.71 L 40.04,333.95 L 42.77,335.00 L 44.41,335.60 L 47.86,336.85 L 49.75,337.51 L 57.86,340.42 L 63.84,342.64 L 67.05,343.87 L 73.59,346.39 L 77.00,347.73 L 83.87,350.45 L 87.36,351.86 L 101.39,357.59 L 108.06,360.42 L 114.63,363.23 L 117.72,364.58 L 123.76,367.24 L 126.50,368.49 L 139.72,374.68 L 148.95,379.17 L 153.63,381.51 L 162.99,386.25 L 167.56,388.63 L 176.59,393.38 L 180.83,395.67 L 185.01,397.94 L 187.00,399.04 L 190.92,401.21 L 192.76,402.25 L 196.36,404.29 L 198.01,405.26 L 201.23,407.14 L 202.68,408.02 L 205.46,409.71 L 206.67,410.48 L 208.96,411.95 L 209.90,412.60 L 211.64,413.82 L 212.29,414.33 L 213.43,415.28 L 213.75,415.63 L 215.20,417.93 L 215.80,419.70 L 215.91,420.63 L 216.00,422.52 L 215.84,423.45 L 215.40,425.25 L 214.97,426.06 L 213.30,427.96 L 211.71,429.10 L 210.82,429.54 L 209.00,430.30 L 208.15,430.48 L 206.52,430.66 L 205.91,430.47 L 205.27,430.20 L 204.61,429.88 L 204.18,429.65 L 203.26,429.17 L 202.71,428.87 L 201.57,428.25 L 200.92,427.89 L 198.17,426.35 L 196.61,425.45 L 193.39,423.57 L 191.71,422.57 L 186.95,419.79 L 183.48,417.81 L 181.63,416.77 L 173.94,412.50 L 169.82,410.27 L 161.43,405.78 L 157.19,403.56 L 148.73,399.15 L 144.69,397.09 L 140.68,395.06 L 138.77,394.10 L 135.00,392.22 L 133.23,391.35 L 129.77,389.66 L 128.19,388.90 L 125.12,387.44 L 123.75,386.81 L 121.15,385.62 L 120.05,385.14 L 117.98,384.25 L 117.18,383.94 L 115.74,383.41 L 115.28,383.28 L 114.53,383.13 L 114.45,383.22 L 114.50,383.47 L 114.66,383.79 L 114.80,384.03 L 115.50,385.17 L 116.04,385.97 L 117.24,387.71 L 117.97,388.74 L 119.53,390.89 L 120.40,392.05 L 123.18,395.84 L 125.11,398.57 L 126.04,399.93 L 127.87,402.60 L 128.66,403.81 L 130.15,406.11 L 130.70,407.00 L 134.66,413.50 L 140.16,414.10 L 143.20,414.62 L 145.26,415.17 L 146.32,415.56 L 148.49,416.42 L 149.63,416.98 L 151.97,418.19 L 153.22,418.93 L 155.79,420.52 L 157.19,421.48 L 160.06,423.49 L 161.63,424.67 L 164.86,427.15 L 166.64,428.58 L 170.30,431.56 L 172.32,433.25 L 179.20,438.86 L 183.32,442.03 L 185.19,443.36 L 188.80,445.85 L 190.46,446.88 L 193.68,448.79 L 195.19,449.56 L 200.24,452.03 L 203.97,453.78 L 205.97,454.69 L 214.24,458.36 L 218.45,460.13 L 222.64,461.87 L 224.66,462.69 L 228.65,464.28 L 230.50,465.00 L 234.10,466.36 L 235.70,466.93 L 238.75,468.00 L 240.00,468.39 L 246.74,470.53 L 248.63,471.14 L 249.36,471.38 L 250.66,471.81 L 251.00,471.92 L 252.58,472.39 L 253.47,472.57 L 255.23,472.86 L 255.89,472.89 L 257.24,472.84 L 257.76,472.55 L 257.87,472.16 L 257.96,471.72 L 257.97,471.41 L 257.98,470.74 L 257.96,470.31 L 257.89,469.36 L 257.84,468.78 L 257.71,467.52 L 257.64,466.75 L 256.76,460.51 L 255.92,456.16 L 255.40,453.93 L 253.04,444.93 L 251.56,440.60 L 250.04,436.33 L 249.23,434.31 L 247.58,430.36 L 246.73,428.56 L 245.00,425.09 L 244.13,423.59 L 242.38,420.75 L 241.52,419.61 L 239.70,417.64 L 238.05,416.15 L 237.01,415.32 L 234.80,413.61 L 233.50,412.67 L 230.77,410.76 L 229.22,409.73 L 226.01,407.64 L 224.24,406.53 L 220.58,404.28 L 218.60,403.10 L 214.55,400.71 L 212.38,399.47 L 207.96,396.96 L 205.63,395.67 L 200.88,393.07 L 198.40,391.74 L 193.37,389.07 L 190.76,387.71 L 180.07,382.23 L 174.45,379.47 L 163.03,373.93 L 157.16,371.20 L 145.33,365.78 L 139.36,363.16 L 134.23,360.95 L 130.50,359.37 L 128.50,358.53 L 124.42,356.84 L 122.27,355.96 L 117.91,354.17 L 115.65,353.25 L 106.40,349.53 L 101.62,347.64 L 92.00,343.85 L 87.23,342.01 L 77.77,338.36 L 73.29,336.67 L 68.86,335.00 L 66.74,334.21 L 62.57,332.66 L 60.60,331.94 L 56.76,330.53 L 54.99,329.90 L 51.55,328.67 L 50.00,328.13 L 47.02,327.10 L 45.72,326.67 L 43.27,325.87 L 42.27,325.56 L 41.08,325.36 M 76.57,279.39 L 75.76,279.47 L 75.50,279.59 L 75.06,279.88 L 74.92,280.09 L 74.29,281.38 L 74.02,282.22 L 74.02,282.50 L 74.37,282.82 L 74.94,283.14 L 75.38,283.35 L 76.35,283.80 L 76.97,284.06 L 78.30,284.61 L 79.08,284.92 L 80.72,285.56 L 81.63,285.91 L 83.53,286.62 L 84.56,286.99 L 88.89,288.54 L 91.26,289.34 L 97.71,291.58 L 102.18,293.17 L 104.48,294.01 L 113.83,297.48 L 118.61,299.32 L 128.19,303.06 L 132.89,304.96 L 142.19,308.76 L 146.57,310.60 L 150.89,312.44 L 152.95,313.33 L 157.01,315.10 L 158.91,315.95 L 162.63,317.61 L 164.35,318.40 L 167.67,319.95 L 169.17,320.67 L 172.04,322.06 L 173.28,322.70 L 175.63,323.92 L 176.59,324.46 L 178.36,325.48 L 179.01,325.90 L 180.14,326.69 L 180.44,326.99 L 181.46,328.32 L 181.97,329.32 L 182.14,329.87 L 182.63,332.15 L 182.56,333.34 L 182.21,335.72 L 181.72,336.80 L 181.19,337.85 L 180.85,338.32 L 180.11,339.23 L 179.67,339.61 L 177.02,341.30 L 176.11,341.69 L 175.69,341.81 L 174.89,342.00 L 174.57,342.00 L 173.87,341.89 L 173.20,341.71 L 172.77,341.58 L 170.83,340.92 L 169.59,340.43 L 166.95,339.38 L 165.47,338.74 L 162.44,337.40 L 160.87,336.67 L 151.37,332.34 L 144.43,329.29 L 140.80,327.73 L 133.48,324.62 L 129.83,323.11 L 122.56,320.12 L 119.10,318.73 L 112.33,316.04 L 109.29,314.87 L 106.30,313.73 L 104.93,313.21 L 102.25,312.22 L 101.04,311.79 L 98.72,310.96 L 97.71,310.62 L 95.80,309.98 L 95.02,309.74 L 93.57,309.32 L 93.04,309.19 L 92.12,309.00 L 91.88,309.00 L 91.13,309.35 L 90.47,309.91 L 90.08,310.31 L 88.40,312.22 L 87.52,313.41 L 85.79,315.90 L 85.11,317.07 L 84.47,318.22 L 84.23,318.73 L 83.83,319.69 L 83.74,320.06 L 84.00,320.38 L 84.46,320.70 L 84.83,320.90 L 85.65,321.35 L 86.18,321.61 L 87.31,322.16 L 87.98,322.47 L 90.91,323.79 L 92.69,324.54 L 96.44,326.08 L 98.50,326.88 L 120.31,335.57 L 134.25,341.34 L 140.93,344.21 L 154.08,349.95 L 160.35,352.81 L 172.71,358.52 L 178.59,361.36 L 190.14,367.04 L 195.62,369.87 L 206.38,375.52 L 211.45,378.33 L 221.41,383.94 L 226.08,386.73 L 235.23,392.31 L 239.50,395.08 L 243.64,397.84 L 246.06,399.54 L 247.12,400.34 L 249.17,401.92 L 250.08,402.70 L 251.83,404.24 L 252.61,405.03 L 255.56,408.22 L 256.88,410.05 L 258.19,411.93 L 258.84,412.97 L 260.15,415.12 L 260.83,416.31 L 263.23,420.90 L 264.78,424.21 L 265.52,425.98 L 268.37,433.33 L 269.61,437.29 L 271.95,445.34 L 272.87,449.45 L 274.53,457.67 L 275.05,461.67 L 275.52,465.20 L 275.82,467.36 L 275.96,468.27 L 276.22,469.97 L 276.33,470.57 L 276.51,471.58 L 276.56,471.75 L 276.75,472.50 L 277.02,472.67 L 277.34,472.80 L 277.61,472.80 L 278.23,472.75 L 278.70,472.65 L 279.76,472.39 L 280.50,472.18 L 282.13,471.68 L 283.20,471.34 L 285.53,470.58 L 287.01,470.09 L 290.18,469.04 L 292.12,468.39 L 297.51,466.51 L 300.59,465.34 L 301.78,464.83 L 302.91,464.35 L 303.38,464.13 L 304.23,463.72 L 304.54,463.55 L 305.08,463.22 L 305.22,463.10 L 305.42,462.87 L 305.38,462.81 L 305.29,462.30 L 305.25,461.68 L 305.25,461.24 L 305.25,460.28 L 305.27,459.69 L 305.31,458.43 L 305.34,457.71 L 305.50,454.57 L 305.62,452.72 L 305.90,448.87 L 306.08,446.81 L 306.43,442.57 L 306.61,439.98 L 306.67,438.77 L 306.88,434.15 L 306.88,431.96 L 306.83,427.60 L 306.72,425.28 L 306.58,422.91 L 306.49,421.65 L 306.30,419.05 L 306.18,417.64 L 305.62,412.16 L 305.14,408.30 L 304.87,406.33 L 303.66,398.37 L 302.98,394.68 L 302.29,391.06 L 301.95,389.41 L 301.26,386.25 L 300.92,384.90 L 300.27,382.37 L 299.96,381.40 L 299.37,379.69 L 299.11,379.20 L 298.63,378.65 L 298.08,378.15 L 297.69,377.84 L 296.84,377.19 L 296.33,376.81 L 295.23,376.03 L 294.61,375.60 L 291.90,373.78 L 290.32,372.79 L 287.03,370.75 L 285.28,369.71 L 263.63,357.37 L 249.06,349.42 L 241.71,345.60 L 226.98,338.05 L 219.55,334.43 L 204.68,327.29 L 197.19,323.88 L 182.20,317.16 L 174.67,313.97 L 159.59,307.68 L 152.02,304.70 L 136.87,298.86 L 129.28,296.11 L 114.10,290.72 L 106.50,288.20 L 101.77,286.63 L 98.87,285.68 L 97.54,285.25 L 94.97,284.40 L 93.79,284.03 L 91.52,283.29 L 90.48,282.97 L 88.49,282.34 L 87.59,282.06 L 85.87,281.53 L 85.09,281.30 L 82.24,280.48 L 81.13,280.19 L 79.12,279.71 L 78.37,279.58 L 77.03,279.39 M 69.95,227.75 L 69.68,228.15 L 69.36,228.65 L 69.13,229.01 L 68.65,229.79 L 68.36,230.27 L 67.74,231.29 L 67.38,231.88 L 65.85,234.44 L 64.95,235.95 L 63.10,239.09 L 62.11,240.77 L 59.82,244.74 L 58.56,246.98 L 58.07,247.92 L 57.16,249.69 L 56.83,250.41 L 56.25,251.74 L 56.08,252.27 L 55.81,253.22 L 55.79,253.58 L 55.82,254.21 L 55.94,254.42 L 56.24,254.78 L 56.50,254.87 L 57.07,255.00 L 57.44,255.00 L 58.30,255.12 L 59.22,255.31 L 59.84,255.45 L 61.18,255.78 L 61.99,255.99 L 63.71,256.43 L 64.69,256.70 L 66.73,257.26 L 67.85,257.57 L 70.18,258.22 L 71.43,258.58 L 76.64,260.08 L 79.50,260.92 L 85.32,262.65 L 88.34,263.56 L 94.41,265.41 L 97.40,266.35 L 103.33,268.20 L 106.12,269.10 L 111.54,270.85 L 113.94,271.66 L 137.46,279.91 L 153.14,285.78 L 160.96,288.89 L 176.59,295.22 L 184.37,298.56 L 199.90,305.33 L 207.61,308.88 L 223.01,316.08 L 230.64,319.84 L 245.85,327.44 L 253.38,331.39 L 268.37,339.39 L 275.77,343.52 L 290.49,351.88 L 297.74,356.19 L 303.03,359.41 L 306.27,361.45 L 307.64,362.34 L 308.96,363.21 L 309.54,363.60 L 310.64,364.35 L 311.08,364.67 L 311.91,365.28 L 312.21,365.51 L 312.73,365.94 L 312.86,366.08 L 313.75,367.43 L 314.45,368.78 L 314.81,369.62 L 316.27,373.32 L 316.86,375.30 L 319.00,383.30 L 320.27,388.81 L 320.82,391.63 L 322.81,403.04 L 323.45,408.84 L 324.51,420.45 L 324.67,426.15 L 324.77,431.81 L 324.72,434.59 L 324.56,440.09 L 324.38,442.75 L 324.15,446.31 L 324.05,447.89 L 323.88,450.91 L 323.82,452.11 L 323.76,453.25 L 323.74,453.73 L 323.71,454.62 L 323.70,454.95 L 323.69,455.55 L 323.69,455.73 L 323.71,456.00 L 323.72,456.00 L 324.23,455.79 L 324.95,455.47 L 325.46,455.23 L 326.56,454.71 L 327.21,454.39 L 328.57,453.74 L 329.31,453.37 L 334.66,450.75 L 336.58,439.62 L 337.55,432.92 L 337.78,430.64 L 337.88,429.41 L 338.05,426.90 L 338.12,425.50 L 338.24,422.61 L 338.28,420.98 L 338.35,417.57 L 338.38,415.61 L 338.41,411.53 L 338.41,409.19 L 338.41,404.30 L 338.40,401.50 L 338.36,394.97 L 338.31,390.93 L 338.27,389.08 L 338.19,385.47 L 338.15,383.82 L 338.04,380.62 L 337.98,379.17 L 337.85,376.38 L 337.77,375.13 L 337.61,372.74 L 337.52,371.68 L 337.34,369.67 L 337.23,368.81 L 337.02,367.18 L 336.90,366.50 L 335.49,358.51 L 324.50,350.81 L 313.89,343.59 L 306.46,338.73 L 302.58,336.29 L 294.70,331.38 L 290.61,328.91 L 282.31,323.96 L 278.01,321.48 L 269.31,316.51 L 264.81,314.02 L 255.73,309.03 L 251.05,306.53 L 241.62,301.54 L 236.77,299.05 L 227.00,294.06 L 221.99,291.58 L 211.90,286.61 L 206.75,284.14 L 196.38,279.20 L 191.09,276.75 L 169.67,266.97 L 158.62,262.18 L 136.29,252.64 L 124.85,248.00 L 101.79,238.80 L 90.05,234.36 L 82.45,231.56 L 80.15,230.74 L 79.09,230.37 L 77.04,229.68 L 76.13,229.38 L 74.39,228.81 L 73.65,228.59 L 72.28,228.18 L 71.74,228.03 L 70.79,227.79 L 70.48,227.74 L 70.00,227.69 M 190.81,339.58 L 192.98,339.93 L 194.92,340.47 L 196.10,340.88 L 198.61,341.80 L 200.05,342.38 L 203.05,343.64 L 204.71,344.38 L 208.14,345.94 L 209.99,346.82 L 213.77,348.63 L 215.77,349.63 L 219.82,351.66 L 221.93,352.75 L 226.19,354.97 L 228.38,356.14 L 237.22,360.94 L 241.67,363.46 L 250.53,368.55 L 254.77,371.10 L 258.96,373.65 L 260.97,374.91 L 264.92,377.40 L 266.79,378.61 L 270.44,381.02 L 272.12,382.17 L 275.39,384.45 L 276.86,385.52 L 278.77,386.96 L 279.87,387.83 L 280.35,388.25 L 282.08,389.87 L 282.78,390.77 L 284.13,392.65 L 284.79,393.87 L 285.47,395.14 L 285.84,395.88 L 286.59,397.44 L 287.01,398.34 L 290.17,406.20 L 292.02,411.86 L 292.76,414.71 L 294.12,420.36 L 294.56,422.98 L 294.96,425.55 L 295.09,426.75 L 295.30,429.08 L 295.33,430.14 L 295.34,433.45 L 295.20,435.01 L 295.02,435.59 L 294.58,436.64 L 294.20,437.11 L 293.33,438.03 L 292.69,438.58 L 291.17,439.73 L 290.38,440.10 L 288.79,440.70 L 287.99,440.81 L 286.40,440.90 L 285.63,440.77 L 284.10,440.38 L 283.39,440.02 L 281.99,439.18 L 281.36,438.61 L 280.16,437.37 L 279.66,436.60 L 278.71,434.97 L 278.36,434.03 L 277.74,432.05 L 277.58,430.95 L 276.41,424.48 L 275.44,420.08 L 274.90,417.97 L 273.77,413.86 L 273.19,412.06 L 272.61,410.31 L 272.32,409.53 L 271.75,408.02 L 271.47,407.38 L 270.08,404.67 L 269.03,403.10 L 268.38,402.37 L 266.97,400.92 L 266.05,400.16 L 264.07,398.59 L 262.80,397.68 L 257.69,394.17 L 253.92,391.70 L 251.88,390.42 L 247.69,387.82 L 245.45,386.48 L 240.90,383.78 L 238.50,382.41 L 228.64,376.85 L 223.38,374.05 L 212.70,368.47 L 207.22,365.76 L 198.45,361.32 L 195.77,359.92 L 194.53,359.25 L 192.13,357.96 L 191.05,357.37 L 188.99,356.22 L 188.11,355.71 L 186.45,354.74 L 185.80,354.34 L 184.61,353.58 L 184.22,353.30 L 183.57,352.80 L 183.47,352.65 L 182.36,350.47 L 181.98,348.97 L 181.95,348.22 L 182.01,346.73 L 182.19,346.02 L 182.64,344.62 L 183.00,343.98 L 183.81,342.73 L 184.33,342.20 L 185.46,341.19 L 186.12,340.80 L 187.51,340.10 L 188.30,339.89 L 189.92,339.57 M 358.03,384.00 L 357.86,384.51 L 357.74,385.32 L 357.68,385.95 L 357.56,387.35 L 357.49,388.24 L 357.37,390.15 L 357.30,391.27 L 357.18,393.62 L 357.12,394.94 L 357.01,397.66 L 356.95,399.14 L 356.74,405.35 L 356.66,408.75 L 356.39,418.62 L 356.28,421.69 L 356.23,423.12 L 356.12,425.92 L 356.06,427.18 L 355.95,429.63 L 355.89,430.69 L 355.78,432.71 L 355.73,433.54 L 355.62,435.05 L 355.57,435.59 L 355.47,436.53 L 355.43,436.75 L 355.12,438.43 L 355.14,438.93 L 355.20,439.37 L 355.29,439.50 L 355.51,439.72 L 355.70,439.75 L 356.12,439.76 L 356.42,439.68 L 357.07,439.47 L 357.50,439.29 L 358.42,438.87 L 358.99,438.59 L 360.20,437.97 L 360.93,437.59 L 365.36,435.28 L 365.14,429.39 L 365.15,426.36 L 365.28,424.11 L 365.39,422.89 L 365.99,417.81 L 366.46,415.10 L 367.52,409.61 L 368.18,406.93 L 369.59,401.65 L 370.39,399.29 L 372.85,392.09 L 365.84,388.04 L 363.05,386.47 L 361.36,385.55 L 360.65,385.19 L 359.34,384.52 L 358.89,384.32 L 358.14,384.00 M 298.00,217.09 L 299.04,217.48 L 301.01,218.45 L 301.76,219.25 L 302.37,220.10 L 302.94,221.03 L 303.30,221.66 L 304.06,223.03 L 304.50,223.85 L 305.43,225.58 L 305.94,226.57 L 306.99,228.61 L 307.56,229.73 L 308.71,232.03 L 309.31,233.25 L 311.78,238.32 L 313.04,241.00 L 322.22,260.50 L 320.99,265.00 L 319.67,270.16 L 319.00,273.18 L 318.76,274.52 L 318.35,277.12 L 318.23,278.31 L 318.05,280.64 L 318.04,281.75 L 318.08,284.18 L 318.24,285.17 L 318.45,285.44 L 318.99,285.85 L 319.47,285.92 L 320.58,286.00 L 321.43,286.00 L 323.30,285.74 L 324.89,285.32 L 325.79,285.00 L 329.64,283.51 L 331.57,282.50 L 334.44,281.10 L 336.19,280.35 L 336.99,280.07 L 338.55,279.56 L 339.27,279.40 L 340.66,279.14 L 341.29,279.10 L 342.53,279.07 L 343.10,279.15 L 344.21,279.37 L 344.73,279.56 L 346.68,280.59 L 347.55,281.45 L 349.18,283.69 L 349.81,285.32 L 349.89,286.21 L 349.89,288.01 L 349.66,288.98 L 349.04,290.95 L 348.50,292.00 L 347.33,293.57 L 346.15,294.65 L 345.33,295.23 L 343.54,296.42 L 342.38,297.07 L 339.87,298.43 L 338.32,299.20 L 336.51,300.09 L 335.72,300.47 L 334.20,301.18 L 333.52,301.47 L 330.98,302.49 L 329.84,302.81 L 327.59,303.34 L 326.34,303.48 L 323.73,303.70 L 322.08,303.76 L 318.22,303.72 L 315.87,303.51 L 314.80,303.30 L 312.72,302.82 L 311.78,302.48 L 309.95,301.73 L 309.13,301.25 L 307.53,300.21 L 306.81,299.58 L 305.42,298.25 L 304.80,297.46 L 303.59,295.81 L 303.06,294.87 L 302.02,292.89 L 301.55,291.78 L 300.91,289.77 L 300.57,288.18 L 300.45,287.29 L 300.07,283.49 L 300.07,281.36 L 300.17,277.00 L 300.41,274.79 L 301.00,270.40 L 301.47,268.38 L 302.92,262.25 L 294.98,245.38 L 292.07,239.10 L 290.50,235.55 L 289.88,234.06 L 288.76,231.24 L 288.36,230.06 L 287.66,227.86 L 287.47,226.94 L 287.18,225.22 L 287.17,224.50 L 287.26,223.14 L 287.43,222.56 L 287.86,221.44 L 288.20,220.94 L 288.96,219.95 L 289.45,219.45 L 292.35,217.59 L 294.58,216.94 L 295.72,216.92 M 423.18,171.27 L 424.74,171.62 L 425.49,171.97 L 426.99,172.81 L 427.69,173.41 L 429.06,174.88 L 429.74,175.96 L 429.98,176.57 L 430.37,177.82 L 430.46,178.52 L 430.55,179.98 L 430.49,180.78 L 430.28,182.45 L 430.07,183.38 L 429.56,185.30 L 429.19,186.35 L 428.39,188.54 L 427.87,189.74 L 426.75,192.22 L 426.08,193.57 L 423.32,198.56 L 421.32,201.63 L 420.25,203.03 L 418.04,205.75 L 416.86,206.98 L 414.44,209.35 L 413.16,210.40 L 410.53,212.42 L 409.14,213.30 L 406.31,214.98 L 404.81,215.69 L 401.76,217.01 L 400.16,217.55 L 396.91,218.52 L 395.20,218.88 L 390.42,219.66 L 387.99,219.73 L 383.11,219.64 L 380.66,219.27 L 375.75,218.33 L 373.31,217.54 L 368.45,215.74 L 366.06,214.53 L 362.63,212.52 L 361.00,211.19 L 360.46,210.47 L 359.56,208.96 L 359.33,208.07 L 359.00,206.18 L 359.00,205.02 L 359.36,202.67 L 359.93,201.27 L 360.35,200.66 L 361.30,199.52 L 361.89,199.05 L 363.14,198.19 L 363.86,197.88 L 365.35,197.34 L 366.16,197.19 L 367.82,197.00 L 368.68,197.04 L 370.44,197.22 L 371.33,197.46 L 373.12,198.04 L 374.00,198.50 L 379.90,200.73 L 383.89,201.47 L 385.87,201.49 L 389.80,201.29 L 391.71,200.86 L 395.46,199.79 L 397.22,198.95 L 400.66,197.06 L 402.22,195.83 L 405.22,193.19 L 406.50,191.61 L 408.93,188.29 L 409.88,186.38 L 411.61,182.43 L 412.16,180.24 L 413.20,177.37 L 414.12,175.71 L 414.68,175.01 L 415.85,173.69 L 416.51,173.17 L 417.87,172.23 L 418.60,171.91 L 420.08,171.37 L 420.85,171.26 L 422.40,171.15 Z" fill="rgba(0,0,0,1)"/>
<path d="M 219.04,269.97 L 221.12,270.94 L 222.07,271.38 L 223.93,272.22 L 224.76,272.60 L 226.35,273.31 L 227.03,273.61 L 228.31,274.16 L 228.81,274.37 L 229.73,274.74 L 230.03,274.85 L 230.42,274.98 L 230.33,275.00 L 230.24,275.00 L 229.84,274.89 L 229.61,274.82 L 228.95,274.57 L 228.24,274.30 L 226.21,273.41 L 225.11,272.92 L 222.49,271.70 L 218.20,269.60 L 217.50,269.25 L 216.97,268.99 M 240.10,268.01 L 238.99,269.21 L 237.01,270.97 L 239.08,269.10 L 240.18,267.91 L 242.24,265.54 L 242.91,264.48 L 242.20,265.60 M 345.90,105.27 L 353.60,105.72 L 357.39,106.12 L 364.93,107.04 L 368.63,107.68 L 375.97,109.08 L 379.56,109.95 L 386.69,111.81 L 390.16,112.92 L 397.03,115.24 L 400.36,116.57 L 406.95,119.35 L 410.13,120.91 L 416.41,124.14 L 419.42,125.93 L 425.37,129.60 L 428.20,131.61 L 433.77,135.73 L 436.41,137.95 L 441.58,142.51 L 444.01,144.95 L 452.73,154.70 L 457.82,161.47 L 460.02,165.01 L 464.18,172.20 L 465.94,175.98 L 469.22,183.67 L 470.55,187.73 L 471.54,191.07 L 472.20,193.60 L 472.52,194.97 L 473.75,200.65 L 474.27,203.55 L 474.76,206.43 L 474.97,207.82 L 475.36,210.54 L 475.50,211.79 L 475.76,214.21 L 475.83,215.25 L 475.94,217.23 L 475.93,218.00 L 475.88,219.35 L 475.83,219.99 L 475.77,220.15 L 475.64,220.38 L 475.53,220.31 L 475.29,220.05 L 475.11,219.71 L 474.71,218.88 L 474.44,218.23 L 473.86,216.77 L 473.48,215.78 L 472.67,213.61 L 472.16,212.24 L 471.08,209.29 L 470.43,207.50 L 467.06,198.85 L 464.65,193.26 L 463.37,190.57 L 460.78,185.24 L 459.41,182.68 L 456.64,177.65 L 455.19,175.25 L 452.27,170.53 L 450.75,168.31 L 447.69,163.95 L 446.11,161.91 L 442.93,157.93 L 441.30,156.10 L 438.02,152.53 L 436.35,150.92 L 432.05,146.92 L 429.41,144.64 L 428.14,143.66 L 425.62,141.82 L 424.36,141.04 L 421.82,139.56 L 420.49,138.94 L 417.77,137.76 L 416.29,137.25 L 413.24,136.29 L 411.53,135.86 L 407.98,135.04 L 405.96,134.66 L 401.77,133.92 L 399.37,133.55 L 385.23,131.89 L 375.77,131.31 L 371.04,131.27 L 361.59,131.38 L 356.89,131.68 L 347.51,132.46 L 342.86,133.10 L 333.62,134.54 L 329.07,135.51 L 320.02,137.61 L 315.60,138.91 L 306.81,141.66 L 302.54,143.28 L 294.09,146.68 L 290.00,148.61 L 280.08,153.83 L 273.47,157.82 L 270.20,160.04 L 263.68,164.63 L 260.49,167.12 L 254.15,172.23 L 251.08,174.96 L 245.00,180.51 L 242.10,183.43 L 236.38,189.35 L 233.69,192.42 L 228.41,198.63 L 225.98,201.82 L 221.23,208.24 L 219.09,211.50 L 217.25,214.26 L 216.11,215.93 L 215.62,216.62 L 214.71,217.88 L 214.38,218.30 L 213.82,219.00 L 213.71,219.08 L 213.28,219.65 L 212.82,220.40 L 212.52,220.93 L 211.87,222.08 L 211.48,222.80 L 210.67,224.31 L 210.22,225.17 L 208.28,228.90 L 207.20,231.03 L 204.98,235.44 L 203.85,237.72 L 201.61,242.28 L 200.57,244.44 L 198.56,248.63 L 197.74,250.40 L 196.95,252.11 L 196.62,252.85 L 196.00,254.25 L 195.76,254.81 L 195.33,255.84 L 195.21,256.19 L 195.01,256.78 L 195.02,256.89 L 195.28,257.39 L 195.72,257.83 L 196.07,258.10 L 196.86,258.67 L 197.39,259.01 L 198.54,259.72 L 199.25,260.13 L 200.76,260.98 L 201.66,261.46 L 203.54,262.45 L 204.63,263.00 L 206.89,264.14 L 208.16,264.77 L 210.31,265.82 L 208.82,265.13 L 207.47,264.50 L 204.53,263.14 L 203.01,262.45 L 199.78,260.97 L 198.13,260.22 L 194.67,258.65 L 191.15,257.06 L 183.64,253.69 L 176.05,250.29 L 160.65,243.52 L 156.92,241.89 L 149.95,238.88 L 148.27,238.15 L 145.08,236.79 L 140.63,234.91 L 137.55,233.61 L 138.55,234.03 L 142.80,235.78 L 145.33,236.83 L 146.36,237.26 L 148.25,238.05 L 148.87,238.31 L 149.43,238.54 L 149.62,238.62 L 149.92,238.74 L 149.96,238.76 L 150.14,238.61 L 150.31,238.33 L 150.42,238.10 L 150.92,236.95 L 151.24,236.10 L 151.92,234.21 L 152.30,233.07 L 153.07,230.66 L 153.47,229.32 L 155.13,224.38 L 156.44,220.88 L 157.19,219.07 L 160.44,211.67 L 162.32,207.91 L 166.24,200.42 L 168.34,196.89 L 170.45,193.40 L 171.52,191.75 L 173.66,188.53 L 174.72,187.04 L 178.05,182.63 L 180.57,179.50 L 181.95,177.87 L 187.75,171.22 L 190.87,167.91 L 197.18,161.38 L 200.27,158.45 L 203.32,155.59 L 204.78,154.29 L 207.64,151.80 L 208.97,150.73 L 216.02,145.33 L 220.97,141.82 L 223.54,140.13 L 228.76,136.78 L 231.45,135.18 L 236.89,132.01 L 239.67,130.51 L 245.27,127.57 L 248.11,126.18 L 253.83,123.48 L 256.71,122.22 L 262.49,119.79 L 265.38,118.68 L 271.17,116.54 L 274.05,115.59 L 286.15,112.00 L 294.23,109.99 L 298.26,109.17 L 306.32,107.65 L 310.33,107.09 L 318.35,106.07 L 322.33,105.75 L 330.27,105.22 L 334.20,105.15 L 342.03,105.11 M 143.98,169.66 L 142.65,172.37 L 140.08,177.80 L 138.92,180.54 L 136.69,186.01 L 135.71,188.76 L 133.84,194.26 L 133.05,197.01 L 131.54,202.52 L 130.93,205.28 L 129.80,210.79 L 129.38,213.53 L 129.38,213.53 L 129.80,210.78 L 130.92,205.28 L 131.54,202.53 L 133.04,197.03 L 133.83,194.27 L 135.70,188.78 L 136.68,186.03 L 138.91,180.56 L 140.06,177.83 L 142.64,172.39 L 143.97,169.68 L 146.88,164.29 L 146.89,164.28 Z" fill="rgba(70,98,105,1)"/>
<path d="M 381.45,321.61 L 377.97,324.74 L 376.18,326.07 L 372.57,328.56 L 370.75,329.51 L 368.52,330.72 L 367.21,331.49 L 366.69,331.83 L 365.75,332.46 L 365.46,332.69 L 365.00,333.10 L 365.00,333.20 L 365.51,333.71 L 366.30,334.25 L 366.88,334.59 L 368.15,335.31 L 368.92,335.71 L 370.52,336.53 L 371.40,336.95 L 376.36,338.99 L 379.59,339.97 L 381.19,340.26 L 384.39,340.72 L 386.00,340.75 L 389.23,340.67 L 390.89,340.44 L 394.24,339.82 L 395.98,339.31 L 399.51,338.15 L 401.37,337.35 L 405.16,335.63 L 407.17,334.55 L 411.29,332.26 L 413.50,330.89 L 419.49,327.28 L 422.97,325.30 L 424.49,324.52 L 427.38,323.08 L 428.64,322.56 L 431.04,321.64 L 432.08,321.37 L 434.09,320.95 L 434.98,320.91 L 436.69,320.95 L 437.47,321.14 L 438.99,321.63 L 439.71,322.03 L 441.14,322.93 L 441.85,323.52 L 444.94,327.00 L 446.79,329.92 L 447.54,331.53 L 448.90,334.81 L 449.33,336.44 L 450.00,339.63 L 450.00,341.04 L 449.74,345.07 L 449.32,348.01 L 448.99,349.60 L 448.24,352.87 L 447.75,354.62 L 446.68,358.18 L 446.04,360.07 L 444.67,363.91 L 443.88,365.93 L 442.23,370.03 L 441.29,372.16 L 439.36,376.49 L 438.29,378.73 L 436.09,383.27 L 434.89,385.61 L 432.44,390.33 L 431.12,392.76 L 428.42,397.64 L 426.98,400.14 L 421.00,410.26 L 417.69,415.48 L 410.86,426.01 L 407.16,431.36 L 399.57,442.11 L 395.53,447.50 L 390.64,453.90 L 387.50,457.88 L 386.01,459.73 L 383.05,463.31 L 381.64,464.95 L 378.88,468.13 L 377.57,469.56 L 375.00,472.33 L 373.79,473.55 L 371.43,475.89 L 370.32,476.90 L 368.17,478.81 L 367.18,479.59 L 365.25,481.06 L 364.37,481.62 L 359.36,485.57 L 356.34,488.70 L 355.02,490.45 L 352.49,494.08 L 351.43,496.03 L 349.45,499.99 L 348.69,502.04 L 347.32,506.19 L 346.89,508.27 L 346.19,512.43 L 346.12,514.46 L 346.15,518.48 L 346.46,520.38 L 347.28,524.09 L 348.00,525.78 L 349.74,529.09 L 351.15,531.18 L 351.98,532.15 L 353.72,534.06 L 354.72,534.95 L 356.80,536.68 L 357.96,537.48 L 360.37,539.04 L 361.69,539.75 L 364.42,541.13 L 365.90,541.75 L 368.96,542.95 L 370.60,543.48 L 373.97,544.49 L 375.77,544.92 L 377.79,545.40 L 378.67,545.59 L 380.36,545.93 L 381.14,546.05 L 384.16,546.35 L 385.87,546.24 L 386.75,546.17 L 384.50,546.51 L 378.16,547.28 L 371.77,547.99 L 358.57,548.75 L 355.28,548.88 L 348.71,548.96 L 345.44,548.98 L 339.00,548.83 L 335.81,548.72 L 329.62,548.34 L 326.56,548.11 L 320.71,547.48 L 315.80,546.88 L 305.48,545.11 L 300.28,544.14 L 289.79,541.70 L 284.57,540.42 L 274.46,537.46 L 271.98,536.69 L 267.18,535.08 L 260.29,532.57 L 257.65,531.56 L 252.98,529.68 L 251.88,529.22 L 249.87,528.38 L 248.90,527.97 L 247.19,527.22 L 246.37,526.86 L 245.00,526.22 L 244.37,525.92 L 243.37,525.41 L 242.93,525.18 L 242.35,524.82 L 242.00,524.46 L 242.00,524.43 L 242.20,523.98 L 242.33,523.69 L 242.76,522.76 L 243.01,522.25 L 243.65,520.90 L 244.00,520.18 L 244.83,518.47 L 245.27,517.57 L 246.26,515.55 L 246.77,514.51 L 247.90,512.23 L 251.64,504.70 L 261.29,485.38 L 273.46,483.72 L 276.88,483.25 L 283.68,482.07 L 287.07,481.44 L 293.79,479.93 L 297.13,479.13 L 303.75,477.31 L 307.05,476.36 L 313.56,474.22 L 316.79,473.12 L 323.17,470.68 L 326.35,469.43 L 332.59,466.70 L 335.69,465.30 L 341.78,462.29 L 344.80,460.75 L 350.72,457.46 L 353.66,455.78 L 359.40,452.22 L 362.24,450.41 L 367.78,446.59 L 370.53,444.65 L 375.86,440.58 L 378.49,438.52 L 383.60,434.20 L 386.13,432.01 L 390.99,427.46 L 393.40,425.16 L 398.01,420.38 L 400.29,417.96 L 404.64,412.96 L 410.85,405.22 L 413.68,401.50 L 419.20,393.30 L 421.92,389.12 L 427.08,380.29 L 429.59,375.83 L 434.15,366.76 L 440.08,353.31 L 440.50,352.25 L 441.18,350.39 L 441.49,349.50 L 441.95,347.95 L 442.15,347.20 L 442.39,345.88 L 442.48,345.25 L 442.49,344.12 L 442.45,343.03 L 441.69,341.17 L 439.50,338.41 L 438.80,337.71 L 437.34,336.74 L 436.60,336.33 L 435.09,335.95 L 434.34,335.83 L 432.82,336.00 L 432.07,336.16 L 430.57,336.89 L 429.82,337.32 L 428.36,338.57 L 427.64,339.26 L 426.26,341.03 L 425.58,341.98 L 424.30,344.25 L 422.53,348.18 L 421.42,351.06 L 418.88,356.85 L 417.56,359.75 L 414.61,365.61 L 413.08,368.54 L 409.70,374.48 L 404.14,383.50 L 403.60,384.34 L 402.27,386.27 L 401.58,387.27 L 400.05,389.39 L 398.48,391.54 L 395.22,395.78 L 394.43,396.79 L 392.97,398.61 L 392.26,399.47 L 391.04,400.90 L 390.48,401.55 L 389.63,402.44 L 388.89,403.00 L 388.77,403.00 L 388.72,402.56 L 388.72,402.27 L 388.90,401.35 L 389.01,400.84 L 389.38,399.56 L 390.13,397.38 L 390.73,395.79 L 391.42,392.71 L 391.69,391.20 L 391.73,388.42 L 391.66,387.08 L 391.05,384.74 L 389.41,381.90 L 389.28,381.76 L 388.71,381.31 L 388.37,381.05 L 387.40,380.37 L 386.87,380.01 L 385.55,379.14 L 384.85,378.69 L 383.23,377.66 L 381.55,376.60 L 377.52,374.15 L 370.87,370.22 L 354.09,360.50 L 353.05,355.72 L 352.72,354.23 L 351.92,351.75 L 351.48,350.57 L 350.33,348.56 L 349.71,347.59 L 348.07,345.81 L 344.90,343.16 L 341.03,340.31 L 349.27,338.12 L 350.40,337.82 L 353.20,336.91 L 354.66,336.42 L 357.82,335.24 L 359.42,334.63 L 362.56,333.33 L 366.83,331.40 L 368.78,330.46 L 372.51,328.27 L 374.34,327.13 L 377.81,324.60 L 379.51,323.29 L 382.67,320.44 M 410.75,541.21 L 407.39,541.98 L 412.97,540.60 M 420.10,538.64 L 419.70,538.75 L 420.38,538.55 M 472.72,516.05 L 472.02,516.43 L 473.09,515.83 M 140.42,432.34 L 140.94,432.55 L 142.29,433.29 L 143.01,433.70 L 144.72,434.78 L 145.62,435.36 L 147.62,436.73 L 148.64,437.45 L 150.85,439.07 L 151.98,439.90 L 154.32,441.71 L 161.50,447.58 L 163.97,449.70 L 169.33,454.14 L 170.59,455.19 L 172.85,457.01 L 175.50,459.08 L 175.97,459.44 L 177.20,460.25 L 177.86,460.68 L 179.44,461.62 L 180.27,462.10 L 182.16,463.14 L 183.13,463.68 L 185.29,464.81 L 187.50,465.95 L 192.56,468.43 L 195.16,469.68 L 200.74,472.25 L 203.56,473.54 L 209.34,476.06 L 212.22,477.29 L 217.86,479.61 L 220.63,480.73 L 225.80,482.69 L 227.05,483.15 L 229.40,483.98 L 232.66,485.07 L 239.82,487.34 L 232.68,501.67 L 231.70,503.64 L 229.86,507.23 L 228.98,508.95 L 227.48,511.79 L 227.13,512.44 L 226.53,513.54 L 226.24,514.06 L 225.78,514.87 L 225.57,515.23 L 225.27,515.70 L 225.02,515.99 L 224.98,515.99 L 224.70,515.85 L 224.52,515.76 L 223.99,515.45 L 223.39,515.11 L 221.57,513.98 L 220.57,513.36 L 218.12,511.81 L 216.84,510.99 L 214.00,509.16 L 210.94,507.16 L 204.90,502.95 L 201.91,500.81 L 196.03,496.32 L 193.12,494.04 L 187.44,489.32 L 184.62,486.92 L 179.16,481.98 L 176.46,479.49 L 171.26,474.36 L 168.69,471.78 L 163.78,466.51 L 161.36,463.85 L 156.76,458.45 L 150.27,450.26 L 148.98,448.54 L 146.76,445.54 L 145.70,444.10 L 143.91,441.63 L 143.08,440.45 L 141.72,438.46 L 141.09,437.52 L 140.13,435.99 L 139.70,435.28 L 139.12,434.17 L 138.87,433.66 L 138.65,432.93 L 138.59,432.61 L 138.70,432.22 L 139.23,432.00 L 139.50,432.00 M 484.85,508.64 L 482.86,509.87 L 485.77,508.02 M 496.52,500.57 L 493.13,502.94 L 497.85,499.55 M 507.71,491.85 L 502.95,495.60 L 509.26,490.52 M 565.55,422.89 L 563.16,427.09 L 558.04,435.24 L 555.43,439.27 L 549.89,447.07 L 547.07,450.92 L 541.11,458.35 L 538.08,462.02 L 531.74,469.08 L 528.51,472.56 L 521.79,479.22 L 518.38,482.51 L 511.29,488.77 L 509.98,489.90 L 512.91,487.33 L 519.80,481.13 L 523.11,477.89 L 529.65,471.31 L 532.79,467.88 L 538.97,460.93 L 541.91,457.32 L 547.71,450.02 L 550.46,446.24 L 555.86,438.59 L 558.41,434.65 L 563.39,426.68 L 565.70,422.62 M 570.22,414.41 L 566.15,421.80 L 570.27,414.30 M 264.81,249.54 L 269.58,252.65 L 274.38,255.81 L 276.90,257.50 L 282.03,260.97 L 284.81,262.87 L 290.21,266.54 L 293.45,268.72 L 294.78,269.61 L 296.06,270.46 L 296.61,270.82 L 297.65,271.49 L 298.05,271.75 L 298.80,272.22 L 299.05,272.38 L 299.47,272.62 L 299.54,272.65 L 300.03,272.37 L 300.41,271.79 L 300.61,271.33 L 301.01,270.31 L 301.06,270.13 L 301.00,270.40 L 300.41,274.79 L 300.17,277.00 L 300.07,281.36 L 300.07,283.49 L 300.45,287.29 L 300.57,288.18 L 300.91,289.77 L 301.55,291.78 L 302.02,292.89 L 303.06,294.87 L 303.59,295.81 L 304.80,297.46 L 305.42,298.25 L 306.81,299.58 L 307.53,300.21 L 309.13,301.25 L 309.95,301.73 L 311.78,302.48 L 312.72,302.82 L 314.80,303.30 L 315.87,303.51 L 318.22,303.72 L 322.08,303.76 L 323.73,303.70 L 326.34,303.48 L 327.59,303.34 L 329.84,302.81 L 330.98,302.49 L 333.52,301.47 L 334.20,301.18 L 335.72,300.47 L 336.51,300.09 L 338.32,299.20 L 339.87,298.43 L 342.38,297.07 L 343.54,296.42 L 344.76,295.61 L 344.42,295.85 L 342.60,297.05 L 341.55,297.60 L 339.40,298.77 L 338.14,299.49 L 337.63,299.81 L 336.72,300.39 L 336.44,300.60 L 336.00,300.96 L 336.00,301.04 L 336.19,301.43 L 336.50,301.83 L 336.73,302.09 L 337.87,303.29 L 338.68,304.07 L 340.43,305.72 L 341.46,306.65 L 343.58,308.54 L 344.68,309.49 L 346.91,311.40 L 347.98,312.28 L 350.07,313.99 L 350.97,314.68 L 352.65,315.96 L 353.26,316.37 L 353.82,316.73 L 354.03,316.83 L 354.38,317.00 L 354.48,317.00 L 355.93,316.73 L 353.56,317.80 L 350.79,318.93 L 344.81,320.69 L 341.76,321.49 L 335.24,322.54 L 324.95,323.28 L 316.40,323.40 L 297.95,312.35 L 296.68,311.59 L 293.94,309.96 L 292.54,309.14 L 289.59,307.41 L 286.62,305.68 L 280.48,302.14 L 277.44,300.40 L 271.71,297.17 L 270.34,296.40 L 267.80,294.99 L 264.39,293.12 L 249.28,284.94 L 253.13,280.74 L 254.23,279.53 L 256.41,276.57 L 257.49,275.01 L 259.53,271.53 L 260.51,269.74 L 262.28,265.96 L 264.48,260.20 L 264.83,259.09 L 265.30,257.38 L 265.49,256.59 L 265.64,255.33 L 265.68,254.72 L 265.52,253.63 L 264.96,251.91 L 264.48,250.75 L 263.21,248.97 L 262.53,248.16 L 261.99,247.79 M 366.06,310.87 L 365.86,311.00 L 366.56,310.45 M 372.08,305.49 L 371.81,305.74 L 372.16,305.39 M 399.31,292.58 L 398.24,296.45 L 397.44,298.46 L 396.97,299.51 L 398.61,294.63 L 398.86,293.70 L 399.25,292.09 L 399.42,291.31 L 399.57,290.48 M 376.88,299.30 L 376.87,299.31 L 376.89,299.29 M 380.35,292.35 L 379.61,293.91 L 380.02,292.89 L 380.83,290.79 M 349.70,284.74 L 349.86,285.44 L 350.08,286.85 L 350.02,287.57 L 349.80,289.01 L 349.54,289.73 L 349.15,290.60 L 349.66,288.98 L 349.89,288.01 L 349.89,286.21 L 349.81,285.32 L 349.18,283.69 L 347.55,281.45 L 349.05,283.38 M 398.59,283.56 L 399.13,284.48 L 399.62,285.41 L 399.76,285.86 L 399.99,286.75 L 399.99,287.17 L 399.86,288.23 L 399.81,286.72 L 399.70,285.80 L 398.97,284.24 L 397.26,282.15 M 216.04,216.18 L 213.89,219.85 L 218.20,222.25 L 224.02,225.51 L 227.68,227.57 L 229.42,228.55 L 236.09,232.34 L 239.10,234.07 L 244.93,237.44 L 247.61,239.02 L 252.83,242.12 L 255.29,243.63 L 260.05,246.58 L 258.38,246.17 L 257.48,246.04 L 255.66,246.25 L 254.75,246.43 L 252.98,247.25 L 252.11,247.74 L 250.52,249.15 L 249.76,249.93 L 248.47,251.91 L 247.00,255.49 L 246.83,256.11 L 246.29,257.60 L 245.99,258.37 L 245.28,260.00 L 244.91,260.82 L 244.11,262.39 L 242.91,264.48 L 242.24,265.54 L 240.18,267.91 L 239.08,269.10 L 236.61,271.33 L 235.38,272.38 L 233.12,273.95 L 232.59,274.28 L 231.68,274.73 L 230.60,275.02 L 230.52,275.02 L 230.03,274.85 L 229.73,274.74 L 228.81,274.37 L 228.31,274.16 L 227.03,273.61 L 226.35,273.31 L 224.76,272.60 L 223.93,272.22 L 222.07,271.38 L 221.12,270.94 L 219.04,269.97 L 212.27,266.77 L 210.80,266.06 L 208.16,264.77 L 206.89,264.14 L 204.63,263.00 L 203.54,262.45 L 201.66,261.46 L 200.76,260.98 L 199.25,260.13 L 198.54,259.72 L 197.39,259.01 L 196.86,258.67 L 196.07,258.10 L 195.72,257.83 L 195.28,257.39 L 195.02,256.89 L 195.01,256.78 L 195.21,256.19 L 195.33,255.84 L 195.76,254.81 L 196.00,254.25 L 196.62,252.85 L 196.95,252.11 L 197.74,250.40 L 198.56,248.63 L 200.57,244.44 L 201.61,242.28 L 203.85,237.72 L 204.98,235.44 L 207.20,231.03 L 208.28,228.90 L 210.22,225.17 L 210.67,224.31 L 211.48,222.80 L 211.87,222.08 L 212.52,220.93 L 212.82,220.40 L 213.28,219.65 L 213.71,219.08 L 213.82,219.00 L 214.38,218.30 L 214.71,217.88 L 215.62,216.62 L 216.11,215.93 L 216.67,215.10 M 302.92,262.25 L 302.23,265.18 L 302.87,262.14 M 287.17,224.50 L 287.18,225.22 L 287.47,226.94 L 287.66,227.86 L 288.36,230.06 L 288.76,231.24 L 289.88,234.06 L 290.50,235.55 L 292.07,239.10 L 294.97,245.37 L 294.95,245.32 L 292.06,239.06 L 290.49,235.53 L 289.87,234.03 L 288.75,231.22 L 288.35,230.05 L 287.66,227.85 L 287.47,226.93 L 287.18,225.21 L 287.17,224.49 L 287.22,223.67 M 139.28,191.00 L 140.36,191.28 L 141.28,191.53 L 141.82,191.68 L 144.21,192.35 L 145.64,192.76 L 148.61,193.61 L 150.20,194.07 L 153.42,195.01 L 155.00,195.48 L 158.22,196.42 L 160.05,196.94 L 160.83,197.14 L 162.29,197.52 L 162.90,197.66 L 164.03,197.91 L 164.49,197.98 L 165.34,198.10 L 165.68,198.12 L 166.30,198.12 L 166.53,198.08 L 167.29,197.82 L 167.50,197.54 L 167.83,197.07 L 168.18,196.59 L 168.40,196.28 L 169.44,194.81 L 170.12,193.84 L 170.72,192.99 L 170.45,193.40 L 168.34,196.89 L 166.24,200.42 L 162.32,207.91 L 160.44,211.67 L 157.19,219.07 L 156.44,220.88 L 155.13,224.38 L 153.47,229.32 L 153.07,230.66 L 152.30,233.07 L 151.92,234.21 L 151.24,236.10 L 150.92,236.95 L 150.42,238.10 L 150.31,238.33 L 150.14,238.61 L 149.96,238.76 L 149.92,238.74 L 149.62,238.62 L 149.43,238.54 L 148.87,238.31 L 148.25,238.05 L 146.36,237.26 L 145.33,236.83 L 142.80,235.78 L 138.55,234.03 L 127.75,229.55 L 128.40,221.77 L 128.63,219.03 L 129.38,213.54 L 129.80,210.79 L 130.93,205.28 L 131.54,202.52 L 133.05,197.01 L 133.84,194.26 L 135.29,190.00 M 287.26,223.14 L 287.26,223.14 L 287.34,222.85 M 287.43,222.56 L 287.43,222.56 L 287.44,222.53 M 253.79,172.68 L 251.22,175.02 L 246.09,179.83 L 243.50,182.43 L 234.70,191.65 L 229.52,197.49 L 227.25,200.28 L 225.11,202.99 L 225.98,201.82 L 228.41,198.63 L 233.69,192.42 L 236.38,189.35 L 242.10,183.43 L 245.00,180.51 L 251.08,174.96 L 254.15,172.23 L 258.20,168.96 M 187.34,171.69 L 187.65,171.33 L 187.68,171.29 M 204.78,154.29 L 203.32,155.59 L 200.27,158.45 L 197.18,161.38 L 190.87,167.91 L 189.13,169.75 L 190.75,168.03 L 197.05,161.50 L 200.15,158.55 L 203.23,155.66 L 204.71,154.35 L 207.61,151.82 L 208.97,150.73 L 207.64,151.80 M 148.68,161.13 L 146.59,164.84 L 146.89,164.27 L 148.39,161.59 L 148.81,160.91 M 152.13,155.48 L 153.30,153.62 L 155.88,149.83 M 156.29,149.23 L 156.86,148.38 L 157.34,147.70 M 293.09,147.15 L 294.09,146.68 L 294.27,146.60 M 164.28,138.47 L 159.36,144.89 L 162.57,140.63 L 164.54,138.07 L 165.86,136.49 M 301.78,143.59 L 302.54,143.28 L 306.81,141.66 L 308.91,141.01 M 319.15,137.87 L 320.02,137.61 L 320.27,137.56 M 332.89,134.70 L 333.62,134.54 L 333.89,134.50 M 173.47,127.67 L 168.29,133.56 L 168.73,133.03 L 170.86,130.53 L 175.34,125.61 L 175.37,125.58 M 346.36,132.61 L 347.51,132.46 L 352.31,132.06 M 385.23,131.89 L 386.11,132.00 L 383.27,131.77 M 365.22,131.34 L 358.07,131.60 L 361.59,131.38 L 365.90,131.33 M 375.77,131.31 L 378.71,131.49 L 376.68,131.42 L 370.16,131.28 L 371.04,131.27 M 183.52,117.30 L 177.19,123.63 L 177.62,123.17 L 182.38,118.38 L 184.80,116.01 L 185.61,115.27 M 188.94,112.21 L 189.85,111.38 L 192.41,109.08 L 194.26,107.52 M 197.73,104.60 L 206.00,98.09 L 194.50,107.32 M 382.66,285.62 L 383.00,284.93 L 384.42,282.44 L 385.24,281.56 L 386.95,280.04 L 387.28,279.90 L 385.99,280.96 L 385.34,281.57 L 384.13,283.18 L 383.55,284.04 L 382.49,286.15 L 381.12,289.85 L 382.02,287.19 Z" fill="rgba(85,146,160,1)"/>
<path d="M 355.52,48.35 L 362.60,48.64 L 366.15,48.82 L 373.26,49.44 L 376.83,49.79 L 383.98,50.73 L 387.57,51.24 L 394.76,52.50 L 398.37,53.18 L 405.60,54.77 L 416.50,57.52 L 420.72,58.67 L 429.03,61.32 L 433.16,62.71 L 441.29,65.80 L 445.34,67.40 L 453.28,70.92 L 457.22,72.73 L 464.95,76.67 L 468.79,78.69 L 476.30,83.03 L 480.03,85.25 L 487.29,89.98 L 490.90,92.39 L 497.91,97.50 L 501.38,100.09 L 508.12,105.56 L 511.46,108.34 L 517.91,114.16 L 521.10,117.11 L 527.25,123.26 L 530.29,126.38 L 536.12,132.86 L 538.99,136.14 L 544.49,142.93 L 547.19,146.36 L 552.34,153.44 L 554.87,157.02 L 559.65,164.39 L 561.99,168.11 L 566.39,175.75 L 572.54,187.50 L 573.64,189.74 L 575.65,193.99 L 576.63,196.08 L 578.42,200.10 L 580.17,204.07 L 583.15,211.66 L 584.58,215.44 L 587.10,223.14 L 590.61,235.50 L 591.56,239.15 L 593.21,246.48 L 593.99,250.15 L 595.30,257.52 L 595.91,261.21 L 596.89,268.61 L 597.33,272.31 L 597.97,279.73 L 598.25,283.44 L 598.55,290.87 L 598.67,294.58 L 598.64,302.01 L 598.58,305.72 L 598.23,313.13 L 598.01,316.83 L 597.32,324.22 L 596.93,327.92 L 595.91,335.27 L 595.36,338.95 L 594.02,346.26 L 593.30,349.91 L 591.63,357.17 L 590.75,360.79 L 588.75,367.99 L 587.71,371.58 L 585.39,378.70 L 584.18,382.26 L 581.54,389.29 L 580.17,392.80 L 577.20,399.75 L 572.38,410.05 L 570.27,414.30 L 565.72,422.58 L 563.39,426.68 L 558.41,434.65 L 555.86,438.59 L 550.46,446.24 L 547.71,450.02 L 541.91,457.32 L 538.97,460.93 L 532.79,467.88 L 529.65,471.31 L 523.11,477.89 L 519.80,481.13 L 512.91,487.33 L 509.43,490.38 L 502.22,496.19 L 498.57,499.04 L 491.05,504.43 L 487.25,507.08 L 479.44,512.05 L 475.50,514.48 L 467.42,519.01 L 463.34,521.22 L 455.00,525.30 L 450.80,527.28 L 442.23,530.90 L 437.91,532.65 L 429.12,535.78 L 424.69,537.29 L 415.70,539.93 L 402.00,543.32 L 399.93,543.77 L 396.47,544.50 L 394.83,544.84 L 392.11,545.37 L 390.83,545.61 L 388.67,545.95 L 387.65,546.09 L 385.87,546.24 L 384.16,546.35 L 381.14,546.05 L 380.36,545.93 L 378.67,545.59 L 377.79,545.40 L 375.77,544.92 L 373.97,544.49 L 370.60,543.48 L 368.96,542.95 L 365.90,541.75 L 364.42,541.13 L 361.69,539.75 L 360.37,539.04 L 357.96,537.48 L 356.80,536.68 L 354.72,534.95 L 353.72,534.06 L 351.98,532.15 L 351.15,531.18 L 349.74,529.09 L 348.00,525.78 L 347.28,524.09 L 346.46,520.38 L 346.15,518.48 L 346.12,514.46 L 346.19,512.43 L 346.89,508.27 L 347.32,506.19 L 348.69,502.04 L 349.45,499.99 L 351.43,496.03 L 352.49,494.08 L 355.02,490.45 L 356.34,488.70 L 359.36,485.57 L 364.37,481.62 L 365.25,481.06 L 367.18,479.59 L 368.17,478.81 L 370.32,476.90 L 371.43,475.89 L 373.79,473.55 L 375.00,472.33 L 377.57,469.56 L 378.88,468.13 L 381.64,464.95 L 383.05,463.31 L 386.01,459.73 L 387.50,457.88 L 390.64,453.90 L 395.53,447.50 L 399.57,442.11 L 407.16,431.36 L 410.86,426.01 L 417.69,415.48 L 421.00,410.26 L 426.98,400.14 L 428.42,397.64 L 431.12,392.76 L 432.44,390.33 L 434.89,385.61 L 436.09,383.27 L 438.29,378.73 L 439.36,376.49 L 441.29,372.16 L 442.23,370.03 L 443.88,365.93 L 444.67,363.91 L 446.04,360.07 L 446.68,358.18 L 447.75,354.62 L 448.24,352.87 L 448.99,349.60 L 449.32,348.01 L 449.74,345.07 L 450.00,341.04 L 450.00,339.63 L 449.33,336.44 L 448.90,334.81 L 447.54,331.53 L 446.79,329.92 L 444.94,327.00 L 441.85,323.52 L 441.14,322.93 L 439.71,322.03 L 438.99,321.63 L 437.47,321.14 L 436.69,320.95 L 434.98,320.91 L 434.09,320.95 L 432.08,321.37 L 431.04,321.64 L 428.64,322.56 L 427.38,323.08 L 424.49,324.52 L 423.06,325.26 L 424.26,324.58 L 425.27,324.05 L 426.24,323.54 L 426.64,323.33 L 427.40,322.96 L 427.69,322.83 L 430.02,321.45 L 431.75,320.11 L 432.72,319.21 L 434.74,317.24 L 435.88,316.00 L 438.27,313.34 L 439.62,311.73 L 447.31,301.92 L 452.01,295.25 L 454.13,291.87 L 458.23,285.07 L 460.06,281.63 L 463.55,274.74 L 465.06,271.27 L 467.93,264.32 L 469.12,260.84 L 471.34,253.87 L 472.21,250.39 L 473.77,243.44 L 474.30,239.98 L 475.19,233.08 L 475.38,229.67 L 475.49,225.30 L 475.35,222.87 L 475.12,221.65 L 474.55,219.12 L 474.04,217.54 L 473.50,215.90 L 473.23,215.11 L 473.48,215.78 L 473.86,216.77 L 474.44,218.23 L 474.71,218.88 L 475.11,219.71 L 475.29,220.05 L 475.53,220.31 L 475.64,220.38 L 475.77,220.15 L 475.83,219.99 L 475.88,219.35 L 475.93,218.00 L 475.94,217.23 L 475.83,215.25 L 475.76,214.21 L 475.50,211.79 L 475.36,210.54 L 474.97,207.82 L 474.76,206.43 L 474.27,203.55 L 473.75,200.65 L 472.52,194.97 L 472.20,193.60 L 471.54,191.07 L 470.55,187.73 L 469.22,183.67 L 465.94,175.98 L 464.18,172.20 L 460.02,165.01 L 457.82,161.47 L 452.73,154.70 L 444.01,144.95 L 441.58,142.51 L 436.41,137.95 L 433.77,135.73 L 428.20,131.61 L 425.37,129.60 L 419.42,125.93 L 416.41,124.14 L 410.13,120.91 L 406.95,119.35 L 400.36,116.57 L 397.03,115.24 L 390.16,112.92 L 386.69,111.81 L 379.56,109.95 L 375.97,109.08 L 368.63,107.68 L 364.93,107.04 L 357.39,106.12 L 353.60,105.72 L 345.90,105.27 L 342.03,105.11 L 334.20,105.15 L 330.27,105.22 L 322.33,105.75 L 318.35,106.07 L 310.33,107.09 L 306.32,107.65 L 298.26,109.17 L 294.23,109.99 L 286.15,112.00 L 274.05,115.59 L 271.17,116.54 L 265.38,118.68 L 262.49,119.79 L 256.71,122.22 L 253.83,123.48 L 248.11,126.18 L 245.27,127.57 L 239.67,130.51 L 236.89,132.01 L 231.45,135.18 L 228.76,136.78 L 223.54,140.13 L 220.97,141.82 L 216.02,145.33 L 208.97,150.73 L 207.61,151.82 L 204.71,154.35 L 203.23,155.66 L 200.15,158.55 L 197.05,161.50 L 190.75,168.03 L 187.65,171.33 L 181.96,177.90 L 180.62,179.50 L 178.18,182.58 L 175.00,186.87 L 174.11,188.15 L 172.40,190.59 L 171.57,191.77 L 170.12,193.84 L 169.44,194.81 L 168.40,196.28 L 168.18,196.59 L 167.83,197.07 L 167.50,197.54 L 167.29,197.82 L 166.53,198.08 L 166.30,198.12 L 165.68,198.12 L 165.34,198.10 L 164.49,197.98 L 164.03,197.91 L 162.90,197.66 L 162.29,197.52 L 160.83,197.14 L 160.05,196.94 L 158.22,196.42 L 155.00,195.48 L 153.42,195.01 L 150.20,194.07 L 148.61,193.61 L 145.64,192.76 L 144.21,192.35 L 141.82,191.68 L 141.28,191.53 L 140.36,191.28 L 139.28,191.00 L 135.05,189.94 L 137.08,184.80 L 138.66,180.79 L 142.35,172.87 L 144.29,168.92 L 148.68,161.13 L 150.95,157.25 L 156.00,149.64 L 158.61,145.86 L 164.28,138.47 L 167.20,134.80 L 173.47,127.67 L 176.68,124.13 L 183.52,117.30 L 187.01,113.92 L 194.38,107.42 L 206.00,98.09 L 207.82,96.72 L 211.30,94.18 L 213.02,92.94 L 216.37,90.61 L 219.71,88.32 L 226.34,84.18 L 229.72,82.15 L 236.95,78.19 L 238.83,77.20 L 242.82,75.17 L 249.24,72.01 L 252.57,70.41 L 259.25,67.45 L 262.60,66.01 L 269.32,63.37 L 272.69,62.10 L 279.45,59.78 L 282.83,58.67 L 289.64,56.68 L 293.04,55.73 L 299.88,54.07 L 303.31,53.28 L 310.19,51.95 L 313.63,51.32 L 320.55,50.31 L 324.02,49.84 L 330.98,49.16 L 334.46,48.86 L 341.46,48.50 L 344.96,48.36 L 352.00,48.32 M 395.98,339.31 L 394.24,339.82 L 394.05,339.86 L 394.75,339.67 L 396.07,339.28 M 401.37,337.35 L 399.51,338.15 L 398.64,338.43 L 399.00,338.30 L 401.47,337.31 M 371.59,337.03 L 371.40,336.95 L 370.80,336.67 M 405.16,335.63 L 403.61,336.34 L 406.50,334.91 M 407.17,334.55 L 407.05,334.62 L 407.52,334.36 M 413.50,330.89 L 411.29,332.26 L 408.76,333.67 L 411.71,331.99 L 413.50,330.88 L 414.43,330.34 M 365.15,333.35 L 365.00,333.20 L 365.00,333.18 M 421.53,326.12 L 421.79,325.97 L 422.55,325.55 M 470.43,207.50 L 471.08,209.29 L 471.11,209.38 L 468.36,202.20 M 463.37,190.57 L 464.65,193.26 L 467.06,198.85 L 468.02,201.32 L 465.45,195.12 L 464.10,192.15 L 463.07,189.95 M 428.14,143.66 L 429.41,144.64 L 432.05,146.92 L 436.35,150.92 L 438.02,152.53 L 438.84,153.42 L 438.13,152.66 L 436.28,150.87 L 432.01,146.89 L 429.38,144.62 L 428.13,143.66 M 401.77,133.92 L 405.96,134.66 L 407.98,135.04 L 411.53,135.86 L 413.24,136.29 L 416.29,137.25 L 417.77,137.76 L 418.73,138.17 L 417.77,137.76 L 416.29,137.25 L 413.23,136.29 L 411.53,135.86 L 407.98,135.04 L 405.96,134.66 L 401.76,133.92 Z" fill="rgba(103,190,210,1)"/>
<path d="M 376.68,131.42 L 380.50,131.55 L 388.09,132.15 L 399.37,133.55 L 401.76,133.92 L 405.96,134.66 L 407.98,135.04 L 411.53,135.86 L 413.23,136.29 L 416.29,137.25 L 417.77,137.76 L 420.49,138.94 L 421.82,139.56 L 424.35,141.03 L 425.61,141.81 L 428.12,143.65 L 429.38,144.62 L 432.01,146.89 L 436.28,150.87 L 438.13,152.66 L 441.63,156.42 L 443.35,158.33 L 446.63,162.39 L 448.24,164.46 L 451.32,168.86 L 452.84,171.11 L 455.77,175.92 L 457.21,178.38 L 460.01,183.65 L 461.40,186.36 L 464.10,192.15 L 465.45,195.12 L 468.09,201.51 L 472.04,211.79 L 472.46,212.95 L 473.17,214.95 L 473.50,215.90 L 474.04,217.54 L 474.55,219.12 L 475.12,221.65 L 475.35,222.87 L 475.49,225.30 L 475.38,229.67 L 475.19,233.08 L 474.30,239.98 L 473.77,243.44 L 472.21,250.39 L 471.34,253.87 L 469.12,260.84 L 467.93,264.32 L 465.06,271.27 L 463.55,274.74 L 460.06,281.63 L 458.23,285.07 L 454.13,291.87 L 452.01,295.25 L 447.31,301.92 L 439.62,311.73 L 438.27,313.34 L 435.88,316.00 L 434.74,317.24 L 432.72,319.21 L 431.75,320.11 L 430.02,321.45 L 427.69,322.83 L 427.40,322.96 L 426.64,323.33 L 426.24,323.54 L 425.27,324.05 L 424.26,324.58 L 421.79,325.97 L 413.50,330.88 L 411.71,331.99 L 408.32,333.92 L 406.66,334.83 L 403.51,336.38 L 401.96,337.11 L 399.00,338.30 L 397.55,338.84 L 394.75,339.67 L 393.37,340.04 L 390.71,340.51 L 389.39,340.71 L 386.82,340.85 L 385.54,340.87 L 383.02,340.68 L 381.77,340.54 L 379.28,340.03 L 378.79,339.91 L 377.55,339.51 L 376.89,339.28 L 375.40,338.70 L 373.88,338.09 L 370.68,336.61 L 369.91,336.24 L 368.49,335.52 L 367.81,335.16 L 366.68,334.52 L 366.17,334.21 L 365.46,333.70 L 365.00,333.18 L 365.00,333.08 L 365.46,332.68 L 365.75,332.44 L 366.69,331.82 L 367.21,331.49 L 368.52,330.72 L 370.75,329.51 L 372.57,328.56 L 376.18,326.07 L 377.97,324.74 L 381.45,321.61 L 383.16,319.98 L 386.38,316.37 L 387.95,314.52 L 390.80,310.60 L 392.17,308.61 L 394.54,304.54 L 395.66,302.51 L 397.44,298.46 L 398.24,296.45 L 399.31,292.58 L 399.99,287.17 L 399.99,286.75 L 399.76,285.86 L 399.62,285.41 L 399.13,284.48 L 398.59,283.56 L 396.96,281.83 L 396.09,281.02 L 394.11,279.81 L 393.61,279.55 L 392.63,279.21 L 391.21,279.00 L 390.02,279.00 L 387.94,279.62 L 386.95,280.04 L 385.24,281.56 L 384.42,282.44 L 383.00,284.93 L 382.66,285.62 L 382.02,287.19 L 381.12,289.85 L 380.83,290.79 L 380.02,292.89 L 379.59,293.96 L 378.57,296.13 L 378.06,297.19 L 376.97,299.16 L 375.39,301.60 L 374.72,302.50 L 373.14,304.33 L 372.31,305.25 L 370.49,307.05 L 368.62,308.83 L 364.59,312.00 L 363.59,312.74 L 361.63,314.03 L 360.67,314.63 L 358.86,315.61 L 357.99,316.05 L 356.43,316.63 L 354.48,317.00 L 354.38,317.00 L 354.03,316.83 L 353.82,316.73 L 353.26,316.37 L 352.65,315.96 L 350.97,314.68 L 350.07,313.99 L 347.98,312.28 L 346.91,311.40 L 344.68,309.49 L 343.58,308.54 L 341.46,306.65 L 340.43,305.72 L 338.68,304.07 L 337.87,303.29 L 336.73,302.09 L 336.50,301.83 L 336.19,301.43 L 336.00,301.04 L 336.00,300.96 L 336.44,300.60 L 336.72,300.39 L 337.63,299.81 L 338.14,299.49 L 339.40,298.77 L 341.55,297.60 L 342.60,297.05 L 344.42,295.85 L 345.28,295.24 L 346.72,293.92 L 347.39,293.26 L 348.43,291.87 L 348.90,291.17 L 349.54,289.73 L 349.80,289.01 L 350.02,287.57 L 350.08,286.85 L 349.86,285.44 L 349.70,284.74 L 349.05,283.38 L 347.55,281.45 L 346.68,280.59 L 344.73,279.56 L 344.21,279.37 L 343.10,279.15 L 342.53,279.07 L 341.29,279.10 L 340.66,279.14 L 339.27,279.40 L 338.55,279.56 L 336.99,280.07 L 336.19,280.35 L 334.44,281.10 L 331.57,282.50 L 329.64,283.51 L 325.79,285.00 L 324.89,285.32 L 323.30,285.74 L 321.43,286.00 L 320.58,286.00 L 319.47,285.92 L 318.99,285.85 L 318.45,285.44 L 318.24,285.17 L 318.08,284.18 L 318.04,281.75 L 318.05,280.64 L 318.23,278.31 L 318.35,277.12 L 318.76,274.52 L 319.00,273.18 L 319.67,270.16 L 320.99,265.00 L 322.22,260.50 L 313.04,241.00 L 311.78,238.32 L 309.31,233.25 L 308.71,232.03 L 307.56,229.73 L 306.99,228.61 L 305.94,226.57 L 305.43,225.58 L 304.50,223.85 L 304.06,223.03 L 303.30,221.66 L 302.94,221.03 L 302.37,220.10 L 301.76,219.25 L 301.01,218.45 L 299.04,217.48 L 298.00,217.09 L 295.72,216.92 L 294.58,216.94 L 292.35,217.59 L 289.45,219.45 L 288.96,219.95 L 288.20,220.94 L 287.87,221.44 L 287.43,222.56 L 287.26,223.14 L 287.17,224.49 L 287.18,225.21 L 287.47,226.93 L 287.66,227.85 L 288.35,230.05 L 288.75,231.22 L 289.87,234.03 L 290.49,235.53 L 292.06,239.06 L 294.95,245.32 L 302.87,262.14 L 301.72,267.59 L 301.56,268.35 L 301.19,269.68 L 301.01,270.31 L 300.61,271.33 L 300.41,271.79 L 300.03,272.37 L 299.54,272.65 L 299.47,272.62 L 299.05,272.38 L 298.80,272.22 L 298.05,271.75 L 297.65,271.49 L 296.61,270.82 L 296.06,270.46 L 294.78,269.61 L 293.45,268.72 L 290.21,266.54 L 284.81,262.87 L 282.03,260.97 L 276.90,257.50 L 274.38,255.81 L 269.58,252.65 L 264.81,249.54 L 255.29,243.63 L 252.83,242.12 L 247.61,239.02 L 244.93,237.44 L 239.10,234.07 L 236.09,232.34 L 229.42,228.55 L 227.68,227.57 L 224.02,225.51 L 218.20,222.25 L 213.89,219.85 L 216.04,216.18 L 217.53,213.64 L 221.06,208.42 L 222.92,205.77 L 227.25,200.28 L 229.52,197.49 L 234.70,191.65 L 243.50,182.43 L 246.09,179.83 L 251.22,175.02 L 253.79,172.68 L 258.92,168.36 L 261.50,166.25 L 266.70,162.37 L 269.31,160.48 L 274.64,157.01 L 277.33,155.32 L 282.85,152.21 L 285.64,150.70 L 291.42,147.92 L 294.34,146.57 L 300.43,144.07 L 310.00,140.61 L 313.43,139.47 L 320.49,137.49 L 324.06,136.56 L 331.34,135.00 L 335.01,134.28 L 342.47,133.14 L 346.21,132.63 L 353.79,131.92 L 357.58,131.62 L 365.22,131.34 L 369.04,131.26 M 420.85,171.26 L 420.08,171.37 L 418.60,171.91 L 417.87,172.23 L 416.51,173.17 L 415.85,173.69 L 414.68,175.01 L 414.12,175.71 L 413.20,177.37 L 412.16,180.24 L 411.61,182.43 L 409.88,186.38 L 408.93,188.29 L 406.50,191.61 L 405.22,193.19 L 402.22,195.83 L 400.66,197.06 L 397.22,198.95 L 395.46,199.79 L 391.71,200.86 L 389.80,201.29 L 385.87,201.49 L 383.89,201.47 L 379.90,200.73 L 374.00,198.50 L 373.12,198.04 L 371.33,197.46 L 370.44,197.22 L 368.68,197.04 L 367.82,197.00 L 366.16,197.19 L 365.35,197.34 L 363.86,197.88 L 363.14,198.19 L 361.89,199.05 L 361.30,199.52 L 360.35,200.66 L 359.93,201.27 L 359.36,202.67 L 359.00,205.02 L 359.00,206.18 L 359.33,208.07 L 359.56,208.96 L 360.46,210.47 L 361.00,211.19 L 362.63,212.52 L 366.06,214.53 L 368.45,215.74 L 373.31,217.54 L 375.75,218.33 L 380.66,219.27 L 383.11,219.64 L 387.99,219.73 L 390.42,219.66 L 395.20,218.88 L 396.91,218.52 L 400.16,217.55 L 401.76,217.01 L 404.81,215.69 L 406.31,214.98 L 409.14,213.30 L 410.53,212.42 L 413.16,210.40 L 414.44,209.35 L 416.86,206.98 L 418.04,205.75 L 420.25,203.03 L 421.32,201.63 L 423.32,198.56 L 426.08,193.57 L 426.75,192.22 L 427.87,189.74 L 428.39,188.54 L 429.19,186.35 L 429.56,185.30 L 430.07,183.38 L 430.28,182.45 L 430.49,180.78 L 430.55,179.98 L 430.46,178.52 L 430.37,177.82 L 429.98,176.57 L 429.74,175.96 L 429.06,174.88 L 427.69,173.41 L 426.99,172.81 L 425.49,171.97 L 424.74,171.62 L 423.18,171.27 L 422.40,171.15 Z" fill="rgba(148,209,223,1)"/>
<path d="M 115.28,383.28 L 115.74,383.41 L 117.18,383.94 L 117.98,384.25 L 120.05,385.14 L 121.15,385.62 L 123.75,386.81 L 125.12,387.44 L 128.19,388.90 L 129.77,389.66 L 133.23,391.35 L 135.00,392.22 L 138.77,394.10 L 140.68,395.06 L 144.69,397.09 L 148.73,399.15 L 157.19,403.56 L 161.43,405.78 L 169.82,410.27 L 173.94,412.50 L 181.63,416.77 L 183.48,417.81 L 186.95,419.79 L 191.71,422.57 L 193.39,423.57 L 196.61,425.45 L 198.17,426.35 L 200.92,427.89 L 201.57,428.25 L 202.71,428.87 L 203.26,429.17 L 204.18,429.65 L 204.61,429.88 L 205.27,430.20 L 205.91,430.47 L 206.52,430.66 L 208.15,430.48 L 209.00,430.30 L 210.82,429.54 L 211.71,429.10 L 213.30,427.96 L 214.97,426.06 L 215.40,425.25 L 215.84,423.45 L 216.00,422.52 L 215.91,420.63 L 215.80,419.70 L 215.20,417.93 L 214.48,416.80 L 215.07,417.61 L 215.33,418.14 L 215.75,419.22 L 215.85,419.78 L 216.00,420.93 L 216.00,421.56 L 216.29,423.99 L 216.48,424.55 L 216.60,424.73 L 216.85,425.00 L 216.98,425.00 L 217.57,425.41 L 218.12,426.07 L 218.45,426.54 L 219.14,427.58 L 219.50,428.21 L 220.24,429.53 L 220.60,430.25 L 222.79,434.15 L 224.42,436.62 L 225.31,437.78 L 227.14,440.06 L 228.13,441.12 L 230.15,443.20 L 231.24,444.16 L 233.45,446.03 L 234.63,446.89 L 237.02,448.55 L 238.28,449.29 L 240.84,450.72 L 242.18,451.35 L 244.90,452.55 L 246.32,453.06 L 249.28,454.05 L 250.61,454.39 L 251.89,454.70 L 252.40,454.80 L 253.35,454.96 L 253.65,454.96 L 255.65,455.00 L 255.92,456.16 L 256.76,460.51 L 257.64,466.75 L 257.71,467.52 L 257.84,468.78 L 257.89,469.36 L 257.96,470.31 L 257.98,470.74 L 257.97,471.41 L 257.96,471.72 L 257.87,472.16 L 257.76,472.55 L 257.24,472.84 L 255.89,472.89 L 255.23,472.86 L 253.47,472.57 L 252.58,472.39 L 251.00,471.92 L 250.66,471.81 L 249.36,471.38 L 248.63,471.14 L 246.74,470.53 L 240.00,468.39 L 238.75,468.00 L 235.70,466.93 L 234.10,466.36 L 230.50,465.00 L 228.65,464.28 L 224.66,462.69 L 222.64,461.87 L 218.45,460.13 L 214.24,458.36 L 205.97,454.69 L 203.97,453.78 L 200.24,452.03 L 195.19,449.56 L 193.68,448.79 L 190.46,446.88 L 188.80,445.85 L 185.19,443.36 L 183.32,442.03 L 179.20,438.86 L 172.32,433.25 L 170.30,431.56 L 166.64,428.58 L 164.86,427.15 L 161.63,424.67 L 160.06,423.49 L 157.19,421.48 L 155.79,420.52 L 153.22,418.93 L 151.97,418.19 L 149.63,416.98 L 148.49,416.42 L 146.32,415.56 L 145.26,415.17 L 143.20,414.62 L 140.16,414.10 L 134.66,413.50 L 130.70,407.00 L 130.15,406.11 L 128.66,403.81 L 127.87,402.60 L 126.04,399.93 L 125.11,398.57 L 123.18,395.84 L 120.40,392.05 L 119.53,390.89 L 117.97,388.74 L 117.24,387.71 L 116.04,385.97 L 115.50,385.17 L 114.80,384.03 L 114.66,383.79 L 114.50,383.47 L 114.45,383.22 L 114.53,383.13 M 269.08,435.30 L 270.30,439.23 L 271.46,443.14 L 271.94,445.04 L 272.84,448.82 L 273.17,450.62 L 273.44,452.08 L 273.56,452.68 L 273.79,453.80 L 273.90,454.25 L 274.33,455.74 L 274.61,456.15 L 275.22,456.77 L 275.68,456.88 L 276.72,457.00 L 277.49,457.00 L 279.11,456.93 L 280.41,456.82 L 281.15,456.74 L 284.36,456.32 L 286.26,456.01 L 290.22,455.31 L 292.39,454.87 L 296.82,453.94 L 299.11,453.40 L 305.69,451.86 L 305.62,452.72 L 305.50,454.57 L 305.34,457.71 L 305.31,458.43 L 305.27,459.69 L 305.25,460.28 L 305.25,461.24 L 305.25,461.68 L 305.29,462.30 L 305.38,462.81 L 305.42,462.87 L 305.22,463.10 L 305.08,463.22 L 304.54,463.55 L 304.23,463.72 L 303.38,464.13 L 302.91,464.35 L 301.78,464.83 L 300.59,465.34 L 297.51,466.51 L 292.12,468.39 L 290.18,469.04 L 287.01,470.09 L 285.53,470.58 L 283.20,471.34 L 282.13,471.68 L 280.50,472.18 L 279.76,472.39 L 278.70,472.65 L 278.23,472.75 L 277.61,472.80 L 277.34,472.80 L 277.02,472.67 L 276.75,472.50 L 276.56,471.75 L 276.51,471.58 L 276.33,470.57 L 276.22,469.97 L 275.96,468.27 L 275.82,467.36 L 275.52,465.20 L 275.05,461.67 L 274.53,457.67 L 272.87,449.45 L 271.95,445.34 L 269.61,437.29 L 268.64,434.19 M 324.71,424.20 L 325.00,431.00 L 325.00,434.17 L 325.01,437.08 L 325.04,438.38 L 325.10,440.84 L 325.14,441.82 L 325.23,443.60 L 325.29,444.15 L 325.35,444.63 L 325.38,444.78 L 325.44,445.00 L 325.47,445.00 L 326.08,444.81 L 326.87,444.51 L 327.40,444.29 L 328.56,443.82 L 329.23,443.53 L 330.63,442.93 L 331.38,442.59 L 336.46,440.35 L 334.66,450.75 L 329.31,453.37 L 328.57,453.74 L 327.21,454.39 L 326.56,454.71 L 325.46,455.23 L 324.95,455.47 L 324.23,455.79 L 323.72,456.00 L 323.71,456.00 L 323.69,455.73 L 323.69,455.55 L 323.70,454.95 L 323.71,454.62 L 323.74,453.73 L 323.76,453.25 L 323.82,452.11 L 323.88,450.91 L 324.05,447.89 L 324.15,446.31 L 324.38,442.75 L 324.56,440.09 L 324.72,434.59 L 324.77,431.81 L 324.67,426.15 L 324.52,420.78 M 357.00,401.05 L 357.00,403.88 L 356.95,411.85 L 356.87,416.77 L 356.81,418.87 L 356.75,420.89 L 356.71,421.78 L 356.64,423.48 L 356.60,424.18 L 356.52,425.47 L 356.48,425.95 L 356.39,426.78 L 356.35,427.01 L 356.10,428.69 L 356.15,429.21 L 356.22,429.66 L 356.30,429.78 L 356.47,429.93 L 356.60,429.88 L 357.23,429.62 L 357.89,429.36 L 358.30,429.19 L 360.12,428.48 L 361.12,428.09 L 363.23,427.15 L 364.13,426.41 L 364.43,425.79 L 364.72,425.11 L 364.84,424.67 L 365.08,423.71 L 365.19,423.10 L 365.41,421.78 L 365.53,420.96 L 365.79,419.21 L 365.94,418.14 L 365.97,417.94 L 365.39,422.89 L 365.28,424.11 L 365.15,426.36 L 365.14,429.39 L 365.36,435.28 L 360.93,437.59 L 360.20,437.97 L 358.99,438.59 L 358.42,438.87 L 357.50,439.29 L 357.07,439.47 L 356.42,439.68 L 356.12,439.76 L 355.70,439.75 L 355.51,439.72 L 355.29,439.50 L 355.20,439.37 L 355.14,438.93 L 355.12,438.43 L 355.43,436.75 L 355.47,436.53 L 355.57,435.59 L 355.62,435.05 L 355.73,433.54 L 355.78,432.71 L 355.89,430.69 L 355.95,429.63 L 356.06,427.18 L 356.12,425.92 L 356.23,423.12 L 356.28,421.69 L 356.39,418.62 L 356.66,408.75 L 356.74,405.35 L 356.95,399.14 L 357.01,397.66 L 357.07,396.23 M 306.67,438.77 L 306.67,438.87 L 306.68,438.66 M 242.38,420.75 L 244.13,423.59 L 245.00,425.09 L 246.73,428.56 L 247.58,430.36 L 248.19,431.82 L 245.97,427.06 L 244.81,424.91 L 243.65,422.83 L 243.10,421.94 L 242.01,420.26 M 366.46,415.10 L 366.35,415.71 L 366.62,414.13 L 366.99,412.34 M 248.22,401.14 L 249.51,402.18 L 251.90,404.18 L 252.84,405.11 L 254.57,406.91 L 255.21,407.75 L 255.46,408.11 L 252.61,405.03 L 251.83,404.24 L 250.08,402.70 L 249.17,401.92 L 247.14,400.35 M 191.29,401.41 L 191.59,401.59 L 190.94,401.22 M 337.02,367.18 L 337.23,368.81 L 337.34,369.67 L 337.52,371.68 L 337.61,372.74 L 337.77,375.13 L 337.85,376.38 L 337.98,379.17 L 338.04,380.62 L 338.15,383.82 L 338.19,385.47 L 338.27,389.08 L 338.31,390.93 L 338.36,394.97 L 338.40,400.73 L 338.38,399.22 L 338.27,392.14 L 338.19,388.77 L 337.99,382.18 L 337.87,379.26 L 337.74,376.42 L 337.66,375.13 L 337.51,372.64 L 337.43,371.56 L 337.26,369.49 L 337.17,368.64 L 336.98,367.08 L 336.88,366.50 L 335.49,358.51 L 336.90,366.50 M 156.76,383.07 L 162.74,386.12 L 174.55,392.24 L 180.20,395.30 L 183.22,396.97 L 180.83,395.67 L 176.59,393.38 L 167.56,388.63 L 162.99,386.25 L 154.78,382.09 M 372.85,392.09 L 371.26,396.74 L 372.77,392.04 M 314.63,368.87 L 314.99,369.69 L 315.70,371.42 L 316.06,372.42 L 316.77,374.51 L 317.12,375.68 L 317.82,378.10 L 318.16,379.42 L 318.83,382.12 L 319.16,383.57 L 320.45,389.58 L 320.71,391.08 L 320.27,388.81 L 319.00,383.30 L 316.86,375.30 L 316.27,373.32 L 314.81,369.62 L 314.45,368.78 L 313.75,367.43 L 312.86,366.08 L 313.92,367.55 M 358.89,384.32 L 359.34,384.52 L 360.65,385.19 L 361.36,385.55 L 363.05,386.47 L 365.55,387.88 L 363.02,386.46 L 361.32,385.55 L 360.61,385.18 L 359.28,384.52 L 358.82,384.32 L 358.04,384.00 L 358.14,384.00 M 296.33,376.81 L 296.84,377.19 L 297.69,377.84 L 298.08,378.15 L 298.63,378.65 L 299.11,379.20 L 299.37,379.69 L 299.96,381.40 L 300.27,382.37 L 300.80,384.41 L 300.20,382.43 L 299.81,381.52 L 298.97,379.81 L 298.43,379.07 L 297.27,377.65 L 296.52,376.98 L 296.26,376.77 M 219.55,334.43 L 226.98,338.05 L 241.71,345.60 L 249.06,349.42 L 263.63,357.37 L 285.28,369.71 L 287.03,370.75 L 287.04,370.75 L 285.37,369.77 L 263.70,357.40 L 249.11,349.45 L 241.76,345.62 L 227.01,338.07 L 219.59,334.45 L 213.33,331.45 M 68.15,344.20 L 80.72,349.04 L 87.10,351.62 L 99.90,356.89 L 106.32,359.65 L 108.88,360.77 L 108.06,360.42 L 101.39,357.59 L 87.36,351.86 L 83.87,350.45 L 77.00,347.73 L 73.59,346.39 L 67.05,343.87 L 63.84,342.64 L 62.22,342.04 M 114.10,290.72 L 106.50,288.20 L 114.10,290.72 Z" fill="rgba(186,186,186,1)"/>
<path d="M 273.17,450.62 L 272.84,448.82 L 271.94,445.04 L 271.46,443.14 L 270.30,439.23 L 269.08,435.30 L 266.01,427.47 L 265.20,425.55 L 263.49,421.84 L 262.62,420.02 L 260.81,416.57 L 259.90,414.90 L 258.03,411.83 L 255.21,407.75 L 254.57,406.91 L 252.84,405.11 L 251.90,404.18 L 249.51,402.18 L 248.22,401.14 L 245.10,398.86 L 239.50,395.08 L 235.23,392.31 L 226.08,386.73 L 221.41,383.94 L 211.45,378.33 L 206.38,375.52 L 195.62,369.87 L 190.14,367.04 L 178.59,361.36 L 172.71,358.52 L 160.35,352.81 L 154.08,349.95 L 140.93,344.21 L 134.25,341.34 L 120.31,335.57 L 98.50,326.88 L 96.44,326.08 L 92.69,324.54 L 90.91,323.79 L 87.98,322.47 L 87.31,322.16 L 86.18,321.61 L 85.65,321.35 L 84.83,320.90 L 84.46,320.70 L 84.00,320.38 L 83.74,320.06 L 83.83,319.69 L 84.23,318.73 L 84.47,318.22 L 85.11,317.07 L 85.79,315.90 L 87.52,313.41 L 88.40,312.22 L 90.08,310.31 L 90.47,309.91 L 91.13,309.35 L 91.88,309.00 L 92.12,309.00 L 93.04,309.19 L 93.57,309.32 L 95.02,309.74 L 95.80,309.98 L 97.71,310.62 L 98.72,310.96 L 101.04,311.79 L 102.25,312.22 L 104.93,313.21 L 106.30,313.73 L 109.29,314.87 L 112.33,316.04 L 119.10,318.73 L 122.56,320.12 L 129.83,323.11 L 133.48,324.62 L 140.80,327.73 L 144.43,329.29 L 151.37,332.34 L 160.87,336.67 L 162.44,337.40 L 165.47,338.74 L 166.95,339.38 L 169.59,340.43 L 170.83,340.92 L 172.77,341.58 L 173.20,341.71 L 173.87,341.89 L 174.57,342.00 L 174.89,342.00 L 175.69,341.81 L 176.11,341.69 L 177.02,341.30 L 179.67,339.61 L 180.11,339.23 L 180.85,338.32 L 181.19,337.85 L 181.72,336.80 L 182.21,335.72 L 182.56,333.34 L 182.63,332.15 L 182.14,329.87 L 181.97,329.32 L 181.46,328.32 L 180.44,326.99 L 180.14,326.69 L 179.01,325.90 L 178.36,325.48 L 176.59,324.46 L 175.63,323.92 L 173.28,322.70 L 172.04,322.06 L 169.17,320.67 L 167.67,319.95 L 164.35,318.40 L 162.63,317.61 L 158.91,315.95 L 157.01,315.10 L 152.95,313.33 L 150.89,312.44 L 146.57,310.60 L 142.19,308.76 L 132.89,304.96 L 128.19,303.06 L 118.61,299.32 L 113.83,297.48 L 104.48,294.01 L 102.18,293.17 L 97.71,291.58 L 91.26,289.34 L 88.89,288.54 L 84.56,286.99 L 83.53,286.62 L 81.63,285.91 L 80.72,285.56 L 79.08,284.92 L 78.30,284.61 L 76.97,284.06 L 76.35,283.80 L 75.38,283.35 L 74.94,283.14 L 74.37,282.82 L 74.02,282.50 L 74.02,282.22 L 74.29,281.38 L 74.92,280.09 L 75.06,279.88 L 75.50,279.59 L 75.76,279.47 L 76.57,279.39 L 77.03,279.39 L 78.37,279.58 L 79.12,279.71 L 81.13,280.19 L 82.24,280.48 L 85.09,281.30 L 85.87,281.53 L 87.59,282.06 L 88.49,282.34 L 90.48,282.97 L 91.52,283.29 L 93.79,284.03 L 94.97,284.40 L 97.54,285.25 L 98.87,285.68 L 101.77,286.63 L 106.50,288.20 L 114.10,290.72 L 129.30,296.11 L 136.89,298.86 L 152.04,304.71 L 159.61,307.69 L 174.69,313.97 L 182.22,317.17 L 197.22,323.89 L 204.70,327.31 L 219.59,334.45 L 227.01,338.07 L 241.76,345.62 L 249.11,349.45 L 263.70,357.40 L 285.37,369.77 L 287.21,370.85 L 290.21,372.63 L 291.61,373.47 L 293.86,374.93 L 294.89,375.64 L 296.52,376.98 L 297.27,377.65 L 298.43,379.07 L 298.97,379.81 L 299.81,381.52 L 300.20,382.43 L 300.86,384.62 L 301.18,385.80 L 301.82,388.68 L 302.89,394.00 L 303.82,398.63 L 305.20,407.68 L 305.81,412.16 L 306.55,420.86 L 306.84,425.16 L 306.94,433.41 L 306.36,445.18 L 305.72,451.85 L 299.11,453.40 L 296.82,453.94 L 292.39,454.87 L 290.22,455.31 L 286.26,456.01 L 284.36,456.32 L 281.15,456.74 L 280.41,456.82 L 279.11,456.93 L 277.49,457.00 L 276.72,457.00 L 275.68,456.88 L 275.22,456.77 L 274.61,456.15 L 274.33,455.74 L 273.90,454.25 L 273.79,453.80 L 273.56,452.68 L 273.44,452.08 M 292.69,438.58 L 293.33,438.03 L 294.20,437.11 L 294.58,436.64 L 295.02,435.59 L 295.20,435.01 L 295.34,433.45 L 295.33,430.14 L 295.30,429.08 L 295.09,426.75 L 294.96,425.55 L 294.56,422.98 L 294.12,420.36 L 292.76,414.71 L 292.02,411.86 L 290.17,406.20 L 287.01,398.34 L 286.59,397.44 L 285.84,395.88 L 285.47,395.14 L 284.79,393.87 L 284.13,392.65 L 282.78,390.77 L 282.08,389.87 L 280.35,388.25 L 279.87,387.83 L 278.77,386.96 L 276.86,385.52 L 275.39,384.45 L 272.12,382.17 L 270.44,381.02 L 266.79,378.61 L 264.92,377.40 L 260.97,374.91 L 258.96,373.65 L 254.77,371.10 L 250.53,368.55 L 241.67,363.46 L 237.22,360.94 L 228.38,356.14 L 226.19,354.97 L 221.93,352.75 L 219.82,351.66 L 215.77,349.63 L 213.77,348.63 L 209.99,346.82 L 208.14,345.94 L 204.71,344.38 L 203.05,343.64 L 200.05,342.38 L 198.61,341.80 L 196.10,340.88 L 194.92,340.47 L 192.98,339.93 L 190.81,339.58 L 189.92,339.57 L 188.30,339.89 L 187.51,340.10 L 186.12,340.80 L 185.46,341.19 L 184.33,342.20 L 183.81,342.73 L 183.00,343.98 L 182.64,344.62 L 182.19,346.02 L 182.01,346.73 L 181.95,348.22 L 181.98,348.97 L 182.36,350.47 L 183.47,352.65 L 183.57,352.80 L 184.22,353.30 L 184.61,353.58 L 185.80,354.34 L 186.45,354.74 L 188.11,355.71 L 188.99,356.22 L 191.05,357.37 L 192.13,357.96 L 194.53,359.25 L 195.77,359.92 L 198.45,361.32 L 207.22,365.76 L 212.70,368.47 L 223.38,374.05 L 228.64,376.85 L 238.50,382.41 L 240.90,383.78 L 245.45,386.48 L 247.69,387.82 L 251.88,390.42 L 253.92,391.70 L 257.69,394.17 L 262.80,397.68 L 264.07,398.59 L 266.05,400.16 L 266.97,400.92 L 268.38,402.37 L 269.03,403.10 L 270.08,404.67 L 271.47,407.38 L 271.75,408.02 L 272.32,409.53 L 272.61,410.31 L 273.19,412.06 L 273.77,413.86 L 274.90,417.97 L 275.44,420.08 L 276.41,424.48 L 277.58,430.95 L 277.74,432.05 L 278.36,434.03 L 278.71,434.97 L 279.66,436.60 L 280.16,437.37 L 281.36,438.61 L 281.99,439.18 L 283.39,440.02 L 284.10,440.38 L 285.63,440.77 L 286.40,440.90 L 287.99,440.81 L 288.79,440.70 L 290.38,440.10 L 291.17,439.73 M 246.32,453.06 L 244.90,452.55 L 242.18,451.35 L 240.84,450.72 L 238.28,449.29 L 237.02,448.55 L 234.63,446.89 L 233.45,446.03 L 231.24,444.16 L 230.15,443.20 L 228.13,441.12 L 227.14,440.06 L 225.31,437.78 L 224.42,436.62 L 222.79,434.15 L 220.60,430.25 L 220.24,429.53 L 219.50,428.21 L 219.14,427.58 L 218.45,426.54 L 218.12,426.07 L 217.57,425.41 L 216.98,425.00 L 216.85,425.00 L 216.60,424.73 L 216.48,424.55 L 216.29,423.99 L 216.00,421.56 L 216.00,420.93 L 215.85,419.78 L 215.75,419.22 L 215.33,418.14 L 215.07,417.61 L 214.28,416.52 L 213.83,415.97 L 212.58,414.80 L 211.89,414.19 L 210.09,412.84 L 209.12,412.14 L 206.67,410.55 L 205.36,409.71 L 202.19,407.79 L 196.50,404.44 L 191.29,401.41 L 180.20,395.30 L 174.55,392.24 L 162.74,386.12 L 156.76,383.07 L 144.42,377.03 L 138.20,374.03 L 125.52,368.17 L 119.15,365.26 L 106.32,359.65 L 99.90,356.89 L 87.10,351.62 L 80.72,349.04 L 68.15,344.20 L 49.75,337.51 L 47.86,336.85 L 44.41,335.60 L 42.77,335.00 L 40.04,333.95 L 39.42,333.71 L 38.36,333.27 L 37.86,333.07 L 37.09,332.73 L 36.74,332.57 L 36.28,332.33 L 36.00,332.11 L 36.00,332.03 L 36.16,331.61 L 36.27,331.37 L 36.60,330.71 L 38.03,328.19 L 38.43,327.52 L 39.13,326.57 L 39.46,326.15 L 40.09,325.66 L 40.40,325.47 L 41.08,325.36 L 42.27,325.56 L 43.27,325.87 L 45.72,326.67 L 47.02,327.10 L 50.00,328.13 L 51.55,328.67 L 54.99,329.90 L 56.76,330.53 L 60.60,331.94 L 62.57,332.66 L 66.74,334.21 L 68.86,335.00 L 73.29,336.67 L 77.77,338.36 L 87.23,342.01 L 92.00,343.85 L 101.62,347.64 L 106.40,349.53 L 115.65,353.25 L 117.91,354.17 L 122.27,355.96 L 124.42,356.84 L 128.50,358.53 L 130.50,359.37 L 134.23,360.95 L 139.36,363.16 L 145.33,365.78 L 157.16,371.20 L 163.03,373.93 L 174.45,379.47 L 180.07,382.23 L 190.76,387.71 L 193.37,389.07 L 198.40,391.74 L 200.88,393.07 L 205.63,395.67 L 207.96,396.96 L 212.38,399.47 L 214.55,400.71 L 218.60,403.10 L 220.58,404.28 L 224.24,406.53 L 226.01,407.64 L 229.22,409.73 L 230.77,410.76 L 233.50,412.67 L 234.80,413.61 L 237.01,415.32 L 238.05,416.15 L 239.70,417.64 L 241.52,419.61 L 242.01,420.26 L 243.10,421.94 L 243.65,422.83 L 244.81,424.91 L 245.97,427.06 L 248.33,432.11 L 249.48,434.69 L 251.52,439.98 L 251.99,441.27 L 252.81,443.77 L 253.82,447.25 L 255.80,455.00 L 253.65,454.96 L 253.35,454.96 L 252.40,454.80 L 251.89,454.70 L 250.61,454.39 L 249.28,454.05 M 325.00,434.17 L 325.00,431.00 L 324.71,424.20 L 324.52,420.76 L 323.89,413.66 L 323.54,410.11 L 322.64,403.05 L 322.15,399.56 L 321.03,392.86 L 320.45,389.58 L 319.16,383.57 L 318.83,382.12 L 318.16,379.42 L 317.82,378.10 L 317.12,375.68 L 316.77,374.51 L 316.06,372.42 L 315.70,371.42 L 314.99,369.69 L 314.63,368.87 L 313.92,367.55 L 312.86,366.08 L 312.73,365.94 L 312.21,365.51 L 311.91,365.28 L 311.08,364.67 L 310.64,364.35 L 309.54,363.60 L 308.96,363.21 L 307.64,362.34 L 306.27,361.45 L 303.03,359.41 L 297.74,356.19 L 290.49,351.88 L 275.77,343.52 L 268.37,339.39 L 253.38,331.39 L 245.85,327.44 L 230.64,319.84 L 223.01,316.08 L 207.61,308.88 L 199.90,305.33 L 184.37,298.56 L 176.59,295.22 L 160.96,288.89 L 153.14,285.78 L 137.46,279.91 L 113.94,271.66 L 111.54,270.85 L 106.12,269.10 L 103.33,268.20 L 97.40,266.35 L 94.41,265.41 L 88.34,263.56 L 85.32,262.65 L 79.50,260.92 L 76.64,260.08 L 71.43,258.58 L 70.18,258.22 L 67.85,257.57 L 66.73,257.26 L 64.69,256.70 L 63.71,256.43 L 61.99,255.99 L 61.18,255.78 L 59.84,255.45 L 59.22,255.31 L 58.30,255.12 L 57.44,255.00 L 57.07,255.00 L 56.50,254.87 L 56.24,254.78 L 55.94,254.42 L 55.82,254.21 L 55.79,253.58 L 55.81,253.22 L 56.08,252.27 L 56.25,251.74 L 56.83,250.41 L 57.16,249.69 L 58.07,247.92 L 58.56,246.98 L 59.82,244.74 L 62.11,240.77 L 63.10,239.09 L 64.95,235.95 L 65.85,234.44 L 67.38,231.88 L 67.74,231.29 L 68.36,230.27 L 68.65,229.79 L 69.13,229.01 L 69.36,228.65 L 69.68,228.15 L 69.95,227.75 L 70.00,227.69 L 70.48,227.74 L 70.79,227.79 L 71.74,228.03 L 72.28,228.18 L 73.65,228.59 L 74.39,228.81 L 76.13,229.38 L 77.04,229.68 L 79.09,230.37 L 80.15,230.74 L 82.45,231.56 L 90.05,234.36 L 101.79,238.80 L 124.85,248.00 L 136.29,252.64 L 158.62,262.18 L 169.67,266.97 L 191.09,276.75 L 196.38,279.20 L 206.75,284.14 L 211.90,286.61 L 221.99,291.58 L 227.00,294.06 L 236.77,299.05 L 241.62,301.54 L 251.05,306.53 L 255.73,309.03 L 264.81,314.02 L 269.31,316.51 L 278.01,321.48 L 282.31,323.96 L 290.61,328.91 L 294.70,331.38 L 302.58,336.29 L 306.46,338.73 L 313.89,343.59 L 324.50,350.81 L 335.49,358.51 L 336.88,366.50 L 336.98,367.08 L 337.17,368.64 L 337.26,369.49 L 337.43,371.56 L 337.51,372.64 L 337.66,375.13 L 337.74,376.42 L 337.87,379.26 L 337.99,382.18 L 338.19,388.77 L 338.27,392.14 L 338.38,399.22 L 338.42,402.76 L 338.43,409.75 L 338.42,413.18 L 338.34,419.52 L 338.31,421.04 L 338.23,423.85 L 338.19,425.22 L 338.08,427.67 L 338.03,428.85 L 337.89,430.87 L 337.66,433.34 L 336.82,440.19 L 331.38,442.59 L 330.63,442.93 L 329.23,443.53 L 328.56,443.82 L 327.40,444.29 L 326.87,444.51 L 326.08,444.81 L 325.47,445.00 L 325.44,445.00 L 325.38,444.78 L 325.35,444.63 L 325.29,444.15 L 325.23,443.60 L 325.14,441.82 L 325.10,440.84 L 325.04,438.38 L 325.01,437.08 M 356.35,427.01 L 356.39,426.78 L 356.48,425.95 L 356.52,425.47 L 356.60,424.18 L 356.64,423.48 L 356.71,421.78 L 356.75,420.89 L 356.81,418.87 L 356.87,416.77 L 356.95,411.85 L 357.00,403.88 L 357.00,401.05 L 357.07,396.00 L 357.09,394.80 L 357.15,392.62 L 357.18,391.56 L 357.26,389.70 L 357.30,388.81 L 357.40,387.31 L 357.44,386.61 L 357.55,385.52 L 357.61,385.03 L 357.72,384.39 L 357.91,384.00 L 358.04,384.00 L 358.82,384.32 L 359.28,384.52 L 360.61,385.18 L 361.32,385.55 L 363.02,386.46 L 365.80,388.02 L 372.77,392.04 L 369.95,400.81 L 369.57,402.02 L 368.76,404.90 L 368.37,406.38 L 367.61,409.52 L 367.25,411.09 L 366.62,414.13 L 365.94,418.14 L 365.79,419.21 L 365.53,420.96 L 365.41,421.78 L 365.19,423.10 L 365.08,423.71 L 364.84,424.67 L 364.72,425.11 L 364.43,425.79 L 364.13,426.41 L 363.23,427.15 L 361.12,428.09 L 360.12,428.48 L 358.30,429.19 L 357.89,429.36 L 357.23,429.62 L 356.60,429.88 L 356.47,429.93 L 356.30,429.78 L 356.22,429.66 L 356.15,429.21 L 356.10,428.69 Z" fill="rgba(254,254,254,1)"/>
</g>
</svg>