<?xml version="1.0" encoding="UTF-8"?>
<svg width="96px" height="96px" viewBox="0 0 96 96" version="1.1" xmlns="http://www.w3.org/2000/svg" xmlns:xlink="http://www.w3.org/1999/xlink">
    <!-- Generator: Sketch 57.1 (83088) - https://sketch.com -->
    <title>logo-lockup--circle</title>
    <desc>Created with Sketch.</desc>
    <g id="logo-lockup--circle" stroke="none" stroke-width="1" fill="none" fill-rule="evenodd">
        <g id="logo-icon--circle">
            <circle id="Oval" fill="#521C74" cx="48" cy="48" r="48"></circle>
            <path d="M27.7276117,62 C27.5595827,62.2251312 27.4100523,62.4385673 27.2944361,62.630806 C27.0978884,62.9582697 27,63.4253439 27,64.0320287 L27,71.1784836 C27,71.6930693 27.1842152,72.1243272 27.5534165,72.4751811 C27.9233885,72.825304 28.3781458,73 28.9207715,73 L68.0792285,73 C68.6203126,73 69.0766115,72.8369991 69.4450419,72.5095355 C69.815014,72.1835338 70,71.7632401 70,71.2486544 L70,63.8215164 C70,63.3083926 69.815014,62.8756728 69.4450419,62.5255499 C69.0766115,62.1754269 68.6203126,62 68.0792285,62 L45.4708539,62 L27.7276117,62 Z" id="Fill-1" fill="#67BFD3"></path>
            <path d="M68.3706291,34 C68.7823171,33.398102 69,32.7377171 69,32.0129223 L69,24.8456724 C69,24.325212 68.8166881,23.8869296 68.4508281,23.5323058 C68.0849681,23.1776821 67.6327987,23 67.0966113,23 L29.8300639,23 C29.292349,23 28.8531642,23.1776821 28.5117457,23.5323058 C28.1703273,23.8869296 28,24.325212 28,24.8456724 L28,32.2261408 C28,32.6992193 28.1833119,33.1130704 28.5491719,33.4676942 C28.9150319,33.8223179 29.3412321,34 29.8300639,34 L51.6480001,34 L68.3706291,34 Z" id="Fill-4" fill="#67BFD3"></path>
            <path d="M67.6887023,35.4019682 C67.8067298,35.2719402 67.9041026,35.1363196 68,35 L51.8494014,35 L29.3636725,60.5309206 C29.2272031,60.6966014 29.1113885,60.8489998 29,61 L45.9804801,61 L67.6887023,35.4019682 Z" id="Fill-7" fill="#E42656"></path>
        </g>
    </g>
</svg>