<svg width="96" height="96" viewBox="0 0 96 96" fill="none" xmlns="http://www.w3.org/2000/svg">
<path fill-rule="evenodd" clip-rule="evenodd" d="M48 96C74.5097 96 96 74.5097 96 48C96 21.4903 74.5097 0 48 0C21.4903 0 0 21.4903 0 48C0 74.5097 21.4903 96 48 96Z" fill="#F0F0F0"/>
<path fill-rule="evenodd" clip-rule="evenodd" d="M27.7276 62C27.5596 62.2251 27.4101 62.4386 27.2944 62.6308C27.0979 62.9583 27 63.4253 27 64.032V71.1785C27 71.6931 27.1842 72.1243 27.5534 72.4752C27.9234 72.8253 28.3781 73 28.9208 73H68.0792C68.6203 73 69.0766 72.837 69.445 72.5095C69.815 72.1835 70 71.7632 70 71.2487V63.8215C70 63.3084 69.815 62.8757 69.445 62.5255C69.0766 62.1754 68.6203 62 68.0792 62H45.4709H27.7276Z" fill="#E0E0E0"/>
<path fill-rule="evenodd" clip-rule="evenodd" d="M68.3706 34C68.7823 33.3981 69 32.7377 69 32.0129V24.8457C69 24.3252 68.8167 23.8869 68.4508 23.5323C68.085 23.1777 67.6328 23 67.0966 23H29.8301C29.2923 23 28.8532 23.1777 28.5117 23.5323C28.1703 23.8869 28 24.3252 28 24.8457V32.2261C28 32.6992 28.1833 33.1131 28.5492 33.4677C28.915 33.8223 29.3412 34 29.8301 34H51.648H68.3706Z" fill="#E0E0E0"/>
<path fill-rule="evenodd" clip-rule="evenodd" d="M67.6887 35.402C67.8067 35.2719 67.9041 35.1363 68 35H51.8494L29.3637 60.5309C29.2272 60.6966 29.1114 60.849 29 61H45.9805L67.6887 35.402Z" fill="white"/>
</svg>