<svg width="184" height="184" viewBox="0 0 184 184" fill="none" xmlns="http://www.w3.org/2000/svg">
<circle cx="103" cy="117" r="49" fill="#F0F0F0"/>
<circle cx="52" cy="56" r="17" fill="#F0F0F0"/>
<circle cx="131.5" cy="32.5" r="10.5" fill="#F0F0F0"/>
<circle cx="37" cy="22" r="5" fill="#F0F0F0"/>
<circle cx="36.5" cy="118.5" r="23.5" fill="#67BFD3"/>
<circle cx="140" cy="91" r="31" fill="#67BFD3"/>
<circle cx="44.5" cy="75.5" r="9.5" fill="#67BFD3"/>
<path d="M54.0547 39.4545H49.625C48.8594 39.4545 48.2305 39.2095 47.7383 38.7195C47.2461 38.2294 47 37.6032 47 36.8409V31.6136C47 30.8513 47.2461 30.2251 47.7383 29.7351C48.2305 29.245 48.8594 29 49.625 29H128.375C129.141 29 129.77 29.245 130.262 29.7351C130.754 30.2251 131 30.8513 131 31.6136V36.8409C131 37.6032 130.754 38.2294 130.262 38.7195C129.77 39.2095 129.141 39.4545 128.375 39.4545H123.945C123.508 50.3991 121.389 59.4516 117.588 66.6119C113.787 73.7721 108.523 78.4957 101.797 80.7827V92.8707C108.414 95.1577 113.623 99.8268 117.424 106.878C121.225 113.93 123.398 122.819 123.945 133.545H128.375C129.141 133.545 129.77 133.79 130.262 134.281C130.754 134.771 131 135.397 131 136.159V141.386C131 142.149 130.754 142.775 130.262 143.265C129.77 143.755 129.141 144 128.375 144H49.625C48.8594 144 48.2305 143.755 47.7383 143.265C47.2461 142.775 47 142.149 47 141.386V136.159C47 135.397 47.2461 134.771 47.7383 134.281C48.2305 133.79 48.8594 133.545 49.625 133.545H54.0547C54.6016 122.819 56.7754 113.93 60.5762 106.878C64.377 99.8268 69.5859 95.1577 76.2031 92.8707V80.7827C69.4766 78.4957 64.2129 73.7721 60.4121 66.6119C56.6113 59.4516 54.4922 50.3991 54.0547 39.4545ZM118.367 39.4545H59.6328C59.7969 43.5384 60.2207 47.3907 60.9043 51.0117C61.5879 54.6327 62.6543 58.2128 64.1035 61.7521C65.5527 65.2914 67.6035 68.3134 70.2559 70.8182C72.9082 73.3229 76.0391 75.0381 79.6484 75.9638L81.7812 76.4538V97.1996L79.6484 97.7713C76.0938 98.697 73.0039 100.371 70.3789 102.794C67.7539 105.217 65.7168 108.171 64.2676 111.656C62.8184 115.141 61.7383 118.653 61.0273 122.192C60.3164 125.732 59.8516 129.516 59.6328 133.545H66.7695H88.5H111.23H118.367C118.148 129.516 117.684 125.732 116.973 122.192C116.262 118.653 115.182 115.141 113.732 111.656C112.283 108.171 110.246 105.217 107.621 102.794C104.996 100.371 101.906 98.697 98.3516 97.7713L96.2188 97.1996V76.4538L98.3516 75.9638C101.961 75.0381 105.092 73.3229 107.744 70.8182C110.396 68.3134 112.447 65.2914 113.896 61.7521C115.346 58.2128 116.412 54.6327 117.096 51.0117C117.779 47.3907 118.203 43.5384 118.367 39.4545Z" fill="#521C74"/>
<path d="M104 65H73C82.6 68.7091 88.3333 79.0379 89 82C89 77.6727 98.3333 67.7045 104 65Z" fill="#E42656"/>
<path d="M61 134L116 134C98.9677 124.588 90.6828 108.516 89.5 101C89.5 111.98 71.0538 127.137 61 134Z" fill="#E42656"/>
</svg>
