<svg width="184" height="184" viewBox="0 0 184 184" fill="none" xmlns="http://www.w3.org/2000/svg">
<circle cx="58.5" cy="58.5" r="42.5" fill="#F0F0F0"/>
<circle cx="141.5" cy="132.5" r="16.5" fill="#F0F0F0"/>
<circle cx="122.224" cy="31.75" r="23.75" fill="#E42656"/>
<circle cx="51.5464" cy="141.296" r="33.5464" fill="#E42656"/>
<path fill-rule="evenodd" clip-rule="evenodd" d="M64.5212 31.75C56.5408 31.75 50.0714 38.2194 50.0714 46.1998C50.0714 46.3012 50.0724 46.4023 50.0745 46.5031L50.0714 46.5009C50.0714 53.7258 47.9641 60.6497 36.2236 60.6497H50.0714H64.5212H69.9399H100.524C108.504 60.6497 114.974 54.1802 114.974 46.1998C114.974 38.2194 108.504 31.75 100.524 31.75H64.5212Z" fill="#521C74"/>
<path fill-rule="evenodd" clip-rule="evenodd" d="M64.5212 101.407C56.5408 101.407 50.0714 107.877 50.0714 115.857C50.0714 115.958 50.0724 116.059 50.0745 116.16L50.0714 116.158C50.0714 123.383 47.9641 130.307 36.2236 130.307H50.0714H64.5212H69.9399H139.774C147.754 130.307 154.224 123.837 154.224 115.857C154.224 107.877 147.754 101.407 139.774 101.407H64.5212Z" fill="#521C74"/>
<path fill-rule="evenodd" clip-rule="evenodd" d="M137.507 65.75C145.359 65.75 151.724 72.1149 151.724 79.9663C151.724 80.0253 151.723 80.0842 151.723 80.143L151.876 80.0338C151.876 87.2587 153.983 94.1826 165.724 94.1826H151.876H137.507H132.007H114.94C107.088 94.1826 100.724 87.8178 100.724 79.9663C100.724 72.1149 107.088 65.75 114.94 65.75H137.507Z" fill="#67BFD3"/>
<path d="M61.2236 40.75H62.7539V45.0963C63.1166 44.668 63.4425 44.3667 63.7315 44.1922C64.2246 43.8908 64.8395 43.7401 65.5763 43.7401C66.8969 43.7401 67.7923 44.171 68.2627 45.0329C68.5178 45.5035 68.6453 46.1565 68.6453 46.9919V52.4407H67.0726V47.0871C67.0726 46.4632 66.9875 46.0058 66.8175 45.715C66.5398 45.2497 66.0184 45.017 65.2533 45.017C64.6185 45.017 64.0432 45.2206 63.5275 45.6277C63.0117 46.0349 62.7539 46.8042 62.7539 47.9357V52.4407H61.2236V40.75Z" fill="white"/>
<path d="M74.7068 43.7559C75.3529 43.7559 75.9791 43.8987 76.5855 44.1842C77.192 44.4645 77.6539 44.8293 77.9713 45.2788C78.2773 45.707 78.4813 46.2067 78.5834 46.7778C78.674 47.169 78.7194 47.793 78.7194 48.6495H72.0458C72.0742 49.5114 72.2924 50.2041 72.7004 50.7275C73.1085 51.2457 73.7404 51.5048 74.5962 51.5048C75.3954 51.5048 76.033 51.2589 76.509 50.7672C76.7811 50.4817 76.9738 50.1512 77.0871 49.7758H78.5919C78.5522 50.0877 78.419 50.4367 78.1923 50.8227C77.9713 51.2034 77.7219 51.5154 77.4442 51.7586C76.9794 52.1816 76.4042 52.4671 75.7184 52.6152C75.35 52.6998 74.9335 52.7421 74.4687 52.7421C73.3352 52.7421 72.3746 52.3587 71.5868 51.592C70.799 50.8201 70.4051 49.7414 70.4051 48.3561C70.4051 46.9919 70.8018 45.8842 71.5953 45.0329C72.3887 44.1816 73.4259 43.7559 74.7068 43.7559ZM77.1466 47.5154C77.0843 46.8967 76.9398 46.4023 76.7131 46.0322C76.2937 45.3448 75.5937 45.0012 74.6132 45.0012C73.9105 45.0012 73.321 45.2391 72.845 45.715C72.3689 46.1856 72.1167 46.7857 72.0883 47.5154H77.1466Z" fill="white"/>
<path d="M80.6492 40.7897H82.1794V52.4407H80.6492V40.7897Z" fill="white"/>
<path d="M84.5258 40.7897H86.056V52.4407H84.5258V40.7897Z" fill="white"/>
<path d="M91.973 51.5207C92.9875 51.5207 93.6817 51.1637 94.0558 50.4499C94.4355 49.7308 94.6254 48.9324 94.6254 48.0547C94.6254 47.2616 94.4894 46.6165 94.2173 46.1195C93.7866 45.3369 93.0441 44.9456 91.99 44.9456C91.0548 44.9456 90.3747 45.2788 89.9496 45.945C89.5246 46.6112 89.312 47.4149 89.312 48.3561C89.312 49.2602 89.5246 50.0137 89.9496 50.6165C90.3747 51.2193 91.0492 51.5207 91.973 51.5207ZM92.0325 43.7004C93.2057 43.7004 94.1975 44.0653 95.0079 44.7949C95.8184 45.5246 96.2236 46.598 96.2236 48.015C96.2236 49.3845 95.8666 50.516 95.1525 51.4096C94.4384 52.3032 93.3303 52.75 91.8284 52.75C90.5759 52.75 89.5813 52.3561 88.8445 51.5682C88.1077 50.7751 87.7393 49.7123 87.7393 48.3799C87.7393 46.9522 88.1275 45.8154 88.904 44.9694C89.6804 44.1234 90.7233 43.7004 92.0325 43.7004Z" fill="white"/>
<path d="M61.4686 111.769H63.0313V114.308H64.4996V115.556H63.0313V121.491C63.0313 121.808 63.1401 122.021 63.3576 122.128C63.4778 122.19 63.6782 122.222 63.9586 122.222C64.0331 122.222 64.1132 122.222 64.1991 122.222C64.2849 122.216 64.3851 122.207 64.4996 122.196V123.402C64.3221 123.453 64.1361 123.49 63.9415 123.512C63.7526 123.535 63.5465 123.546 63.3233 123.546C62.602 123.546 62.1126 123.365 61.855 123.003C61.5974 122.635 61.4686 122.159 61.4686 121.576V115.556H60.2236V114.308H61.4686V111.769Z" fill="white"/>
<path d="M66.0537 110.886H67.5992V115.539C67.9655 115.081 68.2947 114.758 68.5866 114.571C69.0846 114.248 69.7057 114.087 70.4498 114.087C71.7835 114.087 72.688 114.548 73.1631 115.471C73.4206 115.975 73.5494 116.674 73.5494 117.568V123.402H71.961V117.67C71.961 117.002 71.8751 116.513 71.7034 116.201C71.4229 115.703 70.8963 115.454 70.1235 115.454C69.4824 115.454 68.9014 115.672 68.3805 116.108C67.8596 116.544 67.5992 117.367 67.5992 118.579V123.402H66.0537V110.886Z" fill="white"/>
<path d="M75.842 114.35H77.4132V123.402H75.842V114.35ZM75.842 110.928H77.4132V112.661H75.842V110.928Z" fill="white"/>
<path d="M80.676 120.549C80.7218 121.058 80.8506 121.449 81.0624 121.721C81.4516 122.213 82.1271 122.459 83.0887 122.459C83.6611 122.459 84.1649 122.338 84.5999 122.094C85.0349 121.845 85.2524 121.463 85.2524 120.948C85.2524 120.557 85.0779 120.26 84.7287 120.056C84.5054 119.932 84.0647 119.787 83.4064 119.623L82.1786 119.318C81.3944 119.125 80.8162 118.91 80.4442 118.672C79.7802 118.259 79.4482 117.687 79.4482 116.957C79.4482 116.097 79.7601 115.4 80.3841 114.868C81.0137 114.336 81.858 114.07 82.917 114.07C84.3022 114.07 85.3011 114.472 85.9136 115.276C86.2971 115.785 86.4831 116.334 86.4717 116.923H85.012C84.9834 116.578 84.8603 116.264 84.6428 115.981C84.2879 115.579 83.6726 115.378 82.7968 115.378C82.2129 115.378 81.7693 115.488 81.4659 115.709C81.1683 115.93 81.0194 116.221 81.0194 116.583C81.0194 116.98 81.2169 117.297 81.6119 117.534C81.8409 117.676 82.1786 117.801 82.6251 117.908L83.6468 118.154C84.7573 118.42 85.5014 118.678 85.8792 118.927C86.4803 119.318 86.7808 119.932 86.7808 120.77C86.7808 121.579 86.4688 122.278 85.8449 122.867C85.2267 123.456 84.2822 123.75 83.0114 123.75C81.6434 123.75 80.6731 123.444 80.1007 122.833C79.534 122.216 79.2306 121.455 79.1906 120.549H80.676Z" fill="white"/>
<path d="M93.4437 114.35H95.015V123.402H93.4437V114.35ZM93.4437 110.928H95.015V112.661H93.4437V110.928Z" fill="white"/>
<path d="M98.2777 120.549C98.3235 121.058 98.4523 121.449 98.6641 121.721C99.0534 122.213 99.7288 122.459 100.69 122.459C101.263 122.459 101.767 122.338 102.202 122.094C102.637 121.845 102.854 121.463 102.854 120.948C102.854 120.557 102.68 120.26 102.33 120.056C102.107 119.932 101.666 119.787 101.008 119.623L99.7803 119.318C98.9961 119.125 98.418 118.91 98.0459 118.672C97.3819 118.259 97.0499 117.687 97.0499 116.957C97.0499 116.097 97.3619 115.4 97.9858 114.868C98.6155 114.336 99.4598 114.07 100.519 114.07C101.904 114.07 102.903 114.472 103.515 115.276C103.899 115.785 104.085 116.334 104.073 116.923H102.614C102.585 116.578 102.462 116.264 102.245 115.981C101.89 115.579 101.274 115.378 100.399 115.378C99.8147 115.378 99.371 115.488 99.0677 115.709C98.77 115.93 98.6212 116.221 98.6212 116.583C98.6212 116.98 98.8187 117.297 99.2136 117.534C99.4426 117.676 99.7803 117.801 100.227 117.908L101.249 118.154C102.359 118.42 103.103 118.678 103.481 118.927C104.082 119.318 104.383 119.932 104.383 120.77C104.383 121.579 104.071 122.278 103.447 122.867C102.828 123.456 101.884 123.75 100.613 123.75C99.2451 123.75 98.2749 123.444 97.7025 122.833C97.1358 122.216 96.8324 121.455 96.7923 120.549H98.2777Z" fill="white"/>
<path d="M111.432 112.924C111.455 112.29 111.566 111.826 111.767 111.531C112.127 111.01 112.823 110.75 113.853 110.75C113.95 110.75 114.051 110.753 114.154 110.758C114.257 110.764 114.374 110.773 114.506 110.784V112.177C114.345 112.165 114.228 112.16 114.154 112.16C114.085 112.154 114.019 112.151 113.956 112.151C113.487 112.151 113.206 112.273 113.115 112.516C113.023 112.754 112.977 113.365 112.977 114.35H114.506V115.556H112.96V123.402H111.432V115.556H110.152V114.35H111.432V112.924Z" fill="white"/>
<path d="M117.485 114.308V120.345C117.485 120.809 117.56 121.188 117.708 121.483C117.983 122.026 118.495 122.298 119.245 122.298C120.321 122.298 121.054 121.823 121.443 120.871C121.655 120.362 121.761 119.663 121.761 118.774V114.308H123.307V123.402H121.847L121.864 122.06C121.664 122.406 121.415 122.697 121.117 122.935C120.527 123.41 119.812 123.648 118.971 123.648C117.66 123.648 116.767 123.215 116.292 122.349C116.034 121.885 115.905 121.265 115.905 120.489V114.308H117.485Z" fill="white"/>
<path d="M125.728 114.308H127.196V115.598C127.631 115.066 128.092 114.684 128.578 114.452C129.065 114.22 129.606 114.104 130.201 114.104C131.506 114.104 132.388 114.554 132.846 115.454C133.098 115.947 133.224 116.651 133.224 117.568V123.402H131.652V117.67C131.652 117.116 131.569 116.668 131.403 116.329C131.129 115.763 130.631 115.48 129.909 115.48C129.543 115.48 129.242 115.516 129.008 115.59C128.584 115.715 128.212 115.964 127.892 116.337C127.634 116.637 127.465 116.949 127.385 117.271C127.311 117.588 127.273 118.044 127.273 118.638V123.402H125.728V114.308Z" fill="white"/>
<path d="M109.724 73.75H111.236V78.5831C111.595 78.1069 111.917 77.7717 112.203 77.5777C112.69 77.2425 113.298 77.075 114.026 77.075C115.331 77.075 116.217 77.5542 116.682 78.5126C116.934 79.0358 117.06 79.762 117.06 80.691V86.75H115.505V80.7968C115.505 80.103 115.421 79.5944 115.253 79.271C114.979 78.7536 114.463 78.4949 113.707 78.4949C113.079 78.4949 112.511 78.7213 112.001 79.174C111.491 79.6268 111.236 80.4822 111.236 81.7405V86.75H109.724V73.75Z" fill="white"/>
<path d="M119.303 77.3484H120.841V86.75H119.303V77.3484ZM119.303 73.7941H120.841V75.5933H119.303V73.7941Z" fill="white"/>
<path d="M124.018 73.7941H125.724V78.0539L125.312 83.6632H124.455L124.018 78.0539V73.7941ZM124.018 84.9155H125.69V86.75H124.018V84.9155Z" fill="white"/>
<circle cx="105.185" cy="152.475" r="13.5" fill="#E42656"/>
<circle cx="75.7236" cy="80.25" r="13.5" fill="#67BFD3"/>
</svg>
