<svg width="102" height="102" viewBox="0 0 102 102" fill="none" xmlns="http://www.w3.org/2000/svg">
<path fill-rule="evenodd" clip-rule="evenodd" d="M51 85C69.7777 85 85 69.7777 85 51C85 32.2223 69.7777 17 51 17C32.2223 17 17 32.2223 17 51C17 69.7777 32.2223 85 51 85ZM51 93.5C74.4721 93.5 93.5 74.4721 93.5 51C93.5 27.5279 74.4721 8.5 51 8.5C27.5279 8.5 8.5 27.5279 8.5 51C8.5 74.4721 27.5279 93.5 51 93.5Z" fill="url(#paint0_linear)"/>
<path fill-rule="evenodd" clip-rule="evenodd" d="M44.4975 68L29.75 53.125L35.7 47.1325L44.4975 55.9725L66.3 34L72.25 39.9925L44.4975 68Z" fill="url(#paint1_linear)"/>
<defs>
<linearGradient id="paint0_linear" x1="100.412" y1="55.3214" x2="34.4294" y2="-11.7665" gradientUnits="userSpaceOnUse">
<stop stop-color="#521576"/>
<stop offset="1" stop-color="#E42656"/>
</linearGradient>
<linearGradient id="paint1_linear" x1="75.7059" y1="52.7285" x2="50.0502" y2="20.1217" gradientUnits="userSpaceOnUse">
<stop stop-color="#521576"/>
<stop offset="1" stop-color="#E42656"/>
</linearGradient>
</defs>
</svg>
