<svg width="26" height="23" viewBox="0 0 26 23" fill="none" xmlns="http://www.w3.org/2000/svg">
<path d="M2.96 23H23.04C25.0933 23 26.3733 20.7734 25.3467 19L15.3067 1.65336C14.28 -0.119969 11.72 -0.119969 10.6933 1.65336L0.653332 19C-0.373334 20.7734 0.906665 23 2.96 23ZM13 13.6667C12.2667 13.6667 11.6667 13.0667 11.6667 12.3334V9.6667C11.6667 8.93336 12.2667 8.33336 13 8.33336C13.7333 8.33336 14.3333 8.93336 14.3333 9.6667V12.3334C14.3333 13.0667 13.7333 13.6667 13 13.6667ZM14.3333 19H11.6667V16.3334H14.3333V19Z" fill="url(#paint0_linear)"/>
<defs>
<linearGradient id="paint0_linear" x1="27.7753" y1="12.8146" x2="10.3191" y2="-7.07889" gradientUnits="userSpaceOnUse">
<stop stop-color="#521576"/>
<stop offset="1" stop-color="#E42656"/>
</linearGradient>
</defs>
</svg>
