<svg width="16" height="16" viewBox="0 0 16 16" fill="none" xmlns="http://www.w3.org/2000/svg">
<g opacity="0.5">
<circle cx="8" cy="8" r="7.5" stroke="white"/>
<path d="M7.64202 9.49399C7.58802 9.49399 7.54302 9.47599 7.50702 9.43999C7.47102 9.40399 7.45302 9.36199 7.45302 9.31399C7.45302 9.18799 7.45602 9.09199 7.46202 9.02599C7.49202 8.74399 7.58202 8.49499 7.73202 8.27899C7.88202 8.06299 8.08902 7.82299 8.35302 7.55899C8.55702 7.35499 8.70702 7.18699 8.80302 7.05499C8.90502 6.92299 8.96202 6.78499 8.97402 6.64099C8.99802 6.39499 8.91702 6.19999 8.73102 6.05599C8.55102 5.91199 8.33202 5.83999 8.07402 5.83999C7.49202 5.83999 7.14102 6.13099 7.02102 6.71299C6.97902 6.85099 6.89202 6.91999 6.76002 6.91999H5.97702C5.91702 6.91999 5.86602 6.89899 5.82402 6.85699C5.78802 6.81499 5.77002 6.76099 5.77002 6.69499C5.78202 6.36499 5.88102 6.05599 6.06702 5.76799C6.25902 5.47999 6.53202 5.24899 6.88602 5.07499C7.24002 4.89499 7.65702 4.80499 8.13702 4.80499C8.63502 4.80499 9.04302 4.88599 9.36102 5.04799C9.68502 5.20399 9.91902 5.40499 10.063 5.65099C10.213 5.89699 10.288 6.15199 10.288 6.41599C10.288 6.71599 10.219 6.97699 10.081 7.19899C9.94902 7.42099 9.75102 7.67599 9.48702 7.96399C9.29502 8.16799 9.14502 8.34499 9.03702 8.49499C8.93502 8.63899 8.86602 8.79499 8.83002 8.96299C8.80602 9.11299 8.79102 9.21499 8.78502 9.26899C8.75502 9.34699 8.72202 9.40399 8.68602 9.43999C8.65002 9.47599 8.59902 9.49399 8.53302 9.49399H7.64202ZM7.61502 11.195C7.55502 11.195 7.50402 11.174 7.46202 11.132C7.42002 11.09 7.39902 11.039 7.39902 10.979V10.178C7.39902 10.118 7.42002 10.067 7.46202 10.025C7.50402 9.98299 7.55502 9.96199 7.61502 9.96199H8.50602C8.56602 9.96199 8.61702 9.98299 8.65902 10.025C8.70702 10.067 8.73102 10.118 8.73102 10.178V10.979C8.73102 11.039 8.71002 11.09 8.66802 11.132C8.62602 11.174 8.57202 11.195 8.50602 11.195H7.61502Z" fill="white"/>
</g>
</svg>
