<svg width="33" height="25" viewBox="0 0 33 25" fill="none" xmlns="http://www.w3.org/2000/svg">
<path d="M19.9208 8.95549L13.436 17.2504L10.0102 12.8688C9.94787 12.7888 9.86817 12.7242 9.77719 12.6797C9.68621 12.6353 9.58633 12.6121 9.48513 12.6121C9.38392 12.6121 9.28405 12.6353 9.19306 12.6797C9.10208 12.7242 9.02238 12.7888 8.96001 12.8688L0.641462 23.505C0.564502 23.6036 0.51675 23.7219 0.503665 23.8465C0.49058 23.971 0.512691 24.0967 0.567469 24.2092C0.622247 24.3217 0.707479 24.4165 0.813426 24.4828C0.919373 24.549 1.04176 24.5839 1.16658 24.5837H31.8318C32.3903 24.5837 32.6987 23.9398 32.357 23.505L20.9794 8.95549C20.9162 8.87541 20.8357 8.81071 20.7441 8.76624C20.6524 8.72177 20.5519 8.69866 20.4501 8.69866C20.3483 8.69866 20.2478 8.72177 20.1561 8.76624C20.0645 8.81071 19.984 8.87541 19.9208 8.95549ZM3.82552 3.34472C3.82552 4.23179 4.17679 5.08253 4.80205 5.70979C5.42731 6.33705 6.27535 6.68943 7.1596 6.68943C8.04386 6.68943 8.89189 6.33705 9.51716 5.70979C10.1424 5.08253 10.4937 4.23179 10.4937 3.34472C10.4937 2.45764 10.1424 1.6069 9.51716 0.979645C8.89189 0.352388 8.04386 0 7.1596 0C6.27535 0 5.42731 0.352388 4.80205 0.979645C4.17679 1.6069 3.82552 2.45764 3.82552 3.34472Z" fill="black" fill-opacity="0.08"/>
</svg>
