<svg width="120" height="120" viewBox="0 0 120 120" fill="none" xmlns="http://www.w3.org/2000/svg">
<ellipse cx="37.9565" cy="42.9565" rx="31.9565" ry="31.9565" fill="#F0F0F0"/>
<circle cx="95.5" cy="57.5" r="17.5" fill="#F0F0F0"/>
<path d="M97 60C97 54.9262 92.8514 50.8 87.75 50.8H83.125V37C83.125 24.3178 72.7511 14 60 14C47.2489 14 36.875 24.3178 36.875 37V50.8H32.25C27.1486 50.8 23 54.9262 23 60V96.8C23 101.874 27.1486 106 32.25 106H87.75C92.8514 106 97 101.874 97 96.8V60ZM46.125 37C46.125 29.3916 52.3503 23.2 60 23.2C67.6497 23.2 73.875 29.3916 73.875 37V50.8H46.125V37Z" fill="#521C74"/>
<circle cx="9.26087" cy="75.2609" r="3.26087" fill="#B3B3B3"/>
</svg>
