<svg width="19" height="15" viewBox="0 0 19 15" fill="none" xmlns="http://www.w3.org/2000/svg">
<path d="M16.4651 6.87362C17.0965 6.87362 17.6419 6.71453 18.1957 6.43479V13.0443C18.1957 13.0802 18.2064 13.1155 18.2036 13.1507L12.6539 7.97335L14.4327 6.25876C15.0171 6.64665 15.7134 6.87362 16.4651 6.87362ZM13.5695 5.45198C13.0725 4.81917 12.7749 4.02244 12.7749 3.1587C12.7749 2.51663 12.9408 1.92914 13.2294 1.37536H1.30534C0.989686 1.37536 0.702353 1.49348 0.480049 1.68651L9.11769 9.73524L13.5695 5.45198ZM0 2.88584V13.0443C0 13.159 0.0294295 13.27 0.0572768 13.3766L5.56811 8.0682L0 2.88584ZM9.53556 10.9798C9.42077 11.0903 9.27251 11.1456 9.12418 11.1456C8.97893 11.1456 8.83368 11.0926 8.71968 10.9864L6.45741 8.87831L0.858361 14.2653C0.997518 14.3188 1.14767 14.3496 1.30542 14.3496H16.9432C17.1743 14.3496 17.39 14.2857 17.5765 14.176L11.8041 8.79722L9.53556 10.9798ZM19 3.16859C19 4.55723 17.8703 5.68694 16.4816 5.68694C15.0929 5.68694 13.9632 4.55723 13.9632 3.16859C13.9632 1.77986 15.0929 0.650146 16.4816 0.650146C17.8703 0.650146 19 1.77986 19 3.16859ZM17.2811 3.15537L17.6727 2.76385C17.9044 2.53205 17.9044 2.15643 17.6727 1.92471C17.4409 1.69307 17.0652 1.69307 16.8335 1.92471L16.442 2.31624L16.0505 1.92471C15.8187 1.69307 15.4431 1.69307 15.2113 1.92471C14.9796 2.15651 14.9796 2.53213 15.2113 2.76385L15.6029 3.15537L15.2113 3.5469C14.9796 3.77869 14.9796 4.15432 15.2113 4.38603C15.3272 4.50185 15.4791 4.55976 15.631 4.55976C15.7828 4.55976 15.9347 4.50185 16.0506 4.38603L16.4421 3.99451L16.8336 4.38603C16.9495 4.50185 17.1014 4.55976 17.2532 4.55976C17.405 4.55976 17.5569 4.50185 17.6728 4.38603C17.9045 4.15424 17.9045 3.77861 17.6728 3.5469L17.2811 3.15537Z" fill="url(#paint0_linear)"/>
<defs>
<linearGradient id="paint0_linear" x1="20.545" y1="8.19634" x2="10.5078" y2="-5.95758" gradientUnits="userSpaceOnUse">
<stop stop-color="#521576"/>
<stop offset="1" stop-color="#E42656"/>
</linearGradient>
</defs>
</svg>
