<svg width="12" height="12" viewBox="0 0 12 12" fill="none" xmlns="http://www.w3.org/2000/svg">
<path d="M5.73476 8.85914C5.63651 8.85914 5.5579 8.82967 5.49895 8.77071C5.44 8.71176 5.41052 8.63316 5.41052 8.53491V7.93066C5.43017 7.40992 5.56282 6.95795 5.80845 6.57477C6.0639 6.19158 6.42253 5.76418 6.88431 5.29257C7.23802 4.92904 7.49839 4.62937 7.66542 4.39356C7.84228 4.15775 7.94544 3.90229 7.97492 3.62719C7.98474 3.58789 7.98966 3.52402 7.98966 3.4356C7.98966 2.98363 7.79806 2.62501 7.41488 2.35973C7.03169 2.09445 6.58464 1.96181 6.07373 1.96181C5.52351 1.96181 5.06173 2.10918 4.68837 2.40394C4.32483 2.68887 4.08903 3.14084 3.98095 3.75983C3.94165 3.97599 3.81392 4.08406 3.59776 4.08406H2.94929C2.86087 4.08406 2.78227 4.05459 2.71349 3.99564C2.65454 3.93668 2.62506 3.85808 2.62506 3.75983C2.64471 3.21944 2.797 2.72326 3.08194 2.2713C3.37669 1.80951 3.78444 1.44598 4.30518 1.1807C4.83575 0.90559 5.44 0.768036 6.11794 0.768036C6.83519 0.768036 7.43944 0.890851 7.9307 1.13648C8.42197 1.38211 8.7855 1.70635 9.02131 2.10918C9.25712 2.5022 9.37502 2.91977 9.37502 3.36191C9.37502 3.86299 9.26203 4.29531 9.03605 4.65884C8.81007 5.02238 8.4711 5.44486 8.01913 5.9263C7.64577 6.32914 7.36575 6.67302 7.17907 6.95795C6.99239 7.23306 6.88431 7.54256 6.85484 7.88644C6.83519 8.16155 6.82536 8.36788 6.82536 8.50543C6.77624 8.74124 6.65342 8.85914 6.45692 8.85914H5.73476ZM5.60212 11.2319C5.50386 11.2319 5.42035 11.2025 5.35157 11.1435C5.29262 11.0747 5.26314 10.9912 5.26314 10.893V10.0382C5.26314 9.93992 5.29262 9.85641 5.35157 9.78763C5.42035 9.71885 5.50386 9.68446 5.60212 9.68446H6.51587C6.61412 9.68446 6.69763 9.71885 6.76641 9.78763C6.83519 9.85641 6.86958 9.93992 6.86958 10.0382V10.893C6.86958 10.9912 6.83519 11.0747 6.76641 11.1435C6.69763 11.2025 6.61412 11.2319 6.51587 11.2319H5.60212Z" fill="white"/>
</svg>
