<svg width="285" height="96" viewBox="0 0 285 96" fill="none" xmlns="http://www.w3.org/2000/svg">
<g id="brand/logo-lockup--circle">
<g id="logo-icon">
<g id="Frame">
<path id="Oval" fill-rule="evenodd" clip-rule="evenodd" d="M48 96C74.5097 96 96 74.5097 96 48C96 21.4903 74.5097 0 48 0C21.4903 0 0 21.4903 0 48C0 74.5097 21.4903 96 48 96Z" fill="#521C74"/>
<path id="Fill 1" fill-rule="evenodd" clip-rule="evenodd" d="M27.7276 62C27.5596 62.2251 27.4101 62.4386 27.2944 62.6308C27.0979 62.9583 27 63.4253 27 64.032V71.1785C27 71.6931 27.1842 72.1243 27.5534 72.4752C27.9234 72.8253 28.3781 73 28.9208 73H68.0792C68.6203 73 69.0766 72.837 69.445 72.5095C69.815 72.1835 70 71.7632 70 71.2487V63.8215C70 63.3084 69.815 62.8757 69.445 62.5255C69.0766 62.1754 68.6203 62 68.0792 62H45.4709H27.7276Z" fill="#67BFD3"/>
<path id="Fill 4" fill-rule="evenodd" clip-rule="evenodd" d="M68.3706 34C68.7823 33.3981 69 32.7377 69 32.0129V24.8457C69 24.3252 68.8167 23.8869 68.4508 23.5323C68.085 23.1777 67.6328 23 67.0966 23H29.8301C29.2923 23 28.8532 23.1777 28.5117 23.5323C28.1703 23.8869 28 24.3252 28 24.8457V32.2261C28 32.6992 28.1833 33.1131 28.5492 33.4677C28.915 33.8223 29.3412 34 29.8301 34H51.648H68.3706Z" fill="#67BFD3"/>
<path id="Fill 7" fill-rule="evenodd" clip-rule="evenodd" d="M67.6887 35.402C67.8067 35.2719 67.9041 35.1363 68 35H51.8494L29.3637 60.5309C29.2272 60.6966 29.1114 60.849 29 61H45.9805L67.6887 35.402Z" fill="#E42656"/>
</g>
</g>
<g id="brand/zbay-logotype">
<path id="Zbay type" fill-rule="evenodd" clip-rule="evenodd" d="M196.252 64.359C198.261 61.717 199.271 58.466 199.271 54.596C199.271 50.625 198.261 47.345 196.252 44.757C194.242 42.17 191.588 40.875 188.295 40.875C185.053 40.875 182.334 42.065 180.14 44.442C177.944 46.821 176.847 50.207 176.847 54.596C176.847 59.143 177.933 62.569 180.102 64.866C182.271 67.167 185.003 68.318 188.295 68.318C191.588 68.318 194.242 66.998 196.252 64.359ZM198.294 37.346C200.93 39.177 202.957 41.621 204.368 44.677C205.778 47.734 206.486 51.042 206.486 54.596C206.486 58.256 205.715 61.612 204.171 64.672C202.627 67.728 200.539 70.147 197.897 71.924C195.257 73.701 192.346 74.591 189.156 74.591C186.801 74.591 184.53 74.106 182.334 73.139C180.14 72.172 178.443 70.826 177.236 69.1L176.451 73.806H170.18V15H177.236V39.857C178.647 38.236 180.415 36.953 182.533 36.012C184.646 35.071 186.853 34.602 189.156 34.602C192.607 34.602 195.652 35.518 198.294 37.346ZM233.842 63.7688C232.693 65.3388 231.245 66.5928 229.49 67.5338C227.741 68.4748 225.923 68.9438 224.041 68.9438C222.209 68.9438 220.761 68.4618 219.689 67.4948C218.617 66.5288 218.081 65.0518 218.081 63.0638C218.081 60.1898 219.3 58.1128 221.73 56.8298C224.162 55.5508 228.201 54.8068 233.842 54.5958V63.7688ZM210.871 63.4558C210.871 66.6978 211.955 69.3648 214.125 71.4548C216.294 73.5448 219.153 74.5908 222.707 74.5908C227.307 74.5908 231.232 72.7088 234.473 68.9438C235.048 70.3058 235.66 71.3748 236.311 72.1598C236.969 72.9448 237.919 73.5448 239.176 73.9628C240.427 74.3808 242.156 74.5908 244.351 74.5908H244.899L245.997 68.9438H245.289C243.981 68.9438 243.017 68.6568 242.392 68.0828C241.761 67.5088 241.358 66.6848 241.174 65.6128C240.988 64.5408 240.899 62.9588 240.899 60.8688V53.0268C240.899 48.3748 240.439 44.7158 239.527 42.0518C238.614 39.3848 237.178 37.4768 235.214 36.3278C233.255 35.1768 230.626 34.6018 227.333 34.6018C224.825 34.6018 222.42 34.9688 220.123 35.6998C217.819 36.4328 215.886 37.3998 214.322 38.5998L215.337 44.3238C217.219 43.0178 218.974 42.1158 220.594 41.6208C222.209 41.1228 223.83 40.8748 225.451 40.8748C228.38 40.8748 230.511 41.4908 231.844 42.7188C233.178 43.9468 233.842 46.2848 233.842 49.7348C227.728 49.8398 222.369 50.9368 217.768 53.0268C213.168 55.1198 210.871 58.5948 210.871 63.4558ZM245.608 35.3872L261.605 72.0802L252.742 92.7802H260.584L284.103 35.3872H276.268L265.446 63.9252L253.45 35.3872H245.608ZM123.529 25.6622V18.9212H161.789L131.913 67.0612H161.399V73.8062H120L149.715 25.6622H123.529Z" fill="black"/>
</g>
</g>
</svg>
