<?xml version="1.0" encoding="utf-8"?>
<!-- Generator: Adobe Illustrator 23.0.2, SVG Export Plug-In . SVG Version: 6.00 Build 0)  -->
<svg version="1.1" id="Layer_1" xmlns="http://www.w3.org/2000/svg" xmlns:xlink="http://www.w3.org/1999/xlink" x="0px" y="0px"
	 viewBox="0 0 493.3 490.2" style="enable-background:new 0 0 493.3 490.2;" xml:space="preserve">
<style type="text/css">
	.st0{fill:#231F20;}
	.st1{fill:#F4B728;}
</style>
<title>headerArtboard 7</title>
<path class="st0" d="M245.4,20C121.1,20,20,121.1,20,245.4s101.1,225.4,225.4,225.4s225.4-101.1,225.4-225.4S369.7,20,245.4,20z
	 M245.4,433.6c-103.8,0-188.2-84.4-188.2-188.2S141.6,57.2,245.4,57.2s188.2,84.4,188.2,188.2S349.2,433.6,245.4,433.6z"/>
<circle class="st1" cx="245.4" cy="245.4" r="177.6"/>
<polygon class="st0" points="165,315.5 165,349.9 226.5,349.9 226.5,387.6 264.3,387.6 264.3,349.9 325.8,349.9 325.8,304.4 
	230.4,304.4 325.8,175 325.8,140.6 264.3,140.6 264.3,103 226.5,103 226.5,140.6 165,140.6 165,186.2 260.4,186.2 "/>
</svg>
