<svg width="154" height="155" viewBox="0 0 154 155" fill="none" xmlns="http://www.w3.org/2000/svg">
<rect width="154" height="154" transform="translate(0 0.5)" fill="white"/>
<circle cx="77" cy="77.5" r="52" fill="#721C74"/>
<circle cx="77" cy="77.5" r="64.5" stroke="#721C74" stroke-opacity="0.1" stroke-width="25"/>
<path d="M86.178 65.0424L86.4464 70.2517C85.8718 70.3831 85.3078 70.5371 84.7538 70.7147C83.1504 71.2293 81.6216 71.9342 80.2178 72.8182C78.8147 73.7004 77.5446 74.7625 76.4641 75.9473C75.3824 77.1308 74.4914 78.4305 73.7896 79.773C73.7042 79.9367 73.6216 80.1001 73.5414 80.2644C74.0964 74.1313 74.6113 68.0024 75.1228 61.8779H81.751L69.6281 46.1055L57.5 61.8773H64.1479C65.3035 69.5783 66.4591 77.2745 67.5271 84.9676C68.0784 88.9409 68.5944 92.918 69.0793 96.9086L70.4957 108.895L71.8768 96.8943C72.0007 95.7822 72.1168 94.6682 72.2361 93.5542C72.7305 91.87 73.3286 90.2399 74.0637 88.7169C75.1423 86.4719 76.5311 84.4638 78.1793 82.9931C79.8231 81.5117 81.6923 80.6099 83.5828 80.2586C84.5281 80.08 85.4843 80.0301 86.4182 80.0944C86.5989 80.1071 86.7775 80.1279 86.9555 80.1487L87.2359 85.5874L104.5 74.3983L86.178 65.0424Z" fill="white"/>
</svg>
