<svg width="154" height="155" viewBox="0 0 154 155" fill="none" xmlns="http://www.w3.org/2000/svg">
<rect width="154" height="154" transform="translate(0 0.5)" fill="white"/>
<circle cx="77" cy="77.5" r="52" fill="#721C74"/>
<circle cx="77" cy="77.5" r="64.5" stroke="#721C74" stroke-opacity="0.1" stroke-width="25"/>
<path fill-rule="evenodd" clip-rule="evenodd" d="M63.2756 61.7474C66.9156 58.1074 71.8524 56.0625 77.0001 56.0625C82.1478 56.0625 87.0846 58.1074 90.7245 61.7474C94.3645 65.3873 96.4094 70.3242 96.4094 75.4718C96.4094 80.6195 94.3645 85.5563 90.7245 89.1963L77.0001 102.921L63.2756 89.1963C61.4732 87.394 60.0434 85.2544 59.0679 82.8995C58.0924 80.5447 57.5903 78.0207 57.5903 75.4718C57.5903 72.9229 58.0924 70.399 59.0679 68.0441C60.0434 65.6893 61.4732 63.5496 63.2756 61.7474ZM77.0001 81.0171C78.4708 81.0171 79.8812 80.4328 80.9212 79.3929C81.9611 78.353 82.5453 76.9425 82.5453 75.4718C82.5453 74.0011 81.9611 72.5907 80.9212 71.5508C79.8812 70.5108 78.4708 69.9266 77.0001 69.9266C75.5294 69.9266 74.1189 70.5108 73.079 71.5508C72.0391 72.5907 71.4548 74.0011 71.4548 75.4718C71.4548 76.9425 72.0391 78.353 73.079 79.3929C74.1189 80.4328 75.5294 81.0171 77.0001 81.0171Z" fill="white"/>
</svg>
