<svg width="154" height="155" viewBox="0 0 154 155" fill="none" xmlns="http://www.w3.org/2000/svg">
<rect width="154" height="154" transform="translate(0 0.5)" fill="white"/>
<circle cx="77" cy="77.5" r="52" fill="#721C74"/>
<circle cx="77" cy="77.5" r="64.5" stroke="#721C74" stroke-opacity="0.1" stroke-width="25"/>
<path d="M94 76.5004C94 74.1692 92.0939 72.2733 89.75 72.2733H87.625V65.9328C87.625 60.1058 82.8586 55.3652 77 55.3652C71.1414 55.3652 66.375 60.1058 66.375 65.9328V72.2733H64.25C61.9061 72.2733 60 74.1692 60 76.5004V93.4085C60 95.7397 61.9061 97.6355 64.25 97.6355H89.75C92.0939 97.6355 94 95.7397 94 93.4085V76.5004ZM70.625 65.9328C70.625 62.4371 73.4853 59.5923 77 59.5923C80.5148 59.5923 83.375 62.4371 83.375 65.9328V72.2733H70.625V65.9328Z" fill="white"/>
</svg>
