<svg width="116" height="35" viewBox="0 0 116 35" fill="none" xmlns="http://www.w3.org/2000/svg">
<path d="M58.0633 29.9408C57.8045 29.9408 57.5955 29.8512 57.4363 29.6721C57.277 29.5128 57.1476 29.3735 57.0481 29.2541L55.8239 27.582C54.749 28.0597 53.5049 28.2986 52.0916 28.2986C50.3797 28.2986 48.9167 28.01 47.7025 27.4327C46.5081 26.8355 45.5726 25.9298 44.8958 24.7156C44.2389 23.4815 43.8806 21.9388 43.8209 20.0876C43.801 19.2117 43.791 18.3757 43.791 17.5795C43.791 16.7633 43.801 15.9174 43.8209 15.0415C43.8806 13.2102 44.2588 11.6874 44.9555 10.4732C45.6522 9.23905 46.6076 8.32339 47.8219 7.72623C49.056 7.10916 50.4793 6.80062 52.0916 6.80062C53.7239 6.80062 55.1471 7.10916 56.3614 7.72623C57.5955 8.32339 58.5609 9.23905 59.2576 10.4732C59.9543 11.6874 60.3226 13.2102 60.3624 15.0415C60.4022 15.9174 60.4221 16.7633 60.4221 17.5795C60.4221 18.3757 60.4022 19.2117 60.3624 20.0876C60.2628 22.8345 59.5462 24.8748 58.2126 26.2085L60.1832 29.0152C60.2031 29.0351 60.223 29.065 60.2429 29.1048C60.2628 29.1645 60.2728 29.2441 60.2728 29.3436C60.2927 29.5029 60.2429 29.6422 60.1235 29.7617C60.0041 29.8811 59.8548 29.9408 59.6756 29.9408H58.0633ZM52.0916 25.7606C53.6044 25.7606 54.8485 25.3028 55.8239 24.3872C56.7993 23.4715 57.3268 21.9885 57.4064 19.9383C57.4462 19.0425 57.4661 18.2463 57.4661 17.5496C57.4661 16.833 57.4462 16.0368 57.4064 15.1609C57.3666 13.7875 57.1078 12.6728 56.6301 11.8168C56.1723 10.9609 55.5552 10.3339 54.7789 9.93574C54.0026 9.53763 53.1068 9.33858 52.0916 9.33858C51.1163 9.33858 50.2305 9.53763 49.4342 9.93574C48.6579 10.3339 48.0408 10.9609 47.583 11.8168C47.1252 12.6728 46.8664 13.7875 46.8067 15.1609C46.7868 16.0368 46.7768 16.833 46.7768 17.5496C46.7768 18.2463 46.7868 19.0425 46.8067 19.9383C46.8863 21.9885 47.4138 23.4715 48.3892 24.3872C49.3646 25.3028 50.5987 25.7606 52.0916 25.7606Z" fill="url(#paint0_linear_3711_12819)"/>
<path d="M70.2084 28.2986C68.9344 28.2986 67.8496 28.0199 66.9538 27.4626C66.078 26.8853 65.4111 26.0891 64.9533 25.0739C64.4955 24.0587 64.2666 22.8942 64.2666 21.5805V13.1604C64.2666 12.9614 64.3263 12.8021 64.4457 12.6827C64.5851 12.5434 64.7543 12.4737 64.9533 12.4737H66.4462C66.6453 12.4737 66.8045 12.5434 66.924 12.6827C67.0633 12.8021 67.133 12.9614 67.133 13.1604V21.4312C67.133 24.3971 68.4268 25.8801 71.0146 25.8801C72.2487 25.8801 73.234 25.4919 73.9705 24.7156C74.7269 23.9194 75.1051 22.8246 75.1051 21.4312V13.1604C75.1051 12.9614 75.1649 12.8021 75.2843 12.6827C75.4236 12.5434 75.5928 12.4737 75.7919 12.4737H77.2549C77.4739 12.4737 77.6431 12.5434 77.7625 12.6827C77.882 12.8021 77.9417 12.9614 77.9417 13.1604V27.3133C77.9417 27.5123 77.882 27.6815 77.7625 27.8209C77.6431 27.9403 77.4739 28 77.2549 28H75.8815C75.6824 28 75.5132 27.9403 75.3739 27.8209C75.2544 27.6815 75.1947 27.5123 75.1947 27.3133V25.9995C74.6573 26.6962 74.0004 27.2536 73.2241 27.6716C72.4677 28.0896 71.4624 28.2986 70.2084 28.2986Z" fill="url(#paint1_linear_3711_12819)"/>
<path d="M83.0642 28C82.8652 28 82.696 27.9403 82.5567 27.8209C82.4372 27.6815 82.3775 27.5123 82.3775 27.3133V13.1604C82.3775 12.9614 82.4372 12.8021 82.5567 12.6827C82.696 12.5434 82.8652 12.4737 83.0642 12.4737H84.4974C84.6965 12.4737 84.8557 12.5434 84.9752 12.6827C85.0946 12.8021 85.1543 12.9614 85.1543 13.1604V27.3133C85.1543 27.5123 85.0946 27.6815 84.9752 27.8209C84.8557 27.9403 84.6965 28 84.4974 28H83.0642ZM82.8254 9.57744C82.6263 9.57744 82.4571 9.51773 82.3178 9.39829C82.1984 9.25895 82.1386 9.08976 82.1386 8.8907V7.27836C82.1386 7.0793 82.1984 6.92005 82.3178 6.80062C82.4571 6.66128 82.6263 6.59161 82.8254 6.59161H84.7065C84.9055 6.59161 85.0648 6.66128 85.1842 6.80062C85.3235 6.92005 85.3932 7.0793 85.3932 7.27836V8.8907C85.3932 9.08976 85.3235 9.25895 85.1842 9.39829C85.0648 9.51773 84.9055 9.57744 84.7065 9.57744H82.8254Z" fill="url(#paint2_linear_3711_12819)"/>
<path d="M95.8478 28.2986C93.7975 28.2986 92.1653 27.6716 90.951 26.4175C89.7368 25.1436 89.07 23.4118 88.9505 21.2222C88.9306 20.9634 88.9207 20.635 88.9207 20.2369C88.9207 19.8188 88.9306 19.4804 88.9505 19.2217C89.0302 17.8084 89.3586 16.5742 89.9359 15.5192C90.5131 14.4443 91.2994 13.6183 92.2947 13.041C93.3098 12.4637 94.4942 12.1751 95.8478 12.1751C97.3606 12.1751 98.6246 12.4936 99.6398 13.1306C100.675 13.7676 101.461 14.6733 101.999 15.8477C102.536 17.0221 102.805 18.3956 102.805 19.9681V20.4757C102.805 20.6947 102.735 20.8639 102.596 20.9833C102.476 21.1027 102.317 21.1625 102.118 21.1625H91.7871C91.7871 21.1824 91.7871 21.2222 91.7871 21.2819C91.7871 21.3416 91.7871 21.3914 91.7871 21.4312C91.8269 22.2473 92.006 23.0137 92.3245 23.7303C92.643 24.427 93.1008 24.9943 93.698 25.4322C94.2952 25.8701 95.0118 26.0891 95.8478 26.0891C96.5644 26.0891 97.1616 25.9796 97.6393 25.7606C98.117 25.5417 98.5052 25.3028 98.8038 25.044C99.1024 24.7654 99.3014 24.5564 99.4009 24.417C99.5801 24.1582 99.7194 24.009 99.819 23.9691C99.9185 23.9094 100.078 23.8796 100.297 23.8796H101.73C101.929 23.8796 102.088 23.9393 102.208 24.0587C102.347 24.1582 102.407 24.3075 102.387 24.5066C102.367 24.8052 102.208 25.1734 101.909 25.6114C101.61 26.0294 101.182 26.4474 100.625 26.8654C100.068 27.2834 99.391 27.6318 98.5948 27.9104C97.7985 28.1692 96.8829 28.2986 95.8478 28.2986ZM91.7871 19.1022H99.9682V19.0127C99.9682 18.1169 99.799 17.3207 99.4607 16.624C99.1422 15.9273 98.6744 15.3799 98.0573 14.9818C97.4402 14.5638 96.7037 14.3548 95.8478 14.3548C94.9919 14.3548 94.2554 14.5638 93.6383 14.9818C93.0411 15.3799 92.5833 15.9273 92.2648 16.624C91.9463 17.3207 91.7871 18.1169 91.7871 19.0127V19.1022Z" fill="url(#paint3_linear_3711_12819)"/>
<path d="M112.349 28C111.234 28 110.328 27.791 109.632 27.373C108.935 26.9351 108.427 26.3279 108.109 25.5516C107.79 24.7554 107.631 23.8199 107.631 22.745V14.8624H105.302C105.103 14.8624 104.934 14.8026 104.795 14.6832C104.675 14.5439 104.615 14.3747 104.615 14.1756V13.1604C104.615 12.9614 104.675 12.8021 104.795 12.6827C104.934 12.5434 105.103 12.4737 105.302 12.4737H107.631V7.48736C107.631 7.28831 107.691 7.12906 107.81 7.00963C107.95 6.87029 108.119 6.80062 108.318 6.80062H109.721C109.92 6.80062 110.079 6.87029 110.199 7.00963C110.338 7.12906 110.408 7.28831 110.408 7.48736V12.4737H114.11C114.309 12.4737 114.469 12.5434 114.588 12.6827C114.727 12.8021 114.797 12.9614 114.797 13.1604V14.1756C114.797 14.3747 114.727 14.5439 114.588 14.6832C114.469 14.8026 114.309 14.8624 114.11 14.8624H110.408V22.5359C110.408 23.4715 110.567 24.208 110.886 24.7455C111.204 25.2829 111.771 25.5516 112.588 25.5516H114.409C114.608 25.5516 114.767 25.6213 114.887 25.7606C115.026 25.8801 115.096 26.0393 115.096 26.2384V27.3133C115.096 27.5123 115.026 27.6815 114.887 27.8209C114.767 27.9403 114.608 28 114.409 28H112.349Z" fill="url(#paint4_linear_3711_12819)"/>
<rect y="2" width="32" height="32" rx="16" fill="url(#paint5_linear_3711_12819)"/>
<path fill-rule="evenodd" clip-rule="evenodd" d="M16 10.0034C11.5836 10.0034 8.00341 13.5836 8.00341 18C8.00341 22.4164 11.5836 25.9966 16 25.9966C17.4631 25.9966 18.7458 25.7299 19.4336 25.2563L21.5148 27.5195C19.8922 28.4613 18.0068 29 16 29C9.92487 29 5 24.0751 5 18C5 11.9249 9.92487 7 16 7C22.0751 7 27 11.9249 27 18C27 20.2078 26.3746 22.2347 25.2522 23.9595L24.0569 22.7755L23.0532 21.7719C23.6552 20.6492 23.9966 19.3661 23.9966 18C23.9966 13.5836 20.4164 10.0034 16 10.0034Z" fill="#67BFD3"/>
<path fill-rule="evenodd" clip-rule="evenodd" d="M26.3901 28.5029C25.8037 29.0893 24.8529 29.0893 24.2664 28.5029L18.1459 22.3823C17.5594 21.7959 17.5594 20.845 18.1459 20.2586V20.2586C18.7323 19.6721 19.6831 19.6721 20.2696 20.2586L26.3901 26.3791C26.9766 26.9656 26.9766 27.9164 26.3901 28.5029V28.5029Z" fill="#E42656"/>
<defs>
<linearGradient id="paint0_linear_3711_12819" x1="120.894" y1="19.4533" x2="110.315" y2="-13.3948" gradientUnits="userSpaceOnUse">
<stop stop-color="#521576"/>
<stop offset="1" stop-color="#E42656"/>
</linearGradient>
<linearGradient id="paint1_linear_3711_12819" x1="120.894" y1="19.4533" x2="110.315" y2="-13.3948" gradientUnits="userSpaceOnUse">
<stop stop-color="#521576"/>
<stop offset="1" stop-color="#E42656"/>
</linearGradient>
<linearGradient id="paint2_linear_3711_12819" x1="120.894" y1="19.4533" x2="110.315" y2="-13.3948" gradientUnits="userSpaceOnUse">
<stop stop-color="#521576"/>
<stop offset="1" stop-color="#E42656"/>
</linearGradient>
<linearGradient id="paint3_linear_3711_12819" x1="120.894" y1="19.4533" x2="110.315" y2="-13.3948" gradientUnits="userSpaceOnUse">
<stop stop-color="#521576"/>
<stop offset="1" stop-color="#E42656"/>
</linearGradient>
<linearGradient id="paint4_linear_3711_12819" x1="120.894" y1="19.4533" x2="110.315" y2="-13.3948" gradientUnits="userSpaceOnUse">
<stop stop-color="#521576"/>
<stop offset="1" stop-color="#E42656"/>
</linearGradient>
<linearGradient id="paint5_linear_3711_12819" x1="34.6021" y1="19.6269" x2="9.76164" y2="-5.62974" gradientUnits="userSpaceOnUse">
<stop stop-color="#521576"/>
<stop offset="1" stop-color="#E42656"/>
</linearGradient>
</defs>
</svg>
