<svg width="38" height="38" viewBox="0 0 38 38" fill="none" xmlns="http://www.w3.org/2000/svg">
<path opacity="0.5" d="M17.4743 12.2488C18.3099 10.0657 18.2651 7.6434 17.3503 5.49203C16.4352 3.34096 14.7211 1.62856 12.5691 0.716166C10.4169 -0.196526 7.99467 -0.238358 5.81209 0.599278L10.7379 5.52506C10.8606 5.64842 10.9734 5.78121 11.0756 5.92194C11.796 6.87503 12.0089 8.11869 11.6465 9.2572C11.284 10.396 10.3917 11.2876 9.25247 11.6491C8.11366 12.0106 6.87031 11.7966 5.91752 11.0755C5.77678 10.9734 5.64429 10.8606 5.52093 10.7378L0.599293 5.81206C-0.238327 7.99463 -0.19657 10.4169 0.716182 12.5691C1.62857 14.7211 3.34097 16.4352 5.49204 17.3503C7.64342 18.2651 10.0657 18.3098 12.2489 17.4743L31.7072 36.9198C32.6384 37.851 33.9957 38.2147 35.2676 37.874C36.5396 37.533 37.5333 36.5393 37.8742 35.2674C38.2148 33.9955 37.8512 32.6382 36.92 31.707L17.4743 12.2488Z" fill="black"/>
</svg>
