<svg width="16" height="16" viewBox="0 0 16 16" fill="none" xmlns="http://www.w3.org/2000/svg">
<path fill-rule="evenodd" clip-rule="evenodd" d="M7.9987 1.99707C8.36689 1.99707 8.66536 2.29516 8.66536 2.66287V9.37798L10.5273 7.51848C10.7876 7.25846 11.2098 7.25846 11.4701 7.51848C11.7305 7.77849 11.7305 8.20005 11.4701 8.46006L7.9987 11.9269L4.52729 8.46006C4.26694 8.20005 4.26694 7.77849 4.52729 7.51848C4.78764 7.25846 5.20975 7.25846 5.4701 7.51848L7.33203 9.37798L7.33203 2.66287C7.33203 2.29516 7.63051 1.99707 7.9987 1.99707ZM14.6654 13.3365C14.6654 13.7042 14.3669 14.0023 13.9987 14.0023L1.9987 14.0023C1.63051 14.0023 1.33203 13.7042 1.33203 13.3365C1.33203 12.9688 1.63051 12.6707 1.9987 12.6707L13.9987 12.6707C14.3669 12.6707 14.6654 12.9688 14.6654 13.3365Z" fill="white"/>
</svg>
