<svg width="24" height="24" viewBox="0 0 24 24" fill="none" xmlns="http://www.w3.org/2000/svg">
<path d="M15.2925 12.9875C15.2925 12.8915 15.2617 12.8126 15.2 12.7509C15.1382 12.6892 15.0594 12.6583 14.9634 12.6583H12.6594V9.03778C12.6594 8.94864 12.6268 8.8715 12.5617 8.80636C12.4966 8.74121 12.4194 8.70864 12.3303 8.70864H10.3554C10.2663 8.70864 10.1892 8.74121 10.124 8.80636C10.0589 8.8715 10.0263 8.94864 10.0263 9.03778V12.6583H7.72232C7.63318 12.6583 7.55604 12.6909 7.49089 12.756C7.42575 12.8212 7.39318 12.8983 7.39318 12.9875C7.39318 13.0835 7.42404 13.1623 7.48575 13.224L11.1063 16.8446C11.168 16.9063 11.2469 16.9371 11.3429 16.9371C11.4389 16.9371 11.5177 16.9063 11.5794 16.8446L15.1897 13.2343C15.2582 13.152 15.2925 13.0697 15.2925 12.9875ZM21.8753 15.2914C21.8753 16.3817 21.4896 17.3125 20.7182 18.084C19.9468 18.8554 19.0159 19.2411 17.9256 19.2411H6.7349C5.46634 19.2411 4.38121 18.7902 3.47951 17.8885C2.57781 16.9868 2.12695 15.9017 2.12695 14.6332C2.12695 13.7417 2.36695 12.9189 2.84695 12.1646C3.32694 11.4103 3.9715 10.8446 4.78064 10.4675C4.76692 10.2618 4.76007 10.1143 4.76007 10.0252C4.76007 8.5715 5.27435 7.33037 6.30291 6.30181C7.33147 5.27325 8.5726 4.75897 10.0263 4.75897C11.096 4.75897 12.0748 5.05725 12.9628 5.65382C13.8508 6.25038 14.4971 7.04238 14.9017 8.02979C15.3885 7.60466 15.9577 7.39209 16.6091 7.39209C17.3359 7.39209 17.9565 7.64923 18.4708 8.16351C18.9851 8.67779 19.2422 9.29835 19.2422 10.0252C19.2422 10.5463 19.1016 11.0195 18.8205 11.4446C19.7119 11.6572 20.4439 12.1217 21.0165 12.8383C21.589 13.5549 21.8753 14.3726 21.8753 15.2914Z" fill="white"/>
</svg>
