<svg width="285" height="82" viewBox="0 0 285 82" fill="none" xmlns="http://www.w3.org/2000/svg">
<path fill-rule="evenodd" clip-rule="evenodd" d="M39.3103 79.5345C61.0208 79.5345 78.6207 61.9347 78.6207 40.2242C78.6207 18.5137 61.0208 0.913818 39.3103 0.913818C17.5998 0.913818 0 18.5137 0 40.2242C0 61.9347 17.5998 79.5345 39.3103 79.5345ZM39.3111 22.3635C29.447 22.3635 21.4504 30.36 21.4504 40.2242C21.4504 50.0884 29.447 58.0849 39.3111 58.0849C42.5791 58.0849 45.444 57.4892 46.9803 56.4314L51.6287 61.4864C48.0047 63.5898 43.7933 64.7931 39.3111 64.7931C25.7421 64.7931 14.7422 53.7932 14.7422 40.2242C14.7422 26.6551 25.7421 15.6552 39.3111 15.6552C52.8802 15.6552 63.8801 26.6551 63.8801 40.2242C63.8801 45.1554 62.4832 49.6825 59.9763 53.535L57.3066 50.8905L55.0649 48.6488C56.4093 46.1412 57.1719 43.2754 57.1719 40.2242C57.1719 30.36 49.1754 22.3635 39.3111 22.3635ZM62.5202 63.6827C61.2103 64.9926 59.0866 64.9926 57.7767 63.6827L44.1062 50.0122C42.7963 48.7023 42.7963 46.5786 44.1062 45.2687C45.416 43.9589 47.5398 43.9589 48.8496 45.2687L62.5202 58.9393C63.83 60.2491 63.83 62.3728 62.5202 63.6827Z" fill="white"/>
<path d="M142.657 69.5614C142.022 69.5614 141.508 69.3414 141.117 68.9012C140.725 68.51 140.408 68.1676 140.163 67.8742L137.155 63.7661C134.514 64.9398 131.458 65.5267 127.986 65.5267C123.78 65.5267 120.185 64.8176 117.202 63.3993C114.267 61.9321 111.969 59.7069 110.306 56.7237C108.692 53.6915 107.812 49.9013 107.665 45.353C107.616 43.2012 107.592 41.1471 107.592 39.1909C107.592 37.1858 107.616 35.1073 107.665 32.9554C107.812 28.4561 108.741 24.7148 110.453 21.7315C112.164 18.6994 114.512 16.4497 117.495 14.9825C120.527 13.4664 124.024 12.7084 127.986 12.7084C131.996 12.7084 135.493 13.4664 138.476 14.9825C141.508 16.4497 143.88 18.6994 145.592 21.7315C147.303 24.7148 148.208 28.4561 148.306 32.9554C148.404 35.1073 148.453 37.1858 148.453 39.1909C148.453 41.1471 148.404 43.2012 148.306 45.353C148.061 52.1021 146.301 57.1149 143.024 60.3916L147.866 67.2873C147.915 67.3362 147.964 67.4096 148.012 67.5074C148.061 67.6541 148.086 67.8497 148.086 68.0943C148.135 68.4855 148.012 68.8278 147.719 69.1213C147.426 69.4147 147.059 69.5614 146.619 69.5614H142.657ZM127.986 59.2912C131.702 59.2912 134.759 58.1664 137.155 55.9167C139.552 53.667 140.848 50.0236 141.043 44.9862C141.141 42.7855 141.19 40.8293 141.19 39.1175C141.19 37.3569 141.141 35.4007 141.043 33.2488C140.946 29.8743 140.31 27.1356 139.136 25.0327C138.011 22.9297 136.495 21.3892 134.588 20.4111C132.68 19.4329 130.48 18.9439 127.986 18.9439C125.589 18.9439 123.413 19.4329 121.457 20.4111C119.549 21.3892 118.033 22.9297 116.908 25.0327C115.784 27.1356 115.148 29.8743 115.001 33.2488C114.952 35.4007 114.928 37.3569 114.928 39.1175C114.928 40.8293 114.952 42.7855 115.001 44.9862C115.197 50.0236 116.493 53.667 118.889 55.9167C121.285 58.1664 124.318 59.2912 127.986 59.2912Z" fill="white"/>
<path d="M172.497 65.5267C169.367 65.5267 166.701 64.842 164.5 63.4727C162.349 62.0544 160.71 60.0982 159.585 57.604C158.461 55.1098 157.898 52.2488 157.898 49.021V28.3338C157.898 27.8448 158.045 27.4535 158.338 27.1601C158.681 26.8177 159.096 26.6466 159.585 26.6466H163.253C163.742 26.6466 164.134 26.8177 164.427 27.1601C164.769 27.4535 164.941 27.8448 164.941 28.3338V48.6542C164.941 55.9412 168.119 59.5846 174.477 59.5846C177.509 59.5846 179.93 58.631 181.74 56.7237C183.598 54.7674 184.527 52.0776 184.527 48.6542V28.3338C184.527 27.8448 184.674 27.4535 184.968 27.1601C185.31 26.8177 185.726 26.6466 186.215 26.6466H189.809C190.347 26.6466 190.763 26.8177 191.056 27.1601C191.35 27.4535 191.496 27.8448 191.496 28.3338V63.1059C191.496 63.5949 191.35 64.0106 191.056 64.353C190.763 64.6464 190.347 64.7931 189.809 64.7931H186.435C185.946 64.7931 185.53 64.6464 185.188 64.353C184.894 64.0106 184.747 63.5949 184.747 63.1059V59.8781C183.427 61.5898 181.813 62.9591 179.906 63.9862C178.047 65.0132 175.578 65.5267 172.497 65.5267Z" fill="white"/>
<path d="M204.082 64.7931C203.593 64.7931 203.177 64.6464 202.835 64.353C202.542 64.0106 202.395 63.5949 202.395 63.1059V28.3338C202.395 27.8448 202.542 27.4535 202.835 27.1601C203.177 26.8177 203.593 26.6466 204.082 26.6466H207.603C208.092 26.6466 208.484 26.8177 208.777 27.1601C209.07 27.4535 209.217 27.8448 209.217 28.3338V63.1059C209.217 63.5949 209.07 64.0106 208.777 64.353C208.484 64.6464 208.092 64.7931 207.603 64.7931H204.082ZM203.495 19.5308C203.006 19.5308 202.59 19.384 202.248 19.0906C201.955 18.7483 201.808 18.3326 201.808 17.8435V13.8821C201.808 13.3931 201.955 13.0018 202.248 12.7084C202.59 12.3661 203.006 12.1949 203.495 12.1949H208.117C208.606 12.1949 208.997 12.3661 209.291 12.7084C209.633 13.0018 209.804 13.3931 209.804 13.8821V17.8435C209.804 18.3326 209.633 18.7483 209.291 19.0906C208.997 19.384 208.606 19.5308 208.117 19.5308H203.495Z" fill="white"/>
<path d="M235.49 65.5267C230.453 65.5267 226.442 63.9862 223.459 60.9051C220.476 57.7751 218.837 53.5203 218.544 48.1407C218.495 47.5049 218.471 46.698 218.471 45.7198C218.471 44.6928 218.495 43.8614 218.544 43.2256C218.74 39.7533 219.547 36.7212 220.965 34.1292C222.383 31.4882 224.315 29.4586 226.76 28.0404C229.254 26.6221 232.164 25.913 235.49 25.913C239.207 25.913 242.312 26.6955 244.806 28.2605C247.35 29.8254 249.281 32.0507 250.602 34.9361C251.922 37.8215 252.583 41.196 252.583 45.0596V46.3067C252.583 46.8447 252.411 47.2604 252.069 47.5538C251.776 47.8472 251.384 47.994 250.895 47.994H225.513C225.513 48.0429 225.513 48.1407 225.513 48.2874C225.513 48.4341 225.513 48.5564 225.513 48.6542C225.611 50.6593 226.051 52.5422 226.834 54.3028C227.616 56.0145 228.741 57.4083 230.208 58.4843C231.675 59.5602 233.436 60.0982 235.49 60.0982C237.251 60.0982 238.718 59.8292 239.891 59.2912C241.065 58.7532 242.019 58.1664 242.752 57.5306C243.486 56.8459 243.975 56.3324 244.22 55.9901C244.66 55.3543 245.002 54.9875 245.247 54.8897C245.491 54.743 245.882 54.6696 246.42 54.6696H249.942C250.431 54.6696 250.822 54.8163 251.115 55.1098C251.458 55.3543 251.604 55.7211 251.555 56.2101C251.507 56.9437 251.115 57.8485 250.382 58.9244C249.648 59.9514 248.597 60.9785 247.227 62.0055C245.858 63.0325 244.195 63.8884 242.239 64.573C240.283 65.2088 238.033 65.5267 235.49 65.5267ZM225.513 42.9322H245.613V42.7121C245.613 40.5114 245.198 38.5551 244.366 36.8434C243.584 35.1317 242.435 33.7868 240.918 32.8087C239.402 31.7817 237.593 31.2682 235.49 31.2682C233.387 31.2682 231.577 31.7817 230.061 32.8087C228.594 33.7868 227.469 35.1317 226.687 36.8434C225.904 38.5551 225.513 40.5114 225.513 42.7121V42.9322Z" fill="white"/>
<path d="M276.031 64.7931C273.292 64.7931 271.067 64.2796 269.355 63.2526C267.644 62.1767 266.396 60.685 265.614 58.7777C264.832 56.8215 264.44 54.5229 264.44 51.882V32.5153H258.718C258.229 32.5153 257.814 32.3685 257.471 32.0751C257.178 31.7328 257.031 31.3171 257.031 30.828V28.3338C257.031 27.8448 257.178 27.4535 257.471 27.1601C257.814 26.8177 258.229 26.6466 258.718 26.6466H264.44V14.3956C264.44 13.9066 264.587 13.5153 264.88 13.2219C265.223 12.8796 265.638 12.7084 266.128 12.7084H269.575C270.064 12.7084 270.456 12.8796 270.749 13.2219C271.091 13.5153 271.263 13.9066 271.263 14.3956V26.6466H280.359C280.848 26.6466 281.239 26.8177 281.533 27.1601C281.875 27.4535 282.046 27.8448 282.046 28.3338V30.828C282.046 31.3171 281.875 31.7328 281.533 32.0751C281.239 32.3685 280.848 32.5153 280.359 32.5153H271.263V51.3685C271.263 53.667 271.654 55.4766 272.436 56.797C273.219 58.1175 274.613 58.7777 276.618 58.7777H281.093C281.582 58.7777 281.973 58.9489 282.266 59.2912C282.609 59.5846 282.78 59.9759 282.78 60.4649V63.1059C282.78 63.5949 282.609 64.0106 282.266 64.353C281.973 64.6464 281.582 64.7931 281.093 64.7931H276.031Z" fill="white"/>
</svg>
