<?xml version="1.0" encoding="UTF-8"?>
<svg width="24px" height="24px" viewBox="0 0 24 24" version="1.1" xmlns="http://www.w3.org/2000/svg" xmlns:xlink="http://www.w3.org/1999/xlink">
    <!-- Generator: Sketch 56.3 (81716) - https://sketch.com -->
    <title>icons/twitter--white</title>
    <desc>Created with Sketch.</desc>
    <g id="icons/twitter--white" stroke="none" stroke-width="1" fill="none" fill-rule="evenodd">
        <path d="M22,5.89378966 C21.264375,6.21495866 20.473125,6.43214766 19.643125,6.529975 C20.490625,6.02976351 21.14125,5.23853105 21.4475,4.29532782 C20.655,4.75800808 19.77625,5.09394347 18.841875,5.27544703 C18.093125,4.49036724 17.026875,4 15.846875,4 C13.580625,4 11.74375,5.80826764 11.74375,8.03922323 C11.74375,8.3554701 11.78,8.66371852 11.85,8.9596616 C8.439375,8.79107864 5.41625,7.18277254 3.3925,4.73893482 C3.039375,5.33574313 2.836875,6.02976351 2.836875,6.76992886 C2.836875,8.17089021 3.56125,9.40757547 4.661875,10.1317439 C3.989375,10.1108248 3.356875,9.92932128 2.80375,9.62661027 C2.803125,9.64383772 2.803125,9.66044991 2.803125,9.67767737 C2.803125,11.6348395 4.2175,13.2671409 6.095,13.6381465 C5.750625,13.7304365 5.388125,13.7796578 5.01375,13.7796578 C4.749375,13.7796578 4.4925,13.7544318 4.241875,13.7076716 C4.76375,15.3122861 6.279375,16.4800615 8.075,16.5126706 C6.670625,17.5961546 4.90125,18.2415689 2.97875,18.2415689 C2.6475,18.2415689 2.32125,18.2224957 2,18.1855797 C3.815625,19.3312055 5.9725,20 8.29,20 C15.8375,20 19.964375,13.844876 19.964375,8.50744088 C19.964375,8.33208998 19.960625,8.15796962 19.9525,7.98446453 C20.754375,7.4153432 21.45,6.70409537 22,5.89378966" id="Fill-1" fill="#FFFFFF"></path>
    </g>
</svg>