<svg width="154" height="155" viewBox="0 0 154 155" fill="none" xmlns="http://www.w3.org/2000/svg">
<rect width="154" height="154" transform="translate(0 0.5)" fill="white"/>
<circle cx="77" cy="77.5" r="52" fill="#721C74"/>
<circle cx="77" cy="77.5" r="64.5" stroke="#721C74" stroke-opacity="0.1" stroke-width="25"/>
<path d="M106.747 87.6138V84.1387C106.747 73.9506 98.4588 65.663 88.2706 65.663H81.6965V63.7304C87.1911 63.602 91.9711 63.2451 95.8321 62.6846L98.8633 64.933C99.2551 65.2235 99.7064 65.3707 100.163 65.3707C100.498 65.3707 100.836 65.2912 101.157 65.1296C101.912 64.7486 102.364 64.0165 102.364 63.1707V61.2705C103.29 60.9673 104.073 60.6392 104.702 60.2871C105.082 60.0735 105.265 59.6271 105.145 59.2081C105.025 58.7892 104.626 58.5149 104.196 58.5293C99.8382 58.742 96.475 58.7796 91.0179 58.7796H91.0149L82.949 58.7744C81.4847 58.7744 79.933 58.7805 78.3211 58.787C76.5838 58.794 74.777 58.8001 72.9378 58.8001C64.2818 58.8001 54.5918 58.6498 48.3572 57.5359C47.9514 57.4647 47.5486 57.6625 47.359 58.0256C47.1694 58.3895 47.2376 58.8346 47.528 59.1247C49.4825 61.0791 55.9408 62.4377 63.5625 63.1641V65.6629L56.3354 65.6625C52.0172 65.6629 48.5049 69.1751 48.5049 73.4925V76.9357H59.8212V78.8146H48.5049V87.582H47.5674C46.7034 87.582 46 88.2844 46 89.1489V90.3983C46 91.2624 46.7033 91.9658 47.5674 91.9658L48.5049 91.9662H53.2831C53.7366 94.8005 56.1917 96.9764 59.1513 96.9764C62.1109 96.9764 64.566 94.8009 65.0194 91.9662H86.7886C87.2421 94.8005 89.6971 96.9764 92.6568 96.9764C95.6164 96.9764 98.0715 94.8009 98.5249 91.9662H106.748V91.9343C107.461 91.7884 108 91.1554 108 90.3989V89.1495C108 88.3924 107.461 87.7603 106.748 87.6144L106.747 87.6138ZM100.485 63.1707C100.485 63.3009 100.428 63.393 100.311 63.452C100.195 63.511 100.089 63.5022 99.9833 63.4232L98.4081 62.2551C99.1463 62.1131 99.8392 61.9628 100.485 61.803L100.485 63.1707ZM65.4412 63.3284C69.2103 63.6302 73.1881 63.784 77.0001 63.784C77.9577 63.784 78.896 63.777 79.8177 63.7648V65.6625H65.4418L65.4412 63.3284ZM59.1511 95.0965C56.9066 95.0965 55.0806 93.2705 55.0806 91.026C55.0806 88.7815 56.9066 86.9555 59.1511 86.9555C61.3956 86.9551 63.222 88.7811 63.222 91.0257C63.222 93.2701 61.3956 95.0966 59.1511 95.0966V95.0965ZM64.1622 76.8298V71.4021C64.1622 70.6564 64.7729 70.0448 65.5186 70.0448H72.1983C72.9449 70.0448 73.5556 70.6559 73.5556 71.4021V76.8298C73.5556 77.5764 72.9449 78.1871 72.1983 78.1871L65.5186 78.1867C64.7725 78.1867 64.1622 77.5764 64.1622 76.8299V76.8298ZM85.4538 89.459H66.0398V87.5801H85.4538V89.459ZM85.4538 76.8298C85.4538 77.5755 84.8431 78.1863 84.0974 78.1863H77.4168C76.6703 78.1863 76.0595 77.5756 76.0595 76.8298V71.4021C76.0595 70.6564 76.6702 70.0448 77.4168 70.0448H84.097C84.8427 70.0448 85.4534 70.6559 85.4534 71.4021L85.4538 76.8298ZM92.6556 95.0965C90.4111 95.0965 88.5851 93.2705 88.5851 91.026C88.5851 88.7815 90.4111 86.9555 92.6556 86.9555C94.9001 86.9555 96.726 88.7815 96.726 91.026C96.726 93.27 94.9001 95.0965 92.6556 95.0965ZM89.2351 78.1864C88.5331 78.1864 87.9587 77.5757 87.9587 76.83V71.4022C87.9587 70.6565 88.5331 70.0449 89.2351 70.0449H97.2687C99.7844 72.1518 101.757 74.9598 102.924 78.1864H89.2351Z" fill="white"/>
<path d="M92.7787 89.4316C91.8477 89.4316 91.0884 90.191 91.0884 91.122C91.0884 92.0525 91.8477 92.8118 92.7787 92.8118C93.7097 92.8118 94.469 92.0525 94.469 91.122C94.469 90.191 93.7097 89.4316 92.7787 89.4316Z" fill="white"/>
<path d="M59.2304 89.4316C58.2994 89.4316 57.54 90.191 57.54 91.122C57.54 92.0525 58.2994 92.8118 59.2304 92.8118C60.1614 92.8118 60.9207 92.0525 60.9207 91.122C60.9207 90.191 60.1614 89.4316 59.2304 89.4316Z" fill="white"/>
</svg>
