<svg width="184" height="184" viewBox="0 0 184 184" fill="none" xmlns="http://www.w3.org/2000/svg">
<circle cx="129.5" cy="125.5" r="14.5" fill="#F0F0F0"/>
<circle cx="117" cy="152" r="7" fill="#F0F0F0"/>
<circle cx="58" cy="106" r="34" fill="#F0F0F0"/>
<path d="M110.418 105.193C106.362 113.376 99.3679 132.436 103.836 143.205C108.305 153.975 100.687 169.314 96.3196 175.637" stroke="#4C4C4C"/>
<path d="M64.2715 114.37C71.3999 118.403 84.6043 130.836 80.3944 148.312C76.1846 165.787 89.5677 173.325 96.7855 174.91" stroke="#4C4C4C"/>
<path d="M50.2535 22.5009C89.9325 15.0548 112.262 74.3462 68.0225 117.189C11.6546 90.4252 11.2959 29.8115 50.2535 22.5009Z" fill="#67BFD3"/>
<path d="M132.15 12.3863C171.404 21.8187 167.532 85.0569 109.64 106.061C69.1475 58.585 93.6091 3.12532 132.15 12.3863Z" fill="#E42656"/>
<path d="M86.0009 111.219C81.9747 117.349 77.7515 132.973 93.068 146.432C108.385 159.892 100.805 171.372 95.1001 175.43" stroke="#4C4C4C"/>
<path d="M92.0752 8.1065C136.262 11.2443 143.463 80.3882 84.5874 113.551C32.2068 69.4598 48.6921 5.02579 92.0752 8.1065Z" fill="#521C74"/>
<path fill-rule="evenodd" clip-rule="evenodd" d="M74.0289 58.8C73.8901 58.949 73.7654 59.0911 73.667 59.2206C73.4995 59.4412 73.3923 59.7701 73.3448 60.2073L72.7852 65.3572C72.7449 65.728 72.844 66.0533 73.083 66.335C73.3225 66.6164 73.637 66.7779 74.0285 66.8205L102.284 69.8907C102.674 69.9332 103.016 69.8515 103.308 69.6444C103.6 69.4385 103.767 69.1501 103.807 68.7793L104.388 63.4271C104.429 63.0573 104.329 62.7309 104.089 62.4496C103.851 62.1684 103.536 62.0062 103.145 61.9638L86.8318 60.1912L74.0289 58.8Z" fill="#67BFD3"/>
<path fill-rule="evenodd" clip-rule="evenodd" d="M105.548 41.8091C105.892 41.4076 106.101 40.9488 106.158 40.4265L106.719 35.2615C106.76 34.8865 106.662 34.5562 106.425 34.272C106.189 33.9878 105.877 33.8243 105.49 33.7822L78.5999 30.8603C78.2119 30.8181 77.8811 30.9117 77.607 31.1405C77.3329 31.3693 77.1756 31.6718 77.1349 32.0468L76.557 37.3654C76.5199 37.7063 76.6198 38.019 76.856 38.3032C77.0922 38.5874 77.3858 38.7489 77.7386 38.7872L93.4815 40.4979L105.548 41.8091Z" fill="#67BFD3"/>
<path fill-rule="evenodd" clip-rule="evenodd" d="M104.946 42.766C105.041 42.6815 105.122 42.5915 105.202 42.5007L93.5485 41.2344L75.3245 57.8697C75.213 57.9784 75.1175 58.0792 75.0253 58.1793L87.2778 59.5106L104.946 42.766Z" fill="#E42656"/>
</svg>
