<svg width="184" height="184" viewBox="0 0 184 184" fill="none" xmlns="http://www.w3.org/2000/svg">
<circle cx="100" cy="86" r="49" fill="#F0F0F0"/>
<circle cx="63.0002" cy="142" r="12" fill="#F0F0F0"/>
<circle cx="112" cy="22" r="11" fill="#F0F0F0"/>
<circle cx="130" cy="32" r="5" fill="#F0F0F0"/>
<circle cx="51.5002" cy="119.5" r="5.5" fill="#F0F0F0"/>
<circle cx="81.5002" cy="158.5" r="5.5" fill="#F0F0F0"/>
<rect x="27.197" y="34.2673" width="64.1511" height="68.5753" rx="2" transform="rotate(-7.98395 27.197 34.2673)" fill="#9BD174"/>
<rect x="39.696" y="80.9119" width="52.3532" height="15.4848" rx="4" transform="rotate(-7.98395 39.696 80.9119)" fill="white"/>
<path d="M26.6562 30.4057C26.5028 29.3118 27.2652 28.3007 28.359 28.1473L87.9271 19.7925C89.021 19.6391 90.0321 20.4015 90.1855 21.4953L94.5165 52.3747L30.9872 61.285L26.6562 30.4057Z" fill="#521C74"/>
<rect x="37.6978" y="65.0889" width="42.7674" height="4.42422" rx="2.21211" transform="rotate(-7.98395 37.6978 65.0889)" fill="#B1DD91"/>
<rect x="38.7214" y="72.3909" width="30.2321" height="4.42422" rx="2.21211" transform="rotate(-7.98395 38.7214 72.3909)" fill="#B1DD91"/>
<rect x="45.0164" y="39.2131" width="30.2321" height="6.63632" rx="3.31816" transform="rotate(-7.98395 45.0164 39.2131)" fill="#6B2D92"/>
<path d="M58.8564 88.6492C58.8028 88.6567 58.752 88.6448 58.7039 88.6133C58.6604 88.5757 58.6349 88.5301 58.6274 88.4766L57.8962 83.2635C57.888 83.2046 57.9 83.1538 57.9322 83.1111C57.9637 83.063 58.0088 83.0348 58.0678 83.0265L60.5498 82.6784C61.2299 82.583 61.7554 82.6513 62.1265 82.8832C62.4976 83.1151 62.7191 83.488 62.7912 84.0021C62.8273 84.2592 62.7888 84.4912 62.6759 84.6981C62.5683 84.9043 62.4375 85.0619 62.2835 85.1708C62.5166 85.2364 62.7239 85.3712 62.9054 85.5751C63.0861 85.7736 63.196 86.0121 63.2351 86.2905C63.3109 86.8314 63.1905 87.2769 62.8738 87.6271C62.5624 87.9766 62.0747 88.1978 61.4107 88.291L58.8564 88.6492ZM60.6932 84.9271C60.8913 84.8993 61.0364 84.8243 61.1285 84.7022C61.2206 84.5801 61.2546 84.4333 61.2305 84.262C61.2073 84.096 61.1349 83.9696 61.0136 83.8829C60.8968 83.79 60.7367 83.7579 60.5332 83.7864L59.5291 83.9273L59.6891 85.0679L60.6932 84.9271ZM61.0899 87.2303C61.2988 87.201 61.4511 87.1195 61.5471 86.9859C61.6476 86.8463 61.6855 86.6881 61.6607 86.5113C61.6352 86.3293 61.5552 86.1876 61.4209 86.0863C61.2858 85.9797 61.1165 85.9406 60.913 85.9692L59.8367 86.1201L60.0136 87.3812L61.0899 87.2303Z" fill="#9BD174"/>
<path d="M66.7316 87.6266C65.9712 87.7332 65.3483 87.6322 64.8627 87.3236C64.3825 87.0142 64.0905 86.49 63.9869 85.751L63.5272 82.4738C63.519 82.4149 63.5309 82.364 63.5632 82.3213C63.5947 82.2732 63.6398 82.245 63.6987 82.2367L64.7992 82.0824C64.8581 82.0741 64.9093 82.0888 64.9528 82.1264C65.0009 82.1579 65.0291 82.2031 65.0373 82.262L65.4947 85.5231C65.5413 85.8551 65.6539 86.0933 65.8324 86.2375C66.0164 86.3809 66.2556 86.432 66.5501 86.3907C66.8446 86.3494 67.0579 86.2349 67.1899 86.0471C67.3265 85.8532 67.3719 85.5929 67.3261 85.2663L66.8687 82.0051C66.8605 81.9462 66.8724 81.8954 66.9047 81.8526C66.9415 81.8038 66.9894 81.7752 67.0483 81.767L68.1407 81.6137C68.1996 81.6055 68.2508 81.6201 68.2943 81.6577C68.3424 81.6892 68.3706 81.7344 68.3788 81.7933L68.8385 85.0705C68.9421 85.8095 68.8057 86.3938 68.4291 86.8234C68.0525 87.253 67.4867 87.5207 66.7316 87.6266Z" fill="#9BD174"/>
<path d="M71.8253 86.8303C71.7718 86.8378 71.7209 86.8258 71.6728 86.7943C71.6293 86.7567 71.6038 86.7112 71.5963 86.6576L71.3564 84.9467L69.0164 81.753C68.9966 81.7285 68.9845 81.7002 68.98 81.668C68.9739 81.6252 68.9847 81.5855 69.0124 81.5488C69.0446 81.5061 69.0821 81.4817 69.125 81.4757L70.1853 81.327C70.2602 81.3165 70.3244 81.3266 70.3779 81.3573C70.4313 81.388 70.4718 81.4233 70.4992 81.4631L71.8985 83.3227L72.7322 81.1499C72.7476 81.1041 72.7768 81.0591 72.8198 81.0148C72.8627 80.9706 72.9216 80.9432 72.9966 80.9327L74.0569 80.784C74.0997 80.778 74.1398 80.7914 74.1772 80.8244C74.2192 80.8513 74.2432 80.8861 74.2492 80.929C74.2537 80.9611 74.2498 80.9917 74.2375 81.0207L72.8665 84.7349L73.1064 86.4458C73.1147 86.5047 73.1 86.5559 73.0625 86.5994C73.0302 86.6422 72.9847 86.6677 72.9258 86.6759L71.8253 86.8303Z" fill="#9BD174"/>
<rect x="102.388" y="78.7761" width="14.5551" height="2.02154" rx="1.01077" transform="rotate(-7.98395 102.388 78.7761)" fill="#9BD174"/>
<rect x="103.073" y="82.3093" width="8.78839" height="1.80937" rx="0.904687" transform="rotate(37.0161 103.073 82.3093)" fill="#9BD174"/>
<rect width="8.27143" height="1.80937" rx="0.904687" transform="matrix(0.602039 -0.798467 -0.798467 -0.602039 102.623 76.467)" fill="#9BD174"/>
<rect width="14.5551" height="2.02154" rx="1.01077" transform="matrix(-0.990307 0.138896 0.138896 0.990307 29.2744 89.0305)" fill="#9BD174"/>
<rect width="8.78839" height="1.80937" rx="0.904687" transform="matrix(-0.602039 0.798467 0.798467 0.602039 29.5872 92.6162)" fill="#9BD174"/>
<rect x="28.4128" y="86.875" width="8.27143" height="1.80937" rx="0.904687" transform="rotate(-142.984 28.4128 86.875)" fill="#9BD174"/>
<path fill-rule="evenodd" clip-rule="evenodd" d="M126.039 96.2911L168.106 111.942L124.268 123.6L82.3019 106.381L126.039 96.2911ZM125.219 125.573L167.989 114.199L165.352 154.882L165.383 154.884L121.062 173.567L79.5236 149.32L79.4922 149.318L82.1288 108.635L123.073 125.435L120.88 159.275L123.026 159.414L125.219 125.573Z" fill="#67BFD3"/>
<rect x="142.99" y="150.694" width="16.1325" height="3.22649" rx="1.61325" transform="rotate(-21.7949 142.99 150.694)" fill="#339FB8"/>
<rect x="143.407" y="144.255" width="16.1325" height="3.22649" rx="1.61325" transform="rotate(-21.7949 143.407 144.255)" fill="#339FB8"/>
<rect x="135.759" y="147.432" width="6.34343" height="3.22649" rx="1.61325" transform="rotate(-21.7949 135.759 147.432)" fill="#339FB8"/>
<rect x="136.405" y="140.781" width="24.1227" height="3.22649" rx="1.61325" transform="rotate(-21.7949 136.405 140.781)" fill="#339FB8"/>
<path d="M112.43 106.74L134.74 115.865L114.711 120.75L112.888 148.869L90.7382 137.262L92.425 111.236L112.43 106.74Z" fill="#A7DFEC"/>
</svg>
