<svg width="184" height="184" viewBox="0 0 184 184" fill="none" xmlns="http://www.w3.org/2000/svg">
<circle cx="46.5" cy="46.5" r="30.5" fill="#F0F0F0"/>
<circle cx="155.5" cy="133.5" r="16.5" fill="#F0F0F0"/>
<circle cx="136" cy="57" r="10" fill="#F0F0F0"/>
<circle cx="157" cy="39" r="6" fill="#F0F0F0"/>
<path fill-rule="evenodd" clip-rule="evenodd" d="M72.272 118.835C98.11 127.758 126.289 114.046 135.212 88.2075C144.135 62.3695 130.423 34.1902 104.585 25.2673C78.7469 16.3443 50.5675 30.0567 41.6446 55.8947C32.7216 81.7327 46.434 109.912 72.272 118.835Z" fill="#521C74"/>
<path fill-rule="evenodd" clip-rule="evenodd" d="M63.9573 78.8728C63.7178 79.0357 63.5002 79.1934 63.3228 79.3419C63.021 79.5949 62.7684 80.0172 62.5642 80.6085L60.1588 87.5739C59.9856 88.0754 60.0199 88.5577 60.2617 89.024C60.5044 89.4898 60.8889 89.8131 61.4178 89.9957L99.5841 103.176C100.111 103.358 100.611 103.353 101.08 103.158C101.551 102.965 101.872 102.617 102.046 102.116L104.546 94.8768C104.718 94.3766 104.684 93.8926 104.441 93.4268C104.2 92.9616 103.814 92.637 103.287 92.4549L81.251 84.8451L63.9573 78.8728Z" fill="#67BFD3"/>
<path fill-rule="evenodd" clip-rule="evenodd" d="M112.995 65.2624C113.599 64.8143 114.034 64.2439 114.277 63.5375L116.69 56.5518C116.865 56.0446 116.834 55.5557 116.597 55.0869C116.36 54.6181 115.979 54.2927 115.456 54.1123L79.1337 41.5686C78.6096 41.3876 78.1217 41.413 77.6696 41.6437C77.2175 41.8744 76.9039 42.2443 76.7287 42.7515L74.2445 49.945C74.0853 50.4061 74.1247 50.8712 74.3619 51.34C74.5991 51.8087 74.9547 52.1254 75.4312 52.2899L96.6963 59.6337L112.995 65.2624Z" fill="#67BFD3"/>
<path fill-rule="evenodd" clip-rule="evenodd" d="M111.859 66.3992C112.017 66.3122 112.158 66.2128 112.297 66.1122L96.556 60.676L66.0465 77.9916C65.8577 78.1071 65.6935 78.2167 65.5341 78.3263L82.0844 84.0418L111.859 66.3992Z" fill="#E42656"/>
<path d="M60.21 136.988C58.8122 135.609 56.5228 135.603 55.1082 136.981C53.6936 138.359 53.6741 140.603 55.0719 141.982L60.0978 146.953C60.731 147.579 60.7876 148.564 60.2468 149.263L59.0107 150.862C58.3637 151.699 57.1385 151.812 56.3576 151.106L44.6924 140.698L42.4444 124.457C42.1763 122.52 40.3621 121.177 38.3847 121.45C36.4074 121.724 35.0264 123.51 35.2946 125.447L38.603 149.348C38.7681 150.541 39.342 151.644 40.2305 152.469L53.8946 165.556C54.5516 166.19 55.0436 166.947 55.3851 167.77C55.6908 168.497 56.4658 168.914 57.2701 168.803L71.9832 166.766C72.9663 166.63 73.6616 165.731 73.5283 164.768L71.8316 152.511C71.412 149.48 69.9991 146.675 67.8083 144.502L60.21 136.988Z" fill="#67BFD3"/>
<path d="M120.551 136.988C121.948 135.609 124.238 135.603 125.652 136.981C127.067 138.359 127.087 140.603 125.689 141.982L120.663 146.953C120.03 147.579 119.973 148.564 120.514 149.263L121.75 150.862C122.397 151.699 123.622 151.812 124.403 151.106L136.068 140.698L138.316 124.457C138.584 122.52 140.399 121.177 142.376 121.45C144.353 121.724 145.734 123.51 145.466 125.447L142.158 149.348C141.993 150.541 141.419 151.644 140.53 152.469L126.866 165.556C126.209 166.19 125.717 166.947 125.375 167.77C125.07 168.497 124.295 168.914 123.49 168.803L108.777 166.766C107.794 166.63 107.099 165.731 107.232 164.768L108.929 152.511C109.349 149.48 110.762 146.675 112.952 144.502L120.551 136.988Z" fill="#67BFD3"/>
<circle cx="139.471" cy="106.595" r="2.57787" fill="#521C74"/>
<circle cx="151.845" cy="62.2555" r="3.60901" fill="#521C74"/>
<circle cx="134.315" cy="90.0961" r="3.60901" fill="#67BFD3"/>
<circle cx="71.9311" cy="117.421" r="5.15573" fill="#67BFD3"/>
<circle cx="165.25" cy="80.816" r="1.54672" fill="#67BFD3"/>
<circle cx="127.097" cy="48.8499" r="1.54672" fill="#67BFD3"/>
<circle cx="38.4188" cy="23.0716" r="1.54672" fill="#67BFD3"/>
<circle cx="126.066" cy="67.4107" r="1.54672" fill="#67BFD3"/>
<circle cx="63.1663" cy="103.501" r="1.54672" fill="#67BFD3"/>
<circle cx="30.1696" cy="85.9715" r="1.54672" fill="#67BFD3"/>
<circle cx="23.9829" cy="72.5663" r="1.54672" fill="#521C74"/>
<circle cx="38.9337" cy="100.923" r="1.03067" fill="#521C74"/>
<circle cx="152.36" cy="100.923" r="1.03067" fill="#521C74"/>
<circle cx="167.827" cy="52.4584" r="1.03067" fill="#E42656"/>
<circle cx="129.675" cy="20.4933" r="1.03067" fill="#E42656"/>
<circle cx="132.768" cy="77.2067" r="1.03067" fill="#E42656"/>
<circle cx="175.045" cy="88.5487" r="1.03067" fill="#E42656"/>
<circle cx="11.0929" cy="38.0229" r="1.03067" fill="#E42656"/>
<circle cx="84.3044" cy="33.8986" r="1.03067" fill="#E42656"/>
<circle cx="33.7781" cy="61.7392" r="1.03067" fill="#521C74"/>
<circle cx="139.471" cy="44.7257" r="1.54672" fill="#521C74"/>
<circle cx="25.014" cy="50.9123" r="2.57787" fill="#521C74"/>
<circle cx="150.814" cy="29.2582" r="3.60901" fill="#521C74"/>
<circle cx="10.5779" cy="92.1582" r="2.57787" fill="#521C74"/>
<circle cx="167.312" cy="104.532" r="2.57787" fill="#521C74"/>
<circle cx="160.094" cy="72.5663" r="1.54672" fill="#E42656"/>
<circle cx="16.7646" cy="57.0997" r="1.54672" fill="#E42656"/>
<circle cx="62.1352" cy="23.0716" r="1.54672" fill="#E42656"/>
<circle cx="114.724" cy="113.812" r="1.54672" fill="#E42656"/>
<circle cx="21.9204" cy="89.0648" r="1.54672" fill="#E42656"/>
<circle cx="131.222" cy="126.186" r="1.54672" fill="#E42656"/>
<circle cx="52.8548" cy="123.093" r="1.54672" fill="#E42656"/>
<circle cx="47.6992" cy="71.5352" r="1.54672" fill="#E42656"/>
</svg>
