<svg width="184" height="184" viewBox="0 0 184 184" fill="none" xmlns="http://www.w3.org/2000/svg">
<circle cx="85" cy="92" r="33" fill="#F0F0F0"/>
<circle cx="118" cy="47" r="7" fill="#F0F0F0"/>
<circle cx="59.5" cy="29.5" r="3.5" fill="#F0F0F0"/>
<path d="M174.991 62.7588C175.288 58.3463 168.186 58.714 164.598 59.4494L162 66.8036C166.207 67.2939 174.694 67.1713 174.991 62.7588Z" fill="#B3B3B3"/>
<path d="M30.3337 64.3555C28.145 57.9174 28.6132 42.8162 29.1209 36.0704C32.8159 33.0302 39.1438 35.6406 45.3485 35.3746C50.3122 35.1618 51.0949 39.2907 50.8658 41.3818L55.1157 51.2857L51.2975 51.4494L51.8113 63.4346L30.3337 64.3555Z" fill="#B3B3B3"/>
<path fill-rule="evenodd" clip-rule="evenodd" d="M169.211 58.7839C124.819 58.5948 37.6713 58.9821 25.0476 62.0118C8.96576 65.8714 9.60904 150.784 10.2523 154H84.8721C85.3868 144.222 78.6538 107.899 75.223 90.9591C101.346 85.0504 146.412 74.3832 169.211 67.5924V58.7839Z" fill="#9BD174"/>
<path d="M50.3851 39.5231C53.3836 38.5137 50.808 34.1052 49.1453 32.0271C48.0545 31.5658 44.7546 30.5072 40.2817 29.9635C34.6906 29.2839 28.3278 31.2989 25.4442 35.9473C23.1374 39.6659 27.0316 52.905 29.267 59.0597C34.1105 58.9004 34.8276 48.5138 36.1265 43.4858C37.4255 38.4578 42.4788 46.9274 42.7613 44.9554C43.0439 42.9834 46.637 40.7847 50.3851 39.5231Z" fill="#4C4C4C"/>
<path fill-rule="evenodd" clip-rule="evenodd" d="M19.25 108.987C19.25 94.7499 31.02 83.1667 45.4884 83.1667C59.9555 83.1667 71.7256 94.7488 71.7256 108.987C71.7256 123.226 59.9567 134.809 45.4884 134.809C31.02 134.809 19.25 123.225 19.25 108.987ZM23.5815 108.987C23.5815 120.875 33.4087 130.547 45.4883 130.547C57.5668 130.547 67.394 120.874 67.394 108.987C67.394 97.1007 57.568 87.4295 45.4883 87.4295C33.4087 87.4295 23.5815 97.0996 23.5815 108.987Z" fill="white"/>
<path fill-rule="evenodd" clip-rule="evenodd" d="M54.8452 100.938V96.9999H47.6861V92.6775H43.2894V96.9999H36.1315V102.217H47.2286L38.1535 114.508L36.1315 117.038V120.976H43.2894V125.285H43.8167V125.303H47.1588V125.285H47.6861V120.976H54.8452V115.759H43.7469L52.822 103.468L54.8452 100.938Z" fill="white"/>
<path d="M102 56.7412C102 58.9504 100.209 60.7412 98 60.7412C95.7909 60.7412 94 58.9504 94 56.7412C94 54.5321 95.7909 52.7412 98 52.7412C100.209 52.7412 102 54.5321 102 56.7412Z" fill="#9BD174"/>
<path d="M115 58.2412C115 59.6219 113.881 60.7412 112.5 60.7412C111.119 60.7412 110 59.6219 110 58.2412C110 56.8605 111.119 55.7412 112.5 55.7412C113.881 55.7412 115 56.8605 115 58.2412Z" fill="#521C74"/>
<path d="M104 51.2412C104 52.6219 102.881 53.7412 101.5 53.7412C100.119 53.7412 99 52.6219 99 51.2412C99 49.8605 100.119 48.7412 101.5 48.7412C102.881 48.7412 104 49.8605 104 51.2412Z" fill="#521C74"/>
<path d="M60 58.2412C60 59.6219 58.8807 60.7412 57.5 60.7412C56.1193 60.7412 55 59.6219 55 58.2412C55 56.8605 56.1193 55.7412 57.5 55.7412C58.8807 55.7412 60 56.8605 60 58.2412Z" fill="#E42656"/>
<path d="M95 55.7412C95 58.5026 92.7614 60.7412 90 60.7412C87.2386 60.7412 85 58.5026 85 55.7412C85 52.9798 87.2386 50.7412 90 50.7412C92.7614 50.7412 95 52.9798 95 55.7412Z" fill="#E42656"/>
<path d="M72 53.7412C72 57.6072 68.866 60.7412 65 60.7412C61.134 60.7412 58 57.6072 58 53.7412C58 49.8752 61.134 46.7412 65 46.7412C68.866 46.7412 72 49.8752 72 53.7412Z" fill="#67BFD3"/>
<path d="M111 55.7412C111 58.5026 108.761 60.7412 106 60.7412C103.239 60.7412 101 58.5026 101 55.7412C101 52.9798 103.239 50.7412 106 50.7412C108.761 50.7412 111 52.9798 111 55.7412Z" fill="#67BFD3"/>
<path fill-rule="evenodd" clip-rule="evenodd" d="M78.4114 60.7767C85.7164 60.0462 91.0461 53.5321 90.3156 46.2271C89.5851 38.922 83.071 33.5923 75.766 34.3228C68.461 35.0533 63.1313 41.5674 63.8618 48.8724C64.5923 56.1775 71.1064 61.5072 78.4114 60.7767Z" fill="#521C74"/>
<path fill-rule="evenodd" clip-rule="evenodd" d="M71.8882 51.9663C71.8481 52.0329 71.8128 52.0959 71.7863 52.152C71.7411 52.2477 71.727 52.3791 71.7437 52.5463L71.9407 54.5156C71.9548 54.6574 72.0175 54.7711 72.1289 54.8576C72.2405 54.9439 72.3706 54.9795 72.5202 54.9646L83.3107 53.8855C83.4598 53.8706 83.5811 53.8131 83.6736 53.7127C83.7665 53.6127 83.8059 53.4918 83.7917 53.35L83.5871 51.3034C83.5729 51.162 83.51 51.0478 83.3984 50.9615C83.2873 50.8752 83.1567 50.8394 83.0076 50.8543L76.7776 51.4773L71.8882 51.9663Z" fill="#67BFD3"/>
<path fill-rule="evenodd" clip-rule="evenodd" d="M82.3164 43.1306C82.4132 42.9534 82.455 42.7655 82.435 42.5657L82.2375 40.5907C82.2232 40.4473 82.1606 40.3316 82.05 40.2439C81.9394 40.1563 81.8099 40.1198 81.6622 40.1346L71.393 41.1615C71.2448 41.1763 71.1287 41.2374 71.0444 41.3445C70.96 41.4516 70.9252 41.5771 70.9395 41.7205L71.1429 43.7543C71.1559 43.8846 71.2179 43.9936 71.3285 44.0813C71.439 44.1689 71.5614 44.2061 71.6961 44.1927L77.7083 43.5914L82.3164 43.1306Z" fill="#67BFD3"/>
<path fill-rule="evenodd" clip-rule="evenodd" d="M82.1671 43.5356C82.196 43.4965 82.2191 43.4565 82.2418 43.4163L77.7913 43.8613L72.2986 51.5163C72.2656 51.5657 72.2379 51.6109 72.2113 51.6556L76.8905 51.1876L82.1671 43.5356Z" fill="#E42656"/>
</svg>
