<svg width="184" height="184" viewBox="0 0 184 184" fill="none" xmlns="http://www.w3.org/2000/svg">
<circle cx="80" cy="97" r="49" fill="#F0F0F0"/>
<circle cx="45.5" cy="29.5" r="7.5" fill="#F0F0F0"/>
<circle cx="141" cy="151" r="5" fill="#F0F0F0"/>
<circle cx="126" cy="27" r="5" fill="#F0F0F0"/>
<path fill-rule="evenodd" clip-rule="evenodd" d="M134.235 93.5433C151.039 95.5419 166.282 83.5396 168.28 66.7355C170.279 49.9313 158.277 34.6887 141.472 32.6901C124.668 30.6915 109.426 42.6937 107.427 59.4979C105.429 76.302 117.431 91.5447 134.235 93.5433ZM118.961 67.8078C122.289 72.0359 127.967 77.1364 134.474 78.2733C141.141 79.4379 148.852 76.493 155.077 72.1065C155.556 71.7689 155.651 71.1055 155.298 70.6377C154.945 70.1699 154.279 70.0765 153.792 70.4028C148.162 74.176 141.336 74.9805 135.113 73.8935C129.021 72.8293 123.673 69.9825 120.7 66.5475C120.316 66.1044 119.653 65.9982 119.178 66.3418C118.703 66.6853 118.598 67.3474 118.961 67.8078Z" fill="#521C74"/>
<path fill-rule="evenodd" clip-rule="evenodd" d="M85.0714 65.3933C95.4321 65.3933 103.831 56.9944 103.831 46.6337C103.831 36.273 95.4321 27.874 85.0714 27.874C74.7108 27.874 66.3118 36.273 66.3118 46.6337C66.3118 56.9944 74.7108 65.3933 85.0714 65.3933ZM73.9245 50.8522C76.2534 53.1821 80.0742 55.8724 84.1129 56.093C88.25 56.319 92.7249 53.971 96.1923 50.8541C96.4592 50.6142 96.4687 50.2041 96.2206 49.9452C95.9724 49.6863 95.5606 49.6777 95.2882 49.9113C92.1379 52.6123 88.0461 53.595 84.1845 53.3841C80.404 53.1776 76.9466 51.8335 74.8905 49.9602C74.6253 49.7186 74.2145 49.702 73.9507 49.9452C73.6869 50.1884 73.6709 50.5985 73.9245 50.8522Z" fill="#E42656"/>
<path fill-rule="evenodd" clip-rule="evenodd" d="M28.8944 118.22C39.3295 119.566 48.8792 112.197 50.2243 101.761C51.5694 91.3263 44.2004 81.7766 33.7653 80.4315C23.3302 79.0865 13.7805 86.4554 12.4354 96.8905C11.0903 107.326 18.4593 116.875 28.8944 118.22ZM19.5551 102.127C21.5983 104.776 25.0973 107.982 29.1364 108.728C33.2739 109.493 38.0858 107.709 41.9828 105.02C42.2827 104.813 42.3455 104.401 42.1292 104.108C41.9129 103.815 41.4992 103.753 41.1945 103.953C37.6709 106.264 33.4222 106.723 29.5602 106.009C25.7793 105.31 22.4715 103.508 20.6439 101.354C20.4082 101.076 19.9966 101.006 19.6993 101.217C19.402 101.428 19.3327 101.839 19.5551 102.127Z" fill="#E42656"/>
<path fill-rule="evenodd" clip-rule="evenodd" d="M147.243 141.171C157.342 138.857 163.654 128.794 161.34 118.695C159.026 108.596 148.964 102.285 138.865 104.599C128.766 106.912 122.454 116.975 124.768 127.074C127.082 137.173 137.144 143.484 147.243 141.171ZM133.13 129.486C135.921 131.237 140.246 133.006 144.232 132.319C148.315 131.616 152.152 128.328 154.836 124.515C155.043 124.222 154.96 123.82 154.661 123.623C154.361 123.426 153.958 123.51 153.744 123.798C151.277 127.135 147.508 129.006 143.696 129.663C139.965 130.306 136.295 129.768 133.873 128.401C133.56 128.225 133.156 128.3 132.953 128.596C132.75 128.892 132.826 129.296 133.13 129.486Z" fill="#E42656"/>
<path fill-rule="evenodd" clip-rule="evenodd" d="M90.6419 134.783C107.78 132.396 119.738 116.569 117.352 99.4316C114.966 82.2939 99.1387 70.3354 82.001 72.7215C64.8633 75.1077 52.9048 90.9348 55.2909 108.073C57.6771 125.21 73.5042 137.169 90.6419 134.783ZM68.8541 113.297C73.243 116.615 80.1826 120.185 86.9138 119.619C93.8091 119.04 100.67 114.126 105.688 108.172C106.074 107.714 105.996 107.033 105.525 106.662C105.055 106.291 104.372 106.371 103.975 106.82C99.3865 112.014 92.8445 114.582 86.4084 115.122C80.1075 115.651 74.079 114.224 70.2466 111.599C69.7522 111.26 69.0689 111.328 68.6886 111.791C68.3082 112.254 68.3762 112.936 68.8541 113.297Z" fill="#67BFD3"/>
<path fill-rule="evenodd" clip-rule="evenodd" d="M110.227 163.83C117.931 165.581 125.594 160.755 127.345 153.052C129.095 145.349 124.27 137.685 116.566 135.934C108.863 134.184 101.199 139.009 99.4488 146.713C97.6983 154.416 102.524 162.08 110.227 163.83ZM104.395 151.136C105.733 153.261 108.119 155.907 111.085 156.754C114.123 157.621 117.847 156.631 120.951 154.899C121.19 154.766 121.267 154.463 121.126 154.228C120.985 153.994 120.68 153.918 120.438 154.046C117.64 155.522 114.431 155.561 111.596 154.752C108.82 153.959 106.476 152.376 105.264 150.636C105.108 150.411 104.805 150.329 104.568 150.466C104.331 150.602 104.25 150.904 104.395 151.136Z" fill="#9BD174"/>
<path fill-rule="evenodd" clip-rule="evenodd" d="M50.3807 72.4612C57.5125 72.4612 63.2939 66.6797 63.2939 59.548C63.2939 52.4162 57.5125 46.6348 50.3807 46.6348C43.249 46.6348 37.4675 52.4162 37.4675 59.548C37.4675 66.6797 43.249 72.4612 50.3807 72.4612ZM42.708 62.4517C44.3111 64.0555 46.9411 65.9074 49.7212 66.0592C52.569 66.2148 55.6493 64.5986 58.0361 62.453C58.2197 62.2879 58.2263 62.0056 58.0555 61.8274C57.8847 61.6492 57.6012 61.6432 57.4137 61.804C55.2452 63.6633 52.4286 64.3397 49.7705 64.1945C47.1682 64.0524 44.7883 63.1272 43.373 61.8377C43.1904 61.6714 42.9076 61.66 42.726 61.8274C42.5445 61.9948 42.5334 62.2771 42.708 62.4517Z" fill="#9BD174"/>
<path fill-rule="evenodd" clip-rule="evenodd" d="M50.3807 152.016C57.5125 152.016 63.2939 146.234 63.2939 139.103C63.2939 131.971 57.5125 126.189 50.3807 126.189C43.249 126.189 37.4675 131.971 37.4675 139.103C37.4675 146.234 43.249 152.016 50.3807 152.016ZM42.708 142.006C44.3111 143.61 46.9411 145.462 49.7212 145.614C52.569 145.769 55.6493 144.153 58.0361 142.008C58.2197 141.843 58.2263 141.56 58.0555 141.382C57.8847 141.204 57.6012 141.198 57.4137 141.359C55.2452 143.218 52.4286 143.894 49.7705 143.749C47.1682 143.607 44.7883 142.682 43.373 141.392C43.1904 141.226 42.9076 141.215 42.726 141.382C42.5445 141.549 42.5334 141.832 42.708 142.006Z" fill="#521C74"/>
<circle cx="104" cy="23" r="6" fill="#67BFD3"/>
<circle cx="79" cy="150" r="6" fill="#9BD174"/>
<circle cx="168" cy="97" r="6" fill="#67BFD3"/>
<circle cx="24.5" cy="68.5" r="4.5" fill="#B3B3B3"/>
<circle cx="126" cy="102" r="5" fill="#B3B3B3"/>
</svg>
