<svg width="184" height="184" viewBox="0 0 184 184" fill="none" xmlns="http://www.w3.org/2000/svg">
<path d="M24 46V27C24 24.7909 25.7909 23 28 23H123C125.209 23 127 24.7909 127 27V46C127 48.2091 125.209 50 123 50H28C25.7909 50 24 48.2091 24 46Z" fill="#F0F0F0"/>
<path d="M85 77V60C85 57.7909 86.7909 56 89 56H161C163.209 56 165 57.7909 165 60V77C165 79.2091 163.209 81 161 81H89C86.7909 81 85 79.2091 85 77Z" fill="#F0F0F0"/>
<path d="M20 114V90C20 87.7909 21.7909 86 24 86H132C134.209 86 136 87.7909 136 90V114C136 116.209 134.209 118 132 118H24C21.7909 118 20 116.209 20 114Z" fill="#F0F0F0"/>
<path d="M42 155V130C42 127.791 43.7909 126 46 126H161C163.209 126 165 127.791 165 130V155C165 157.209 163.209 159 161 159H46C43.7909 159 42 157.209 42 155Z" fill="#F0F0F0"/>
<path fill-rule="evenodd" clip-rule="evenodd" d="M79.4536 43.7329C75.2723 43.7654 70.3555 48.8198 67.9375 52.0892L74.7066 59.4738C76.1151 58.6612 77.8483 57.4893 79.4536 56.1146V43.7329Z" fill="#67BFD3"/>
<path d="M74.0156 37C77.2656 39.5 78.5393 45.5 79.1393 49.5C79.7393 53.5 79.1393 57 77.1393 61.5C75.8296 63.3335 74.2455 65.3714 72.5595 67.5402C63.654 78.9963 58.3896 85.7684 58.3896 93.75C58.3896 108.75 68.1396 117.75 83.1396 117.75H96.2654C111.265 117.75 121.015 108.75 121.015 93.75C121.015 85.7684 113.206 75.7218 106.846 67.5402C105.16 65.3714 103.575 63.3335 102.266 61.5C100.266 57 99.6657 53.5 100.266 49.5C100.866 45.5 101.016 39.5 104.266 37H74.0156Z" fill="#9BD174"/>
<path d="M90.1548 98.4355C91.3237 98.3809 92.1304 97.9536 92.5747 97.1538C92.8071 96.7437 92.9233 96.2686 92.9233 95.7285C92.9233 94.874 92.6089 94.2246 91.98 93.7803C91.6177 93.5205 91.0093 93.2744 90.1548 93.042V98.4355ZM86.6787 88.5405C86.6787 89.2173 86.9009 89.7471 87.3452 90.1299C87.7964 90.5127 88.4014 90.7793 89.1602 90.9297V86.1104C88.2646 86.1445 87.6255 86.418 87.2427 86.9307C86.8667 87.4434 86.6787 87.98 86.6787 88.5405ZM84.833 88.6636C84.833 87.6245 85.2124 86.688 85.9712 85.854C86.7368 85.02 87.8066 84.5962 89.1807 84.5825V83.2188H90.1548V84.562C91.5151 84.6577 92.5576 85.061 93.2822 85.772C94.0137 86.4761 94.3965 87.4092 94.4307 88.5713H92.6362C92.5884 88.0518 92.4482 87.604 92.2158 87.228C91.7852 86.5376 91.0981 86.1753 90.1548 86.1411V91.1245C91.7407 91.5688 92.8174 91.9858 93.3848 92.3755C94.3076 93.0181 94.769 93.9683 94.769 95.2261C94.769 97.0444 94.1777 98.3364 92.9951 99.1021C92.3389 99.5259 91.3921 99.8062 90.1548 99.9429V101.932H89.1807V99.9429C87.1914 99.813 85.8413 99.1089 85.1304 97.8306C84.7407 97.1401 84.5459 96.207 84.5459 95.0312H86.3608C86.4155 95.9678 86.5625 96.6514 86.8018 97.082C87.2256 97.8545 88.0117 98.2886 89.1602 98.3843V92.7959C87.6836 92.5156 86.5933 92.0474 85.8892 91.3911C85.1851 90.7349 84.833 89.8257 84.833 88.6636Z" fill="white"/>
<path d="M107.703 62.6544C107.703 48.4909 97.2031 48.25 67.499 51.4727V72.9042C80.9004 75.389 107.703 72.9043 107.703 62.6544Z" fill="#67BFD3"/>
<path d="M64.0359 111.642C63.3606 117.745 89.5368 128.892 120.322 125.177L118.786 115.143C90.2282 117.092 64.7112 105.54 64.0359 111.642Z" fill="#521C74"/>
<path d="M102.776 108.701C100.555 112.549 109.735 117.556 114.602 119.578L117.963 113.757C113.826 110.469 104.998 104.854 102.776 108.701Z" fill="#521C74"/>
<path d="M68.5828 50.4704L9 44.2573L11.9782 90.4654L70.3201 77.4251L68.5828 50.4704Z" fill="#521C74"/>
<path d="M121.385 137.449L174.463 136.698L165.069 91.3565L115.905 111L121.385 137.449Z" fill="#E42656"/>
</svg>
