<svg width="184" height="184" viewBox="0 0 184 184" fill="none" xmlns="http://www.w3.org/2000/svg">
<g clip-path="url(#clip0)">
<path d="M108 11L127 11C129.209 11 131 12.7909 131 15L131 110C131 112.209 129.209 114 127 114L108 114C105.791 114 104 112.209 104 110L104 15C104 12.7909 105.791 11 108 11Z" fill="#F0F0F0"/>
<path d="M148 59L165 59C167.209 59 169 60.7909 169 63L169 135C169 137.209 167.209 139 165 139L148 139C145.791 139 144 137.209 144 135L144 63C144 60.7909 145.791 59 148 59Z" fill="#F0F0F0"/>
<path d="M42 29L51 29C53.2091 29 55 30.7909 55 33L55 142C55 144.209 53.2091 146 51 146L42 146C39.7909 146 38 144.209 38 142L38 33C38 30.7909 39.7909 29 42 29Z" fill="#F0F0F0"/>
<path d="M23 111L23 64C23 61.7909 24.7909 60 27 60C29.2091 60 31 61.7909 31 64L31 111C31 113.209 29.2091 115 27 115C24.7909 115 23 113.209 23 111Z" fill="#F0F0F0"/>
<ellipse cx="90.2008" cy="103.826" rx="3.84538" ry="3.84538" transform="rotate(-26.3189 90.2008 103.826)" fill="#67BFD3"/>
<circle cx="105.836" cy="102.541" r="5.0837" transform="rotate(-26.3188 105.836 102.541)" fill="#67BFD3"/>
<circle cx="44.764" cy="61.8515" r="1.81304" transform="rotate(-26.3188 44.764 61.8515)" fill="#67BFD3"/>
<circle r="1.81304" transform="matrix(0.89634 -0.443367 0.443365 0.896341 112.565 133.495)" fill="#67BFD3"/>
<circle cx="68.7864" cy="132.226" r="1.81304" transform="rotate(-26.3188 68.7864 132.226)" fill="#67BFD3"/>
<circle cx="55.3192" cy="121.357" r="1.81304" transform="rotate(-26.3188 55.3192 121.357)" fill="#521C74"/>
<circle cx="85.7657" cy="143.381" r="1.2087" transform="rotate(-26.3188 85.7657 143.381)" fill="#521C74"/>
<circle cx="99.4364" cy="111.854" r="1.2087" transform="rotate(-26.3188 99.4364 111.854)" fill="#E42656"/>
<circle r="1.2087" transform="matrix(0.896341 -0.443365 0.443367 0.89634 59.9847 104.89)" fill="#521C74"/>
<ellipse cx="45.1487" cy="98.0697" rx="3.02174" ry="3.02174" transform="rotate(-26.3188 45.1487 98.0697)" fill="#521C74"/>
<circle cx="51.417" cy="148.908" r="3.02174" transform="rotate(-26.3188 51.417 148.908)" fill="#521C74"/>
<circle cx="78.4895" cy="119.916" r="1.81304" transform="rotate(-26.3188 78.4895 119.916)" fill="#E42656"/>
<circle r="1.81304" transform="matrix(0.896341 -0.443365 0.443367 0.89634 69.6822 49.5261)" fill="#E42656"/>
<circle cx="61.7272" cy="139.764" r="1.81304" transform="rotate(-26.3188 61.7272 139.764)" fill="#E42656"/>
<circle cx="80.9069" cy="86.0725" r="1.81304" transform="rotate(-26.3188 80.9069 86.0725)" fill="#E42656"/>
<circle cx="87.6237" cy="81.9104" r="5.92444" transform="rotate(-26.3188 87.6237 81.9104)" fill="#E42656"/>
<circle r="2.40416" transform="matrix(0.896341 -0.443366 -0.443366 -0.896341 104.664 75.9857)" fill="#E42656"/>
<circle cx="111.913" cy="159.438" r="1.81304" transform="rotate(-26.3188 111.913 159.438)" fill="#E42656"/>
<circle cx="79.7014" cy="107.948" r="1.81304" transform="rotate(-26.3188 79.7014 107.948)" fill="#E42656"/>
<circle cx="122.595" cy="138.639" r="4.23043" fill="#521C74"/>
<circle cx="138.308" cy="160.396" r="1.81304" fill="#67BFD3"/>
<circle cx="93.5866" cy="122.926" r="1.81304" fill="#67BFD3"/>
<circle cx="92.3779" cy="144.683" r="1.81304" fill="#67BFD3"/>
<circle cx="121.991" cy="152.539" r="1.2087" fill="#E42656"/>
<circle cx="96.6084" cy="89.6872" r="1.2087" fill="#E42656"/>
<circle cx="100.234" cy="156.165" r="1.2087" fill="#E42656"/>
<circle cx="43.4257" cy="105.4" r="1.2087" fill="#E42656"/>
<circle cx="108.091" cy="118.092" r="1.81304" fill="#521C74"/>
<circle cx="121.387" cy="99.9612" r="4.23043" fill="#521C74"/>
<circle cx="132.265" cy="150.726" r="1.81304" fill="#E42656"/>
<circle cx="96.0042" cy="122.926" r="4.23043" transform="rotate(90 96.0042 122.926)" fill="#521C74"/>
<circle cx="74.2476" cy="138.639" r="1.81304" transform="rotate(90 74.2476 138.639)" fill="#67BFD3"/>
<circle cx="111.717" cy="93.9175" r="1.81304" transform="rotate(90 111.717 93.9175)" fill="#67BFD3"/>
<circle cx="89.9606" cy="92.7088" r="1.81304" transform="rotate(90 89.9606 92.7088)" fill="#67BFD3"/>
<circle cx="107.487" cy="141.661" r="1.2087" transform="rotate(90 107.487 141.661)" fill="#E42656"/>
<circle cx="144.956" cy="96.9392" r="1.2087" transform="rotate(90 144.956 96.9392)" fill="#E42656"/>
<circle cx="78.4781" cy="100.565" r="1.2087" transform="rotate(90 78.4781 100.565)" fill="#E42656"/>
<circle cx="129.243" cy="43.7565" r="1.2087" transform="rotate(90 129.243 43.7565)" fill="#E42656"/>
<circle cx="116.552" cy="108.422" r="1.81304" transform="rotate(90 116.552 108.422)" fill="#521C74"/>
<circle cx="83.9172" cy="132.596" r="1.81304" transform="rotate(90 83.9172 132.596)" fill="#E42656"/>
<path fill-rule="evenodd" clip-rule="evenodd" d="M65.6654 131.214L82.7186 90.5965C80.2871 88.0614 78.7939 84.6269 78.7939 80.8452C78.7939 73.0451 85.1463 66.722 92.9823 66.722C100.818 66.722 107.171 73.0451 107.171 80.8452C107.171 84.6269 105.677 88.0614 103.246 90.5965L120.299 131.214C138.569 121.446 151 102.183 151 80.0174C151 47.9753 125.025 22 92.9825 22C60.9404 22 34.9651 47.9753 34.9651 80.0174C34.9651 102.183 47.3954 121.446 65.6654 131.214Z" fill="#521C74"/>
<path fill-rule="evenodd" clip-rule="evenodd" d="M80.1187 96.9395H68.4793C68.2762 97.2116 68.0955 97.4695 67.9557 97.7019C67.7182 98.0977 67.5999 98.6623 67.5999 99.3956V108.033C67.5999 108.655 67.8225 109.177 68.2688 109.601C68.7159 110.024 69.2656 110.235 69.9215 110.235H74.5622L80.1187 96.9395ZM111.402 110.235L105.845 96.9395H117.252C117.906 96.9395 118.458 97.1515 118.903 97.5747C119.35 97.9979 119.574 98.5209 119.574 99.1411V108.118C119.574 108.74 119.35 109.248 118.903 109.642C118.458 110.038 117.906 110.235 117.252 110.235H111.402Z" fill="#67BFD3"/>
<path fill-rule="evenodd" clip-rule="evenodd" d="M117.248 63.0361C117.74 62.3248 118 61.5443 118 60.6878V52.2174C118 51.6023 117.781 51.0843 117.343 50.6652C116.906 50.2461 116.366 50.0361 115.725 50.0361H71.1869C70.5443 50.0361 70.0194 50.2461 69.6114 50.6652C69.2033 51.0843 68.9998 51.6023 68.9998 52.2174V60.9398C68.9998 61.4988 69.2188 61.9879 69.6561 62.407C70.0933 62.8261 70.6027 63.0361 71.1869 63.0361H97.262H117.248Z" fill="#67BFD3"/>
<path fill-rule="evenodd" clip-rule="evenodd" d="M117.156 64.3047C117.04 64.4695 116.923 64.6334 116.78 64.7905L106.403 77.0268C105.02 71.8323 100.701 67.8351 95.3317 66.92L97.6351 64.3047H117.156ZM79.6974 84.6716L70.4567 95.1638C70.2917 95.3641 70.1517 95.5483 70.0171 95.7308H80.6236L82.9356 90.1987C81.46 88.6532 80.3375 86.7676 79.6974 84.6716Z" fill="#E42656"/>
</g>
<defs>
<clipPath id="clip0">
<path d="M0 0H184V184H0V0Z" fill="white"/>
</clipPath>
</defs>
</svg>
