<svg width="37" height="36" viewBox="0 0 37 36" fill="none" xmlns="http://www.w3.org/2000/svg">
<path d="M0.5 4C0.5 1.79086 2.29086 0 4.5 0H32.5C34.7091 0 36.5 1.79086 36.5 4V32C36.5 34.2091 34.7091 36 32.5 36H4.5C2.29086 36 0.5 34.2091 0.5 32V4Z" fill="url(#paint0_linear)"/>
<g opacity="0.6">
<path d="M27.1719 18.9635C27.1719 21.2634 26.2582 23.4691 24.6319 25.0954C23.0056 26.7217 20.7999 27.6353 18.5 27.6353C16.2001 27.6353 13.9944 26.7217 12.3681 25.0954C10.7418 23.4691 9.82813 21.2634 9.82812 18.9635L9.85703 10.7059C12.4104 9.21242 15.3781 8.3645 18.5482 8.3645C21.6797 8.3645 24.6281 9.20278 27.1719 10.6577V18.9635ZM19.4635 25.6408C22.7299 25.1687 25.2448 22.3359 25.2448 18.9635V11.8236C23.2214 10.8408 20.9474 10.2916 18.5482 10.2916C16.0911 10.2916 13.7594 10.8697 11.6974 11.8911L11.7552 18.9635C11.7552 22.3359 14.2893 25.1687 17.5365 25.6408V23.7812H19.4635V25.6408ZM17.5365 21.8541H14.6458L12.7188 18.9635L15.6094 19.927H16.5729L17.5365 18.9635H19.4635L20.4271 19.927H21.3906L24.2812 18.9635L22.3542 21.8541H19.4635L18.5 20.8905L17.5365 21.8541ZM12.7188 15.1382C13.3354 14.5312 14.1641 14.1939 15.1276 14.1939C16.043 14.1939 16.9005 14.5312 17.5365 15.1382C16.9005 15.7356 16.043 16.0728 15.1276 16.0728C14.1641 16.0728 13.3354 15.7356 12.7188 15.1382ZM19.4635 15.1382C20.0802 14.5312 20.9089 14.1939 21.8724 14.1939C22.7878 14.1939 23.6453 14.5312 24.2812 15.1382C23.6453 15.7356 22.7878 16.0728 21.8724 16.0728C20.9089 16.0728 20.0802 15.7356 19.4635 15.1382Z" fill="#521C74"/>
</g>
<defs>
<linearGradient id="paint0_linear" x1="0.5" y1="0" x2="36.5" y2="36" gradientUnits="userSpaceOnUse">
<stop stop-color="#F3F0F6"/>
<stop offset="1" stop-color="#EDF7FA"/>
</linearGradient>
</defs>
</svg>
