<svg width="12" height="12" viewBox="0 0 12 12" fill="none" xmlns="http://www.w3.org/2000/svg">
<path d="M11.2031 6.44714C11.2031 7.8271 10.6549 9.15053 9.67916 10.1263C8.70339 11.1021 7.37995 11.6503 6 11.6503C4.62005 11.6503 3.29661 11.1021 2.32083 10.1263C1.34506 9.15053 0.796875 7.8271 0.796875 6.44714L0.814219 1.49261C2.34625 0.596518 4.12688 0.0877686 6.02891 0.0877686C7.90781 0.0877686 9.67688 0.590737 11.2031 1.46371V6.44714ZM6.57812 10.4536C8.53797 10.1703 10.0469 8.47058 10.0469 6.44714V2.16324C8.83281 1.57355 7.46844 1.24402 6.02891 1.24402C4.55469 1.24402 3.15563 1.59089 1.91844 2.20371L1.95312 6.44714C1.95312 8.47058 3.47359 10.1703 5.42188 10.4536V9.33777H6.57812V10.4536ZM5.42188 8.18152H3.6875L2.53125 6.44714L4.26562 7.02527H4.84375L5.42188 6.44714H6.57812L7.15625 7.02527H7.73438L9.46875 6.44714L8.3125 8.18152H6.57812L6 7.60339L5.42188 8.18152ZM2.53125 4.15199C2.90125 3.78777 3.39844 3.58542 3.97656 3.58542C4.52578 3.58542 5.04031 3.78777 5.42188 4.15199C5.04031 4.51042 4.52578 4.71277 3.97656 4.71277C3.39844 4.71277 2.90125 4.51042 2.53125 4.15199ZM6.57812 4.15199C6.94812 3.78777 7.44531 3.58542 8.02344 3.58542C8.57266 3.58542 9.08719 3.78777 9.46875 4.15199C9.08719 4.51042 8.57266 4.71277 8.02344 4.71277C7.44531 4.71277 6.94812 4.51042 6.57812 4.15199Z" fill="white"/>
</svg>