<svg width="23" height="23" viewBox="0 0 23 23" fill="none" xmlns="http://www.w3.org/2000/svg">
<path d="M7.18742 8.14632C9.03987 8.14632 10.5416 6.64461 10.5416 4.79216C10.5416 2.9397 9.03987 1.43799 7.18742 1.43799C5.33496 1.43799 3.83325 2.9397 3.83325 4.79216C3.83325 6.64461 5.33496 8.14632 7.18742 8.14632Z" fill="url(#paint0_linear)"/>
<path d="M13.2013 9.76464C12.7017 9.31556 12.1085 8.97461 11.4486 8.77581L10.6771 8.55054L7.37047 11.8572L4.05904 8.55054L3.28749 8.77581C1.32263 9.37006 0 11.1432 0 13.1942V17.2533H10.2794C9.71347 14.9658 10.3147 12.4459 12.099 10.6616C12.4389 10.3217 12.8089 10.0232 13.2013 9.76464Z" fill="url(#paint1_linear)"/>
<path d="M17.834 12.5868C17.1329 11.8859 16.201 11.5 15.2097 11.5C14.2184 11.5 13.2864 11.8859 12.5853 12.5868C11.1382 14.0337 11.1382 16.3877 12.5853 17.8346C13.3088 18.5578 14.2592 18.9194 15.2097 18.9194C16.1601 18.9194 17.1106 18.5578 17.834 17.8346C19.2811 16.3877 19.2811 14.0337 17.834 12.5868ZM12.0921 15.2107C12.0921 14.3781 12.4163 13.5954 13.0052 13.0066C13.5941 12.4178 14.3769 12.0937 15.2097 12.0937C15.9426 12.0937 16.6366 12.3453 17.194 12.8069L12.8055 17.1947C12.3437 16.6374 12.0921 15.9435 12.0921 15.2107ZM17.4142 17.4148C16.2698 18.5589 14.4495 18.6247 13.2258 17.614L17.6139 13.2267C18.0756 13.784 18.3272 14.4779 18.3272 15.2107C18.3272 16.0433 18.003 16.826 17.4142 17.4148Z" fill="url(#paint2_linear)"/>
<defs>
<linearGradient id="paint0_linear" x1="11.0871" y1="5.1332" x2="5.87964" y2="-0.161475" gradientUnits="userSpaceOnUse">
<stop stop-color="#521576"/>
<stop offset="0.0001" stop-color="#521576"/>
<stop offset="1" stop-color="#E42656"/>
</linearGradient>
<linearGradient id="paint1_linear" x1="14.2747" y1="13.3444" x2="8.10632" y2="3.83067" gradientUnits="userSpaceOnUse">
<stop stop-color="#521576"/>
<stop offset="0.0001" stop-color="#521576"/>
<stop offset="1" stop-color="#E42656"/>
</linearGradient>
<linearGradient id="paint2_linear" x1="19.5227" y1="15.5869" x2="13.7633" y2="9.73101" gradientUnits="userSpaceOnUse">
<stop stop-color="#521576"/>
<stop offset="0.0001" stop-color="#521576"/>
<stop offset="1" stop-color="#E42656"/>
</linearGradient>
</defs>
</svg>
