<svg width="24" height="24" viewBox="0 0 24 24" fill="none" xmlns="http://www.w3.org/2000/svg">
<path fill-rule="evenodd" clip-rule="evenodd" d="M22 4C22 2.89543 21.1046 2 20 2H10C8.89543 2 8 2.89543 8 4V14C8 15.1046 8.89543 16 10 16H20C21.1046 16 22 15.1046 22 14V4ZM10 4H20V14H10V4ZM7 10V8H4C2.89543 8 2 8.89543 2 10V20C2 21.1046 2.89543 22 4 22H14C15.1046 22 16 21.1046 16 20V17H14V20H4V10H7Z" fill="url(#paint0_linear)"/>
<defs>
<linearGradient id="paint0_linear" x1="23.6263" y1="13.0168" x2="8.10102" y2="-2.76859" gradientUnits="userSpaceOnUse">
<stop stop-color="#521576"/>
<stop offset="1" stop-color="#E42656"/>
</linearGradient>
</defs>
</svg>
