<svg width="24" height="24" viewBox="0 0 24 24" fill="none" xmlns="http://www.w3.org/2000/svg">
<path d="M22.0499 12C22.0499 17.5504 17.5504 22.0499 12 22.0499C6.44949 22.0499 1.94995 17.5504 1.94995 12C1.94995 6.44949 6.44949 1.94995 12 1.94995C17.5504 1.94995 22.0499 6.44949 22.0499 12Z" stroke="#7F7F7F" stroke-width="1.5"/>
<path d="M9.22655 11.7611C10.1459 11.7611 10.8909 10.8917 10.8909 9.81804C10.8909 8.74437 10.1448 7.875 9.22544 7.875C8.3061 7.875 7.55998 8.74437 7.55998 9.81804C7.55998 10.8917 8.3061 11.7611 9.22655 11.7611ZM14.777 11.7611C15.6974 11.7611 16.4424 10.8917 16.4424 9.81804C16.4424 8.74437 15.6963 7.875 14.777 7.875C13.8576 7.875 13.1115 8.74548 13.1115 9.81804C13.1115 10.8906 13.8576 11.7611 14.777 11.7611ZM16.821 13.522C16.6251 13.4232 16.3982 13.405 16.189 13.4714C15.9798 13.5378 15.8049 13.6835 15.7019 13.8773C15.6641 13.9506 14.737 15.646 12.0023 15.646C9.28095 15.646 8.34829 13.9661 8.30166 13.8784C8.20184 13.6813 8.02778 13.5319 7.81779 13.463C7.6078 13.3942 7.37907 13.4116 7.18192 13.5115C6.98477 13.6113 6.83535 13.7854 6.76653 13.9953C6.69771 14.2053 6.71513 14.4341 6.81496 14.6312C6.87048 14.7411 8.20063 17.3115 12.0023 17.3115C15.8051 17.3115 17.133 14.74 17.1874 14.6301C17.2853 14.4345 17.3017 14.2081 17.233 14.0004C17.1643 13.7928 17.0162 13.6208 16.821 13.522Z" fill="#7F7F7F"/>
</svg>
