<svg width="12" height="12" viewBox="0 0 12 12" fill="none" xmlns="http://www.w3.org/2000/svg">
<path d="M11.2031 6.44727C11.2031 7.82722 10.6549 9.15065 9.67916 10.1264C8.70339 11.1022 7.37995 11.6504 6 11.6504C4.62005 11.6504 3.29661 11.1022 2.32083 10.1264C1.34506 9.15065 0.796875 7.82722 0.796875 6.44727L0.814219 1.49273C2.34625 0.596641 4.12688 0.0878906 6.02891 0.0878906C7.90781 0.0878906 9.67688 0.590859 11.2031 1.46383V6.44727ZM6.57812 10.4537C8.53797 10.1704 10.0469 8.4707 10.0469 6.44727V2.16336C8.83281 1.57367 7.46844 1.24414 6.02891 1.24414C4.55469 1.24414 3.15563 1.59102 1.91844 2.20383L1.95312 6.44727C1.95312 8.4707 3.47359 10.1704 5.42188 10.4537V9.33789H6.57812V10.4537ZM5.42188 8.18164H3.6875L2.53125 6.44727L4.26562 7.02539H4.84375L5.42188 6.44727H6.57812L7.15625 7.02539H7.73438L9.46875 6.44727L8.3125 8.18164H6.57812L6 7.60352L5.42188 8.18164ZM2.53125 4.15211C2.90125 3.78789 3.39844 3.58555 3.97656 3.58555C4.52578 3.58555 5.04031 3.78789 5.42188 4.15211C5.04031 4.51055 4.52578 4.71289 3.97656 4.71289C3.39844 4.71289 2.90125 4.51055 2.53125 4.15211ZM6.57812 4.15211C6.94812 3.78789 7.44531 3.58555 8.02344 3.58555C8.57266 3.58555 9.08719 3.78789 9.46875 4.15211C9.08719 4.51055 8.57266 4.71289 8.02344 4.71289C7.44531 4.71289 6.94812 4.51055 6.57812 4.15211Z" fill="white"/>
</svg>
