<svg width="95" height="94" viewBox="0 0 95 94" fill="none" xmlns="http://www.w3.org/2000/svg">
<g id="Group 40">
<rect id="Rectangle 35" width="95" height="94" rx="5" fill="#5B0078"/>
<g id="Group 39">
<rect id="Rectangle 38" x="53.9355" y="47" width="28.2547" height="9.80858" rx="2" transform="rotate(45 53.9355 47)" fill="#F6014B"/>
<path id="Subtract" fill-rule="evenodd" clip-rule="evenodd" d="M60.0033 69.003C60.9136 69.9133 60.7391 71.4372 59.5895 72.0169C55.8048 73.9252 51.5279 75 47 75C31.536 75 19 62.464 19 47C19 31.536 31.536 19 47 19C62.464 19 75 31.536 75 47C75 51.5277 73.9254 55.8043 72.0172 59.5888C71.4376 60.7384 69.9137 60.9129 69.0033 60.0026L65.9286 56.9278C65.3205 56.3198 65.1787 55.3947 65.5057 54.5994C66.4688 52.2564 67 49.6902 67 47C67 35.9543 58.0457 27 47 27C35.9543 27 27 35.9543 27 47C27 58.0457 35.9543 67 47 67C49.6905 67 52.2569 66.4687 54.6 65.5054C55.3954 65.1784 56.3204 65.3202 56.9285 65.9283L60.0033 69.003Z" fill="#49C1D7"/>
</g>
</g>
</svg>
