<svg width="104" height="104" viewBox="0 0 104 104" fill="none" xmlns="http://www.w3.org/2000/svg">
<rect y="8" width="96" height="96" rx="6" fill="#521C74"/>
<path fill-rule="evenodd" clip-rule="evenodd" d="M27.7276 70C27.5596 70.2251 27.4101 70.4386 27.2944 70.6308C27.0979 70.9583 27 71.4253 27 72.032V79.1785C27 79.6931 27.1842 80.1243 27.5534 80.4752C27.9234 80.8253 28.3781 81 28.9208 81H68.0792C68.6203 81 69.0766 80.837 69.445 80.5095C69.815 80.1835 70 79.7632 70 79.2487V71.8215C70 71.3084 69.815 70.8757 69.445 70.5255C69.0766 70.1754 68.6203 70 68.0792 70H45.4709H27.7276Z" fill="#67BFD3"/>
<path fill-rule="evenodd" clip-rule="evenodd" d="M68.3706 42C68.7823 41.3981 69 40.7377 69 40.0129V32.8457C69 32.3252 68.8167 31.8869 68.4508 31.5323C68.085 31.1777 67.6328 31 67.0966 31H29.8301C29.2923 31 28.8532 31.1777 28.5117 31.5323C28.1703 31.8869 28 32.3252 28 32.8457V40.2261C28 40.6992 28.1833 41.1131 28.5492 41.4677C28.915 41.8223 29.3412 42 29.8301 42H51.648H68.3706Z" fill="#67BFD3"/>
<path fill-rule="evenodd" clip-rule="evenodd" d="M67.6887 43.402C67.8067 43.2719 67.9041 43.1363 68 43H51.8494L29.3637 68.5309C29.2272 68.6966 29.1114 68.849 29 69H45.9805L67.6887 43.402Z" fill="#E42656"/>
<rect x="82" y="2" width="20" height="20" rx="10" fill="#E42656" stroke="#F0F0F0" stroke-width="3"/>
<path d="M92.1309 17C92.0376 17 91.9583 16.9673 91.8929 16.902C91.8276 16.8367 91.7949 16.7573 91.7949 16.664V9.44L89.6809 11.064C89.6249 11.1107 89.5549 11.134 89.4709 11.134C89.3589 11.134 89.2703 11.0873 89.2049 10.994L88.6029 10.21C88.5563 10.1447 88.5329 10.0793 88.5329 10.014C88.5329 9.902 88.5843 9.80867 88.6869 9.734L91.8229 7.298C91.9256 7.23267 92.0423 7.2 92.1729 7.2H93.4329C93.5263 7.2 93.6056 7.23267 93.6709 7.298C93.7363 7.36333 93.7689 7.44267 93.7689 7.536V16.664C93.7689 16.7573 93.7363 16.8367 93.6709 16.902C93.6056 16.9673 93.5263 17 93.4329 17H92.1309Z" fill="white"/>
</svg>
