<svg width="18" height="18" viewBox="0 0 18 18" fill="none" xmlns="http://www.w3.org/2000/svg">
<path fill-rule="evenodd" clip-rule="evenodd" d="M8.3945 15.3872C8.00397 15.7778 7.37081 15.7778 6.98028 15.3872L1.30015 9.70711C0.909624 9.31658 0.909624 8.68342 1.30015 8.29289L6.98028 2.61276C7.37081 2.22223 8.00397 2.22223 8.3945 2.61276C8.78502 3.00328 8.78502 3.63645 8.3945 4.02697L3.42147 9L8.3945 13.973C8.78502 14.3636 8.78502 14.9967 8.3945 15.3872Z" fill="#0D1531"/>
<path fill-rule="evenodd" clip-rule="evenodd" d="M17 9C17 9.55228 16.5523 10 16 10L4 10C3.44771 10 3 9.55228 3 9C3 8.44772 3.44771 8 4 8L16 8C16.5523 8 17 8.44772 17 9Z" fill="#0D1531"/>
</svg>
