<svg width="56" height="56" viewBox="0 0 56 56" fill="none" xmlns="http://www.w3.org/2000/svg">
<g clip-path="url(#clip0)">
<path fill-rule="evenodd" clip-rule="evenodd" d="M32.8784 14.3115C30.5093 14.5372 27.1631 17.8603 25.4695 19.9182L28.6285 23.3644C29.8684 22.5486 31.5499 21.2685 32.8784 19.8955V14.3115Z" fill="#67BFD3"/>
<path d="M28.1856 13.0271C29.8867 13.9064 30.9682 16.5568 31.5746 18.3444C32.181 20.1319 32.1943 21.7891 31.6464 24.0213C31.1956 24.9718 30.6355 26.0388 30.0393 27.1745C26.8906 33.1729 25.0293 36.7188 25.6888 40.3847C26.9282 47.2741 32.1554 50.6011 39.0533 49.3602L45.0893 48.2744C51.9872 47.0335 55.7272 42.0933 54.4878 35.2039C52.5 28.9785 46.5579 27.2505 42.9572 24.0189C42.0027 23.1622 41.1058 22.3573 40.3521 21.6236C39.0605 19.7222 38.4954 18.1643 38.4408 16.2775C38.3863 14.3907 37.7739 11.725 39.0619 10.3079L28.1856 13.0271Z" fill="#F8BA2B"/>
<path d="M40.1802 17.3053C38.7514 14.672 40.2951 15.7181 27.9439 18.8982L27.0712 28.556C43.2819 27.1275 41.7072 20.1198 40.1802 17.3053Z" fill="#67BFD3"/>
<path d="M28.8248 16.4791L1.7254 9.61133L-9.33721e-05 31.1508L27.8182 29.0438L28.8248 16.4791Z" fill="#521C74"/>
<rect x="45.6153" y="16.7148" width="10.7049" height="1.4868" rx="0.743399" transform="rotate(-45 45.6153 16.7148)" fill="#521C74"/>
<rect x="47.6" y="18.4785" width="6.53333" height="1.4" rx="0.700001" fill="#521C74"/>
<rect width="6.06667" height="1.4" rx="0.700001" transform="matrix(6.2438e-08 -1 -1 -6.2438e-08 44.8 15.2119)" fill="#521C74"/>
<path fill-rule="evenodd" clip-rule="evenodd" d="M34.5973 39.7452C33.4609 36.3964 35.2609 32.7473 38.61 31.6108C41.9589 30.4744 45.6079 32.2741 46.7444 35.6232C47.8809 38.9723 46.0812 42.6213 42.7321 43.7578C39.3829 44.8943 35.7338 43.0941 34.5973 39.7452ZM35.5999 39.405C36.5487 42.2012 39.5955 43.7041 42.3917 42.7552C45.1876 41.8064 46.6903 38.7594 45.7416 35.9635C44.7928 33.1676 41.7463 31.6646 38.9501 32.6135C36.1539 33.5624 34.651 36.6088 35.5999 39.405Z" fill="white"/>
<path fill-rule="evenodd" clip-rule="evenodd" d="M42.1947 35.0561L41.8803 34.1297L40.2231 34.692L39.8781 33.6754L38.8603 34.0207L39.2053 35.0374L37.5484 35.5997L37.9649 36.8268L40.5336 35.9551L39.414 39.559L39.1478 40.3128L39.4622 41.2392L41.1191 40.677L41.463 41.6904L41.5851 41.649L41.5865 41.6533L42.3602 41.3908L42.3587 41.3865L42.4808 41.345L42.1369 40.3316L43.794 39.7692L43.3776 38.5421L40.8086 39.4139L41.9282 35.81L42.1947 35.0561Z" fill="white"/>
</g>
<defs>
<clipPath id="clip0">
<path d="M0 0H56V56H0V0Z" fill="white"/>
</clipPath>
</defs>
</svg>
