<svg width="15" height="14" viewBox="0 0 15 14" fill="none" xmlns="http://www.w3.org/2000/svg">
<path d="M7.65641 0.333496C3.96975 0.333496 0.989746 3.3135 0.989746 7.00016C0.989746 10.6868 3.96975 13.6668 7.65641 13.6668C11.3431 13.6668 14.3231 10.6868 14.3231 7.00016C14.3231 3.3135 11.3431 0.333496 7.65641 0.333496ZM7.65641 12.3335C4.71641 12.3335 2.32308 9.94016 2.32308 7.00016C2.32308 4.06016 4.71641 1.66683 7.65641 1.66683C10.5964 1.66683 12.9897 4.06016 12.9897 7.00016C12.9897 9.94016 10.5964 12.3335 7.65641 12.3335ZM10.0497 3.66683L7.65641 6.06016L5.26308 3.66683L4.32308 4.60683L6.71641 7.00016L4.32308 9.3935L5.26308 10.3335L7.65641 7.94016L10.0497 10.3335L10.9897 9.3935L8.59641 7.00016L10.9897 4.60683L10.0497 3.66683Z" fill="#67BFD3"/>
</svg>
