<svg width="14" height="14" viewBox="0 0 14 14" fill="none" xmlns="http://www.w3.org/2000/svg">
<path d="M7.00016 0.333496C3.3135 0.333496 0.333496 3.3135 0.333496 7.00016C0.333496 10.6868 3.3135 13.6668 7.00016 13.6668C10.6868 13.6668 13.6668 10.6868 13.6668 7.00016C13.6668 3.3135 10.6868 0.333496 7.00016 0.333496ZM7.00016 12.3335C4.06016 12.3335 1.66683 9.94016 1.66683 7.00016C1.66683 4.06016 4.06016 1.66683 7.00016 1.66683C9.94016 1.66683 12.3335 4.06016 12.3335 7.00016C12.3335 9.94016 9.94016 12.3335 7.00016 12.3335ZM9.3935 3.66683L7.00016 6.06016L4.60683 3.66683L3.66683 4.60683L6.06016 7.00016L3.66683 9.3935L4.60683 10.3335L7.00016 7.94016L9.3935 10.3335L10.3335 9.3935L7.94016 7.00016L10.3335 4.60683L9.3935 3.66683Z" fill="#7F7F7F"/>
</svg>
