<svg width="16" height="5" viewBox="0 0 16 5" fill="none" xmlns="http://www.w3.org/2000/svg">
<path d="M12 2.23828C12 3.33828 12.9 4.23828 14 4.23828C15.1 4.23828 16 3.33828 16 2.23828C16 1.13828 15.1 0.238281 14 0.238281C12.9 0.238281 12 1.13828 12 2.23828ZM10 2.23828C10 1.13828 9.1 0.238281 8 0.238281C6.9 0.238281 6 1.13828 6 2.23828C6 3.33828 6.9 4.23828 8 4.23828C9.1 4.23828 10 3.33828 10 2.23828ZM4 2.23828C4 1.13828 3.1 0.238281 2 0.238281C0.9 0.238281 -3.93403e-08 1.13828 -8.74228e-08 2.23828C-1.35505e-07 3.33828 0.899999 4.23828 2 4.23828C3.1 4.23828 4 3.33828 4 2.23828Z" fill="#0D1531"/>
</svg>
