<svg width="14" height="10" viewBox="0 0 14 10" fill="none" xmlns="http://www.w3.org/2000/svg">
<path d="M3.01489 3.7307C3.40093 1.77212 5.12108 0.301758 7.18753 0.301758C8.8282 0.301758 10.2531 1.2328 10.9628 2.59529C12.6716 2.77695 14 4.2246 14 5.97882C14 7.85792 12.4729 9.38505 10.5938 9.38505H3.21359C1.64672 9.38505 0.375061 8.11339 0.375061 6.54652C0.375061 5.04778 1.53886 3.83289 3.01489 3.7307ZM3.21359 8.24964H10.5938C11.8484 8.24964 12.8646 7.23345 12.8646 5.97882C12.8646 4.81502 11.996 3.84424 10.8436 3.72502L10.2361 3.66258L9.95226 3.12326C9.41294 2.08435 8.357 1.43717 7.18753 1.43717C5.70014 1.43717 4.41713 2.4931 4.1276 3.95211L3.95728 4.80366L3.08869 4.86611C2.20307 4.92288 1.51047 5.66658 1.51047 6.54652C1.51047 7.48324 2.27688 8.24964 3.21359 8.24964ZM6.36436 3.70799H8.0107V5.41111H9.45835L7.18753 7.68193L4.91671 5.41111H6.36436V3.70799Z" fill="#67BFD3"/>
</svg>
