<svg width="14" height="10" viewBox="0 0 14 10" fill="none" xmlns="http://www.w3.org/2000/svg">
<path d="M3.01489 3.88744C3.40093 1.92885 5.12108 0.458496 7.18753 0.458496C8.8282 0.458496 10.2531 1.38953 10.9628 2.75203C12.6716 2.93369 14 4.38134 14 6.13555C14 8.01466 12.4729 9.54179 10.5938 9.54179H3.21359C1.64672 9.54179 0.375061 8.27013 0.375061 6.70326C0.375061 5.20452 1.53886 3.98963 3.01489 3.88744ZM3.21359 8.40638H10.5938C11.8484 8.40638 12.8646 7.39018 12.8646 6.13555C12.8646 4.97176 11.996 4.00098 10.8436 3.88176L10.2361 3.81931L9.95226 3.27999C9.41294 2.24109 8.357 1.59391 7.18753 1.59391C5.70014 1.59391 4.41713 2.64984 4.1276 4.10884L3.95728 4.9604L3.08869 5.02285C2.20307 5.07962 1.51047 5.82332 1.51047 6.70326C1.51047 7.63997 2.27688 8.40638 3.21359 8.40638ZM6.36436 3.86473H8.0107V5.56785H9.45835L7.18753 7.83867L4.91671 5.56785H6.36436V3.86473Z" fill="#7F7F7F"/>
</svg>
