<svg width="96" height="96" viewBox="0 0 96 96" fill="none" xmlns="http://www.w3.org/2000/svg">
<circle cx="44" cy="49" r="25" fill="#F0F0F0"/>
<path d="M3 33H28.35L34.525 38.525L42 46V85H3V33Z" fill="white"/>
<path d="M9 29C4.03875 29 0 33.0733 0 38.0769V78.9231C0 83.9267 4.03875 88 9 88H36C40.9613 88 45 83.9267 45 78.9231V47.1538C45 44.7439 42.8107 42.4565 38.8823 38.5739C38.3333 38.0293 37.7482 37.4347 37.1948 36.872C36.6367 36.3137 36.0472 35.7941 35.5073 35.2404C31.6575 31.276 29.3918 29 27 29H9ZM9 33.5385H25.3822C27.0045 33.956 27 35.9212 27 37.9362V44.8846C27 46.135 28.0103 47.1538 29.25 47.1538H36C38.2455 47.1538 40.5 47.1652 40.5 49.4231V78.9231C40.5 80.1268 40.0259 81.2811 39.182 82.1323C38.3381 82.9834 37.1935 83.4615 36 83.4615H9C7.80653 83.4615 6.66193 82.9834 5.81802 82.1323C4.97411 81.2811 4.5 80.1268 4.5 78.9231V38.0769C4.5 36.8732 4.97411 35.7189 5.81802 34.8677C6.66193 34.0166 7.80653 33.5385 9 33.5385Z" fill="#67BFD3"/>
<rect x="9" y="60" width="27" height="4" rx="2" fill="#521C74"/>
<rect x="9" y="53" width="24" height="4" rx="2" fill="#521C74"/>
<rect x="9" y="67" width="14" height="4" rx="2" fill="#521C74"/>
<path d="M23 39H10.8261C9.81757 39 9 39.8954 9 41C9 42.1046 9.81757 43 10.8261 43H23V39Z" fill="#521C74"/>
<circle cx="69" cy="79" r="8" fill="#F0F0F0"/>
<circle cx="21" cy="20" r="6" fill="#F0F0F0"/>
<ellipse cx="35" cy="9.5" rx="2" ry="2.5" fill="#F0F0F0"/>
<path d="M54 12H79.35L85.525 17.525L93 25V64H54V12Z" fill="white"/>
<circle cx="68.5" cy="33.5" r="4.5" fill="#E42656"/>
<path d="M60 9C55.0388 9 51 13.0042 51 17.9231V58.0769C51 62.9958 55.0388 67 60 67H87C91.9613 67 96 62.9958 96 58.0769V26.8462C96 24.4771 93.8107 22.2285 89.8823 18.4116C89.3333 17.8762 88.7482 17.2918 88.1948 16.7385C87.6367 16.1898 87.0472 15.6789 86.5073 15.1346C82.6575 11.2375 80.3918 9 78 9H60ZM60 13.4615H76.3822C78.0045 13.872 78 15.8038 78 17.7848V24.6154C78 25.8445 79.0103 26.8462 80.25 26.8462H87C89.2455 26.8462 91.5 26.8573 91.5 29.0769V58.0769C91.5 59.2602 91.0259 60.395 90.182 61.2317C89.3381 62.0684 88.1935 62.5385 87 62.5385H60C58.8065 62.5385 57.6619 62.0684 56.818 61.2317C55.9741 60.395 55.5 59.2602 55.5 58.0769V17.9231C55.5 16.7398 55.9741 15.605 56.818 14.7683C57.6619 13.9316 58.8065 13.4615 60 13.4615Z" fill="#521C74"/>
<path d="M72.9432 47.258C76.6615 47.258 77.612 36 80.2984 36C82.9847 36 86.8026 51.5607 86.8026 51.5607C87.4363 52.9605 86.4111 54 85.6032 54H61.6976C60.7041 54 59.4232 53.2473 60.2832 52.2789C60.2832 52.2789 64.4609 42.6685 66.7897 42.6685C69.1185 42.6685 70.1889 47.258 72.9432 47.258Z" fill="#67BFD3"/>
</svg>
