<svg width="24" height="25" viewBox="0 0 24 25" fill="none" xmlns="http://www.w3.org/2000/svg">
<path fill-rule="evenodd" clip-rule="evenodd" d="M14.8647 4.26688L18.4763 7.94413C18.6014 8.07148 18.6717 8.24421 18.6717 8.42434V19.0105C18.6717 19.7608 18.0744 20.369 17.3376 20.369H6.66424C5.9274 20.369 5.33008 19.7608 5.33008 19.0105V5.4263C5.33008 4.67606 5.9274 4.06787 6.66424 4.06787H14.3931C14.57 4.06791 14.7396 4.13949 14.8647 4.26688ZM17.004 19.0105C17.1882 19.0105 17.3376 18.8585 17.3376 18.6709V8.84613C17.3376 8.75623 17.3025 8.67001 17.2402 8.60637L14.2143 5.52546C14.1518 5.46198 14.0671 5.42631 13.9788 5.4263H6.99779C6.81358 5.4263 6.66424 5.57834 6.66424 5.7659V18.6709C6.66424 18.8585 6.81358 19.0105 6.99779 19.0105H17.004ZM9.86558 10.86C10.6024 10.86 11.1997 10.2518 11.1997 9.50157C11.1997 8.75133 10.6024 8.14314 9.86558 8.14314C9.12874 8.14314 8.53141 8.75133 8.53141 9.50157C8.53141 10.2518 9.12874 10.86 9.86558 10.86ZM13.201 11.1609C13.316 11.1609 13.4229 11.2212 13.4838 11.3205L16.3783 16.0336C16.4106 16.0859 16.4124 16.152 16.383 16.2061C16.3536 16.2602 16.2976 16.2938 16.2369 16.2937H8.16518C8.10445 16.2938 8.04848 16.2602 8.01906 16.2061C7.98965 16.152 7.99145 16.0859 8.02376 16.0336L9.87492 13.0185C9.93587 12.9192 10.0428 12.8589 10.1578 12.8589C10.2728 12.8589 10.3797 12.9192 10.4406 13.0185L11.017 13.9572C11.0477 14.0065 11.101 14.0364 11.1584 14.0364C11.2157 14.0364 11.2691 14.0065 11.2998 13.9572L12.9182 11.3205C12.9791 11.2212 13.086 11.1609 13.201 11.1609Z" fill="#5E6871"/>
<mask id="mask0_136_19389" style="mask-type:alpha" maskUnits="userSpaceOnUse" x="5" y="4" width="14" height="17">
<path fill-rule="evenodd" clip-rule="evenodd" d="M14.8647 4.26688L18.4763 7.94413C18.6014 8.07148 18.6717 8.24421 18.6717 8.42434V19.0105C18.6717 19.7608 18.0744 20.369 17.3376 20.369H6.66424C5.9274 20.369 5.33008 19.7608 5.33008 19.0105V5.4263C5.33008 4.67606 5.9274 4.06787 6.66424 4.06787H14.3931C14.57 4.06791 14.7396 4.13949 14.8647 4.26688ZM17.004 19.0105C17.1882 19.0105 17.3376 18.8585 17.3376 18.6709V8.84613C17.3376 8.75623 17.3025 8.67001 17.2402 8.60637L14.2143 5.52546C14.1518 5.46198 14.0671 5.42631 13.9788 5.4263H6.99779C6.81358 5.4263 6.66424 5.57834 6.66424 5.7659V18.6709C6.66424 18.8585 6.81358 19.0105 6.99779 19.0105H17.004ZM9.86558 10.86C10.6024 10.86 11.1997 10.2518 11.1997 9.50157C11.1997 8.75133 10.6024 8.14314 9.86558 8.14314C9.12874 8.14314 8.53141 8.75133 8.53141 9.50157C8.53141 10.2518 9.12874 10.86 9.86558 10.86ZM13.201 11.1609C13.316 11.1609 13.4229 11.2212 13.4838 11.3205L16.3783 16.0336C16.4106 16.0859 16.4124 16.152 16.383 16.2061C16.3536 16.2602 16.2976 16.2938 16.2369 16.2937H8.16518C8.10445 16.2938 8.04848 16.2602 8.01906 16.2061C7.98965 16.152 7.99145 16.0859 8.02376 16.0336L9.87492 13.0185C9.93587 12.9192 10.0428 12.8589 10.1578 12.8589C10.2728 12.8589 10.3797 12.9192 10.4406 13.0185L11.017 13.9572C11.0477 14.0065 11.101 14.0364 11.1584 14.0364C11.2157 14.0364 11.2691 14.0065 11.2998 13.9572L12.9182 11.3205C12.9791 11.2212 13.086 11.1609 13.201 11.1609Z" fill="white"/>
</mask>
<g mask="url(#mask0_136_19389)">
</g>
</svg>
