<?xml version="1.0" encoding="UTF-8"?>
<svg xmlns="http://www.w3.org/2000/svg" xmlns:xlink="http://www.w3.org/1999/xlink" viewBox="0 0 64 64" width="64px" height="64px">
<g id="surface1424302">
<path style=" stroke:none;fill-rule:nonzero;fill:rgb(100%,100%,100%);fill-opacity:1;" d="M 32 3 C 16 3 3 16 3 32 C 3 48 16 61 32 61 C 48 61 61 48 61 32 C 61 16 48 3 32 3 Z M 32 6 C 46.351562 6 58 17.648438 58 32 C 58 46.351562 46.351562 58 32 58 C 17.648438 58 6 46.351562 6 32 C 6 17.648438 17.648438 6 32 6 Z M 32 19 C 31.148438 19 30.5 19.648438 30.5 20.5 L 30.5 23 C 30.5 23.851562 31.148438 24.5 32 24.5 C 32.851562 24.5 33.5 23.851562 33.5 23 L 33.5 20.5 C 33.5 19.648438 32.851562 19 32 19 Z M 32 29 C 31.148438 29 30.5 29.648438 30.5 30.5 L 30.5 43.5 C 30.5 44.351562 31.148438 45 32 45 C 32.851562 45 33.5 44.351562 33.5 43.5 L 33.5 30.5 C 33.5 29.648438 32.851562 29 32 29 Z M 32 29 "/>
</g>
</svg>
