<svg width="24" height="24" viewBox="0 0 24 24" fill="none" xmlns="http://www.w3.org/2000/svg">
<path d="M13.6687 2.9812C14.4063 2.24357 15.4068 1.82917 16.45 1.82917C17.4931 1.82917 18.4936 2.24357 19.2312 2.9812C19.9688 3.71883 20.3832 4.71928 20.3832 5.76245C20.3832 6.80562 19.9688 7.80607 19.2312 8.5437L9.2187 18.5562C8.77612 18.9988 8.17586 19.2474 7.54995 19.2474C6.92405 19.2474 6.32378 18.9988 5.8812 18.5562C5.43862 18.1136 5.18998 17.5134 5.18998 16.8874C5.18998 16.2615 5.43862 15.6613 5.8812 15.2187L13.6687 7.4312C13.8162 7.28367 14.0163 7.20079 14.225 7.20079C14.4336 7.20079 14.6337 7.28367 14.7812 7.4312C14.9287 7.57873 15.0116 7.77882 15.0116 7.98745C15.0116 8.19608 14.9287 8.39617 14.7812 8.5437L6.9937 16.3312C6.84618 16.4787 6.7633 16.6788 6.7633 16.8874C6.7633 17.0961 6.84618 17.2962 6.9937 17.4437C7.14123 17.5912 7.34132 17.6741 7.54995 17.6741C7.75859 17.6741 7.95868 17.5912 8.1062 17.4437L18.1187 7.4312C18.3378 7.21206 18.5117 6.9519 18.6303 6.66557C18.7489 6.37925 18.8099 6.07237 18.8099 5.76245C18.8099 5.45254 18.7489 5.14565 18.6303 4.85933C18.5117 4.57301 18.3378 4.31284 18.1187 4.0937C17.8996 3.87456 17.6394 3.70072 17.3531 3.58212C17.0667 3.46352 16.7599 3.40248 16.45 3.40248C16.14 3.40248 15.8332 3.46352 15.5468 3.58212C15.2605 3.70072 15.0003 3.87456 14.7812 4.0937L4.7687 14.1062C4.03107 14.8438 3.61667 15.8443 3.61667 16.8874C3.61667 17.9306 4.03107 18.9311 4.7687 19.6687C5.50634 20.4063 6.50678 20.8207 7.54995 20.8207C8.59312 20.8207 9.59357 20.4063 10.3312 19.6687L18.1187 11.8812C18.2662 11.7337 18.4663 11.6508 18.675 11.6508C18.8836 11.6508 19.0837 11.7337 19.2312 11.8812C19.3787 12.0287 19.4616 12.2288 19.4616 12.4375C19.4616 12.6461 19.3787 12.8462 19.2312 12.9937L11.4437 20.7812C10.411 21.8139 9.01039 22.394 7.54995 22.394C6.08951 22.394 4.68889 21.8139 3.6562 20.7812C2.62352 19.7485 2.04336 18.3479 2.04336 16.8874C2.04336 15.427 2.62352 14.0264 3.6562 12.9937L13.6687 2.9812Z" fill="black"/>
</svg>
