<svg width="96" height="96" viewBox="0 0 96 96" fill="none" xmlns="http://www.w3.org/2000/svg">
<rect width="96" height="96" rx="8" fill="#254658"/>
<path d="M27.0854 61.205C22.9954 65.295 22.7754 72.75 22.7754 72.75C22.7754 72.75 30.2254 72.53 34.3204 68.44C38.4154 64.35 40.1104 59.415 38.1104 57.42C36.1104 55.42 31.1754 57.115 27.0854 61.205Z" fill="url(#paint0_linear_266_918)"/>
<path opacity="0.2" d="M35.7754 57.5801C36.4904 57.5801 37.0354 57.7651 37.4004 58.1251C38.7754 59.5001 37.5554 63.7851 33.6104 67.7351C30.7604 70.5851 26.0154 71.4251 23.8654 71.6651C24.1054 69.5151 24.9454 64.7701 27.7904 61.9201C30.4254 59.2801 33.5604 57.5801 35.7754 57.5801ZM35.7754 56.5801C33.3704 56.5801 30.0104 58.2801 27.0854 61.2101C22.9954 65.3001 22.7754 72.7551 22.7754 72.7551C22.7754 72.7551 30.2254 72.5351 34.3204 68.4451C38.4154 64.3551 40.1104 59.4201 38.1104 57.4251C37.5404 56.8451 36.7354 56.5801 35.7754 56.5801Z" fill="#424242"/>
<path d="M28.3244 62.6451C25.7494 65.2201 25.6094 69.9101 25.6094 69.9101C25.6094 69.9101 30.2994 69.7701 32.8744 67.1951C35.4494 64.6201 36.5194 61.5101 35.2594 60.2551C33.9994 59.0001 30.9044 60.0651 28.3244 62.6451Z" fill="url(#paint1_linear_266_918)"/>
<path d="M33.6052 62.69C36.0552 65.305 39.2702 65.03 39.5352 64.6L41.7752 60.96C41.9102 60.74 41.7852 60.39 41.6902 60.3L35.6452 54.255C35.5502 54.16 35.2152 54.05 34.9952 54.185L31.3552 56.425C30.9302 56.69 30.4502 59.315 33.6052 62.69Z" fill="#546E7A"/>
<path d="M50.0642 69.34C49.5642 69.745 48.8942 69.655 48.8092 69.055C48.5742 67.395 48.7292 64.06 46.6392 61.97C44.5992 59.93 41.2842 59.63 41.2842 59.63L53.7642 53.48C53.7642 53.48 56.1142 57.105 54.8192 62.265C53.7392 66.53 51.8942 67.845 50.0642 69.34Z" fill="#0288D1"/>
<path opacity="0.2" d="M53.0613 55.495C53.1513 55.74 53.2463 56.02 53.3313 56.33C53.6713 57.57 53.9563 59.545 53.3613 61.895C52.6063 64.905 51.4763 66.195 50.1513 67.325C49.9813 65.415 49.6113 62.815 47.6963 60.905C46.9963 60.205 46.1763 59.675 45.3713 59.28L53.0613 55.495ZM53.7613 53.48L41.2812 59.63C41.2812 59.63 44.6013 59.935 46.6363 61.97C48.7263 64.06 48.5713 67.395 48.8063 69.055C48.8563 69.41 49.1163 69.59 49.4213 69.59C49.6313 69.59 49.8613 69.505 50.0613 69.34C51.8913 67.845 53.7363 66.53 54.8113 62.265C56.1163 57.1 53.7613 53.48 53.7613 53.48Z" fill="#424242"/>
<path d="M26.334 46.325C25.844 46.745 26.019 47.495 26.619 47.58C28.279 47.815 31.614 47.66 33.704 49.75C35.744 51.79 36.169 54.68 36.169 54.68L42.199 41.915C42.199 41.915 39.009 40.42 34.369 41.625C31.169 42.46 27.994 44.895 26.334 46.325Z" fill="#0288D1"/>
<path opacity="0.2" d="M37.9708 42.655C38.8058 42.655 39.5258 42.745 40.0958 42.855L36.3458 50.805C35.9458 50.09 35.4308 49.355 34.7658 48.695C32.9908 46.92 30.6308 46.475 28.7708 46.285C30.3858 45.055 32.5808 43.645 34.7408 43.08C35.8208 42.795 36.9058 42.655 37.9708 42.655ZM37.9708 41.155C36.9158 41.155 35.7008 41.28 34.3708 41.625C31.1708 42.46 28.0008 44.895 26.3408 46.325C25.8508 46.745 26.0258 47.495 26.6258 47.58C28.2858 47.815 31.6208 47.66 33.7108 49.75C35.7508 51.79 36.1758 54.68 36.1758 54.68L42.2008 41.915C42.2008 41.915 40.5808 41.155 37.9708 41.155Z" fill="#424242"/>
<path opacity="0.2" d="M35.1359 55.8651L40.0959 60.8251L38.5309 63.3701C38.4809 63.3751 38.4259 63.3751 38.3659 63.3751C37.8809 63.3751 36.1909 63.2501 34.7009 61.6601C32.8159 59.6451 32.5209 58.0701 32.5459 57.4551L35.1359 55.8651ZM35.2409 54.1201C35.1559 54.1201 35.0709 54.1401 34.9959 54.1801L31.3559 56.4201C30.9259 56.6851 30.4459 59.3101 33.6009 62.6851C35.2059 64.4001 37.1409 64.8751 38.3609 64.8751C39.0009 64.8751 39.4409 64.7451 39.5309 64.5951L41.7709 60.9551C41.9059 60.7351 41.7809 60.3851 41.6859 60.2951L35.6459 54.2551C35.5859 54.1951 35.4159 54.1201 35.2409 54.1201Z" fill="#424242"/>
<path d="M58.0361 25.2449C60.0611 26.1749 62.7911 27.7749 65.3961 30.3799C66.3161 31.2999 67.1011 32.2399 67.7811 33.1599C69.0961 34.9349 69.9961 36.6299 70.5861 37.9549C69.2711 41.4099 66.7911 45.4299 64.3661 47.8549C54.4611 57.7599 43.5211 63.4149 37.8611 59.4099C37.5311 59.1749 37.2061 58.9599 36.9111 58.6949C32.0561 54.3299 37.6161 41.8349 47.7161 31.7349C50.2511 29.1999 54.4761 26.6099 58.0361 25.2449Z" fill="url(#paint2_radial_266_918)"/>
<path d="M55.4002 44.0399C57.8579 44.0399 59.8502 42.0476 59.8502 39.5899C59.8502 37.1322 57.8579 35.1399 55.4002 35.1399C52.9425 35.1399 50.9502 37.1322 50.9502 39.5899C50.9502 42.0476 52.9425 44.0399 55.4002 44.0399Z" fill="#455A64"/>
<path opacity="0.2" d="M55.3984 36.1399C56.3184 36.1399 57.1884 36.4999 57.8384 37.1499C58.4884 37.7999 58.8484 38.6699 58.8484 39.5899C58.8484 40.5099 58.4884 41.3799 57.8384 42.0299C57.1884 42.6799 56.3184 43.0399 55.3984 43.0399C54.4784 43.0399 53.6084 42.6799 52.9584 42.0299C51.6134 40.6849 51.6134 38.4949 52.9584 37.1499C53.6084 36.4999 54.4734 36.1399 55.3984 36.1399ZM55.3984 35.1399C54.2584 35.1399 53.1184 35.5749 52.2484 36.4449C51.8347 36.858 51.5065 37.3486 51.2826 37.8887C51.0586 38.4288 50.9434 39.0077 50.9434 39.5924C50.9434 40.1771 51.0586 40.756 51.2826 41.2961C51.5065 41.8361 51.8347 42.3268 52.2484 42.7399C53.1184 43.6099 54.2584 44.0449 55.3984 44.0449C56.5384 44.0449 57.6784 43.6099 58.5484 42.7399C58.9622 42.3268 59.2904 41.8361 59.5143 41.2961C59.7383 40.756 59.8535 40.1771 59.8535 39.5924C59.8535 39.0077 59.7383 38.4288 59.5143 37.8887C59.2904 37.3486 58.9622 36.858 58.5484 36.4449C58.1352 36.0306 57.6443 35.702 57.1037 35.478C56.5631 35.2541 55.9836 35.1392 55.3984 35.1399Z" fill="#424242"/>
<path d="M46.22 52.555C47.9984 52.555 49.44 51.1133 49.44 49.335C49.44 47.5566 47.9984 46.115 46.22 46.115C44.4416 46.115 43 47.5566 43 49.335C43 51.1133 44.4416 52.555 46.22 52.555Z" fill="#455A64"/>
<path d="M58.036 25.2451C57.111 29.8101 65.171 38.7501 70.586 37.9551C72.271 33.6001 72.961 30.6451 73.421 25.5601C73.656 22.9851 72.901 22.2501 70.516 22.5301C64.191 23.2701 61.691 23.7501 58.036 25.2451Z" fill="#E53935"/>
<path opacity="0.2" d="M71.3711 23.9751C71.6711 23.9751 71.8211 24.0101 71.8761 24.0301C71.9161 24.1201 72.0161 24.4701 71.9311 25.4251C71.4861 30.3501 70.8461 33.1501 69.1911 37.4201C67.9211 40.7451 65.5011 44.6001 63.3061 46.7951C55.6511 54.4501 47.6111 59.2101 42.3211 59.2101C40.8961 59.2101 39.6861 58.8651 38.7261 58.1851L38.5611 58.0701C38.3061 57.8951 38.0911 57.7401 37.9111 57.5801C37.1011 56.8501 36.6711 55.7351 36.6311 54.2651C36.4911 48.9151 41.4811 40.0851 48.7711 32.7951C51.0561 30.5101 55.0861 27.9801 58.5661 26.6501L58.5961 26.6351C62.1311 25.1901 64.5911 24.7351 70.6811 24.0201C70.9461 23.9901 71.1761 23.9751 71.3711 23.9751ZM71.3711 22.4751C71.1111 22.4751 70.8311 22.4951 70.5161 22.5301C64.1911 23.2701 61.6911 23.7501 58.0361 25.2451C54.4761 26.6051 50.2511 29.1951 47.7161 31.7301C37.6161 41.8301 32.0561 54.3251 36.9111 58.6901C37.2011 58.9501 37.5261 59.1701 37.8611 59.4051C39.1111 60.2901 40.6211 60.7051 42.3211 60.7051C48.3111 60.7051 56.6511 55.5701 64.3711 47.8551C66.7961 45.4301 69.2761 41.4101 70.5911 37.9551C72.2761 33.6001 72.9661 30.6451 73.4261 25.5601C73.6211 23.3251 73.0811 22.4751 71.3711 22.4751Z" fill="#424242"/>
<path opacity="0.2" d="M46.2192 47.115C46.8142 47.115 47.3692 47.345 47.7892 47.765C48.2092 48.185 48.4392 48.74 48.4392 49.335C48.4392 49.93 48.2092 50.485 47.7892 50.905C47.3692 51.325 46.8142 51.555 46.2192 51.555C45.6242 51.555 45.0692 51.325 44.6492 50.905C44.2292 50.485 43.9992 49.93 43.9992 49.335C43.9992 48.74 44.2292 48.185 44.6492 47.765C45.0742 47.345 45.6292 47.115 46.2192 47.115ZM46.2192 46.115C45.3942 46.115 44.5742 46.43 43.9442 47.06C43.3414 47.6637 43.0029 48.4819 43.0029 49.335C43.0029 50.1881 43.3414 51.0063 43.9442 51.61C44.5742 52.24 45.3942 52.555 46.2192 52.555C47.0442 52.555 47.8642 52.24 48.4942 51.61C49.0969 51.0063 49.4354 50.1881 49.4354 49.335C49.4354 48.4819 49.0969 47.6637 48.4942 47.06C48.1964 46.7597 47.842 46.5216 47.4514 46.3594C47.0609 46.1972 46.642 46.1141 46.2192 46.115Z" fill="#424242"/>
<defs>
<linearGradient id="paint0_linear_266_918" x1="38.9424" y1="64.664" x2="22.7704" y2="64.664" gradientUnits="userSpaceOnUse">
<stop stop-color="#FF6D00"/>
<stop offset="0.249" stop-color="#FF9B00"/>
<stop offset="0.513" stop-color="#FFC600"/>
<stop offset="0.721" stop-color="#FFE000"/>
<stop offset="0.844" stop-color="#FFEA00"/>
</linearGradient>
<linearGradient id="paint1_linear_266_918" x1="33.4569" y1="61.9781" x2="25.0844" y2="70.6051" gradientUnits="userSpaceOnUse">
<stop offset="0.004" stop-color="#C62828"/>
<stop offset="0.271" stop-color="#D75327"/>
<stop offset="0.598" stop-color="#E98126"/>
<stop offset="0.85" stop-color="#F59D25"/>
<stop offset="0.995" stop-color="#F9A825"/>
</linearGradient>
<radialGradient id="paint2_radial_266_918" cx="0" cy="0" r="1" gradientUnits="userSpaceOnUse" gradientTransform="translate(56.9811 32.2499) rotate(180) scale(18.2365 18.2365)">
<stop offset="0.011" stop-color="#F5F5F5"/>
<stop offset="1" stop-color="#BDBDBD"/>
</radialGradient>
</defs>
</svg>
