<svg width="32" height="32" viewBox="0 0 32 32" fill="none" xmlns="http://www.w3.org/2000/svg">
<path fill-rule="evenodd" clip-rule="evenodd" d="M12 22.6666L16 18.7466C15.48 18.6933 15.0933 18.6666 14.6667 18.6666C11.1067 18.6666 4 20.4533 4 23.9999L4 26.6666H16L12 22.6666ZM14.6667 15.9999C17.6133 15.9999 20 13.6133 20 10.6666C20 7.71992 17.6133 5.33325 14.6667 5.33325C11.72 5.33325 9.33333 7.71992 9.33333 10.6666C9.33333 13.6133 11.72 15.9999 14.6667 15.9999Z" fill="url(#paint0_linear)"/>
<path fill-rule="evenodd" clip-rule="evenodd" d="M20.6267 27.3332L16 22.6665L17.8667 20.7865L20.6267 23.5598L27.4667 16.6665L29.3333 18.5465L20.6267 27.3332Z" fill="url(#paint1_linear)"/>
<defs>
<linearGradient id="paint0_linear" x1="21.301" y1="17.0845" x2="5.32886" y2="4.90466" gradientUnits="userSpaceOnUse">
<stop stop-color="#521576"/>
<stop offset="1" stop-color="#E42656"/>
</linearGradient>
<linearGradient id="paint1_linear" x1="30.4175" y1="22.5421" x2="22.3687" y2="12.3125" gradientUnits="userSpaceOnUse">
<stop stop-color="#521576"/>
<stop offset="1" stop-color="#E42656"/>
</linearGradient>
</defs>
</svg>
