<svg id="Layer_1" data-name="Layer 1" width="22" height="22" xmlns="http://www.w3.org/2000/svg" xmlns:xlink="http://www.w3.org/1999/xlink" viewBox="0 0 336.15 441.95"><defs><style>.cls-1{fill:url(#Градієнт_без_назви_12);}.cls-2{fill:url(#Градієнт_без_назви_12-2);}.cls-3{fill:url(#Градієнт_без_назви_12-3);}.cls-4{fill:url(#Градієнт_без_назви_12-4);}</style><linearGradient id="Градієнт_без_назви_12" x1="147.33" y1="123.4" x2="325.28" y2="123.4" gradientUnits="userSpaceOnUse"><stop offset="0" stop-color="#e42656"/><stop offset="1" stop-color="#521576"/></linearGradient><linearGradient id="Градієнт_без_назви_12-2" x1="68.23" y1="395.55" x2="68.25" y2="395.55" xlink:href="#Градієнт_без_назви_12"/><linearGradient id="Градієнт_без_назви_12-3" x1="404.36" y1="397.68" x2="404.38" y2="397.68" xlink:href="#Градієнт_без_назви_12"/><linearGradient id="Градієнт_без_назви_12-4" x1="68.25" y1="348.53" x2="404.36" y2="348.53" xlink:href="#Градієнт_без_назви_12"/></defs><title>Man user</title><path class="cls-1" d="M236.31,231.48c49.13,0,89-48.39,89-108.08s-13.08-108.07-89-108.07-89,48.39-89,108.07S187.17,231.48,236.31,231.48Z" transform="translate(-68.23 -15.33)"/><path class="cls-2" d="M68.25,396.49c0-3.64,0-1,0,0Z" transform="translate(-68.23 -15.33)"/><path class="cls-3" d="M404.36,399.33c0-1,0-6.91,0,0Z" transform="translate(-68.23 -15.33)"/><path class="cls-4" d="M404.17,392.12c-1.65-104-15.23-133.6-119.14-152.35,0,0-14.63,18.64-48.72,18.64s-48.73-18.64-48.73-18.64C84.8,258.32,70.4,287.5,68.5,388.75c-.15,8.26-.22,8.7-.25,7.74,0,1.8,0,5.12,0,10.92,0,0,24.74,49.87,168.05,49.87s168-49.87,168-49.87c0-3.72,0-6.32,0-8.08C404.33,399.92,404.27,398.77,404.17,392.12Z" transform="translate(-68.23 -15.33)"/></svg>
