<svg width="13" height="11" viewBox="0 0 13 11" fill="none" xmlns="http://www.w3.org/2000/svg">
<path d="M6.68983 3.57812L6.58513 7.42799H5.60253L5.49514 3.57812H6.68983ZM6.09383 9.1462C5.91664 9.1462 5.76451 9.08355 5.63743 8.95827C5.51035 8.83119 5.44771 8.67906 5.4495 8.50187C5.44771 8.32647 5.51035 8.17612 5.63743 8.05084C5.76451 7.92555 5.91664 7.86291 6.09383 7.86291C6.26386 7.86291 6.41331 7.92555 6.54217 8.05084C6.67104 8.17612 6.73637 8.32647 6.73816 8.50187C6.73637 8.61999 6.70505 8.72828 6.64419 8.82672C6.58513 8.92337 6.50727 9.00122 6.41062 9.06029C6.31397 9.11756 6.20838 9.1462 6.09383 9.1462Z" fill="white"/>
<path d="M6.36305 0.659854L11.6427 9.94641C11.7726 10.1749 11.6026 10.4375 11.3734 10.4375H0.814074C0.584925 10.4375 0.414867 10.1749 0.544779 9.94641L5.82446 0.659855C5.94564 0.446715 6.24187 0.446716 6.36305 0.659854Z" stroke="white"/>
</svg>
